<svg width="500" height="500" viewBox="0 0 500 500" fill="none" xmlns="http://www.w3.org/2000/svg">
<path d="M267.747 117.113C263.828 120.762 258.497 122.823 252.925 122.823C247.353 122.823 242.023 120.762 238.103 117.113C234.186 113.466 232 108.536 232 103.412C232 98.2873 234.186 93.3571 238.103 89.7103C242.023 86.0613 247.353 84 252.925 84C258.497 84 263.828 86.0613 267.747 89.7103C271.665 93.3571 273.851 98.2873 273.851 103.412C273.851 108.536 271.665 113.466 267.747 117.113Z" fill="#FF7A41" stroke="#FF7A41" stroke-width="2"/>
<path d="M462.925 200.234H463.925H467.241C482.724 200.234 493.584 190.997 497.447 179.726C501.306 168.468 498.202 155.146 485.589 146.83L485.589 146.83L276.953 8.999L277.501 8.16931L276.953 8.99896C269.082 3.79824 259.661 1 249.994 1C240.328 1 230.907 3.79824 223.035 8.99896L223.035 8.99904L14.365 146.829L462.925 200.234ZM462.925 200.234V201.234M462.925 200.234V201.234M462.925 201.234V378.502V378.535V379.103L463.413 379.394C484.609 392.014 498.583 414.078 498.583 439.151V483.402C498.583 487.515 496.829 491.475 493.68 494.407C490.528 497.341 486.239 499 481.754 499H18.1989C13.7134 499 9.42475 497.341 6.27328 494.407C3.12422 491.475 1.36988 487.515 1.36988 483.402V439.151C1.36988 414.079 15.3788 392.013 36.5411 379.36L37.028 379.069V378.502V201.234V200.234M462.925 201.234L37.028 200.234M37.028 200.234H36.028M37.028 200.234H36.028M36.028 200.234H32.7118C17.2293 200.234 6.39657 190.998 2.54639 179.727M36.028 200.234L2.54639 179.727M2.54639 179.727C-1.30016 168.468 1.80499 155.145 14.3641 146.83L2.54639 179.727ZM242.579 34.418L242.579 34.4183L41.5031 167.203L38.7252 169.038H42.0542H457.934H461.263L458.485 167.203L257.409 34.4183L257.409 34.418C255.235 32.9842 252.644 32.2186 249.994 32.2186C247.344 32.2186 244.753 32.9842 242.579 34.418ZM429.267 201.234V200.234H428.267H356.951H355.951V201.234V367.215V368.215H356.951H422.348H422.349C424.301 368.212 426.252 368.277 428.198 368.412L429.267 368.486V367.414V201.234ZM71.686 200.234H70.686V201.234V367.414H71.686L71.755 368.412C73.7128 368.277 75.6756 368.211 77.6388 368.215H77.6409H143.002H144.002V367.215V201.234V200.234H143.002H71.686ZM463.925 467.804H464.925V466.804V439.151C464.925 417.122 445.796 399.411 422.348 399.411H77.6409C54.194 399.411 35.028 417.121 35.028 439.151V466.804V467.804H36.028H463.925ZM232.147 368.215H233.147V367.215V201.234V200.234H232.147H178.66H177.66V201.234V367.215V368.215H178.66H232.147ZM266.805 367.215V368.215H267.805H321.293H322.293V367.215V201.234V200.234H321.293H267.805H266.805V201.234V367.215Z" fill="#FF7A41" stroke="#FF7A41" stroke-width="2"/>
</svg>
