<svg width="506" height="352" viewBox="0 0 506 352" fill="none" xmlns="http://www.w3.org/2000/svg">
<path d="M94.8644 205.567C93.5519 204.599 91.9758 204.058 90.3479 204.016C88.72 203.974 87.1183 204.433 85.7582 205.332C84.3981 206.232 83.3448 207.527 82.7397 209.045C82.1347 210.563 82.0071 212.23 82.3739 213.823C100.068 292.292 170.077 351.056 253.513 351.056C271.231 351.062 288.847 348.362 305.757 343.05C307.318 342.567 308.693 341.615 309.697 340.322C310.701 339.029 311.286 337.457 311.372 335.82C311.457 334.183 311.041 332.559 310.177 331.167C309.314 329.776 308.046 328.684 306.545 328.039C269.18 311.505 232.747 292.927 197.41 272.387C162.045 252 127.812 229.693 94.8644 205.567V205.567Z" fill="#66F875"/>
<path d="M486.964 258.217C482.823 252.68 477.961 246.867 472.436 240.825C470.631 238.828 468.344 237.332 465.795 236.48C463.247 235.629 460.523 235.45 457.886 235.961C455.249 236.473 452.787 237.657 450.738 239.4C448.689 241.143 447.121 243.387 446.186 245.914C446.186 246.073 446.078 246.222 446.018 246.38C445.033 249.068 444.802 251.975 445.351 254.785C445.9 257.595 447.208 260.199 449.131 262.314C471.606 287.117 475.243 300.521 474.314 303.348C472.337 305.561 457.463 310.184 416.843 299.846C411.025 298.365 404.661 296.559 397.749 294.429C393.295 293.053 388.752 291.569 384.12 289.975C391.396 281.597 397.862 272.545 403.432 262.939C403.6 262.651 403.778 262.364 403.946 262.066C419.033 235.681 426.966 205.787 426.954 175.364C426.958 169.067 426.628 162.775 425.965 156.514C416.507 69.0377 342.551 0.749539 253.01 0.749539C215.017 0.728082 178.07 13.2388 147.853 36.357C129.538 50.3503 114.147 67.8266 102.558 87.7889C102.4 88.0766 102.222 88.3643 102.054 88.652C96.5466 98.2845 91.9696 108.424 88.386 118.932C84.7029 115.711 81.1482 112.513 77.7221 109.338C72.3951 104.377 67.6709 99.7837 63.4706 95.4481C34.246 65.4263 30.7672 50.1972 31.6863 47.3795C33.6629 45.1671 47.0447 41.5557 79.7383 48.6792C82.5334 49.2962 85.4436 49.1313 88.1518 48.2023C90.8599 47.2734 93.2622 45.6161 95.0967 43.411L95.4525 42.9745C97.1577 40.9174 98.3077 38.455 98.7921 35.8234C99.2765 33.1918 99.0791 30.4794 98.2189 27.9465C97.3586 25.4135 95.8643 23.145 93.8794 21.3585C91.8945 19.5721 89.4856 18.3277 86.8838 17.7447C79.124 15.9797 71.2798 14.6121 63.3816 13.6472C33.0205 10.145 13.1455 16.1474 4.30004 31.5055C1.0979 37.0416 -1.97577 46.4767 1.61182 59.8803C6.91908 79.7824 25.8355 103.931 52.609 129.23C61.1381 137.296 70.458 145.471 80.4004 153.676C87.6349 159.629 95.2252 165.641 103.033 171.614C108.245 175.582 113.565 179.551 118.994 183.519C124.423 187.488 129.925 191.384 135.499 195.207C160.612 212.678 187.148 229.455 213.171 244.505C222.619 249.969 232.054 255.26 241.476 260.379C250.898 265.499 260.244 270.397 269.515 275.073C291.159 285.986 312.358 295.828 332.629 304.271C341.319 307.896 349.822 311.256 358.137 314.351C369.888 318.736 381.234 322.596 392.046 325.85L393.133 326.177C418.563 333.777 439.999 337.775 456.86 338.083H458.58C479.967 338.083 494.456 331.753 501.651 319.232C510.634 303.735 505.683 283.198 486.964 258.217Z" fill="#66F875"/>
</svg>
