<svg xmlns="http://www.w3.org/2000/svg" xmlns:xlink="http://www.w3.org/1999/xlink" viewBox="0 0 72.16 71.97"><defs><style>.cls-1{mask:url(#mask);filter:url(#luminosity-noclip-5);}.cls-16,.cls-17,.cls-2,.cls-22,.cls-4,.cls-6,.cls-8{mix-blend-mode:multiply;}.cls-2{fill:url(#linear-gradient);}.cls-3{mask:url(#mask-2);filter:url(#luminosity-noclip-6);}.cls-4{fill:url(#radial-gradient);}.cls-5{mask:url(#mask-3);filter:url(#luminosity-noclip-7);}.cls-6{fill:url(#linear-gradient-2);}.cls-7{mask:url(#mask-4);filter:url(#luminosity-noclip-8);}.cls-8{fill:url(#linear-gradient-3);}.cls-9{isolation:isolate;}.cls-10{fill:#00b0cb;}.cls-11{fill:#0b93c1;}.cls-12,.cls-16,.cls-17,.cls-18{fill:#00c3df;}.cls-13{fill:#1eb400;}.cls-14{fill:#00be1b;}.cls-15{fill:#00ce1d;}.cls-16{opacity:0.13;}.cls-17{opacity:0.33;}.cls-18,.cls-20,.cls-26,.cls-28{mix-blend-mode:screen;}.cls-18{opacity:0.56;}.cls-19{fill:#98f1ff;opacity:0.41;}.cls-19,.cls-24{mix-blend-mode:overlay;}.cls-20{fill:#00df16;opacity:0.42;}.cls-21{mask:url(#mask-5);}.cls-22{opacity:0.63;fill:url(#linear-gradient-4);}.cls-23{mask:url(#mask-6);}.cls-24{opacity:0.37;fill:url(#radial-gradient-2);}.cls-25{mask:url(#mask-7);}.cls-26{opacity:0.49;fill:url(#linear-gradient-5);}.cls-27{mask:url(#mask-8);}.cls-28{opacity:0.25;fill:url(#linear-gradient-6);}.cls-29{filter:url(#luminosity-noclip-4);}.cls-30{filter:url(#luminosity-noclip-3);}.cls-31{filter:url(#luminosity-noclip-2);}.cls-32{filter:url(#luminosity-noclip);}</style><filter id="luminosity-noclip" x="0" y="-7935.11" width="72.16" height="32766" filterUnits="userSpaceOnUse" color-interpolation-filters="sRGB"><feFlood flood-color="#fff" result="bg"/><feBlend in="SourceGraphic" in2="bg"/></filter><mask id="mask" x="0" y="-7935.11" width="72.16" height="32766" maskUnits="userSpaceOnUse"><g class="cls-32"/></mask><linearGradient id="linear-gradient" x1="10.24" y1="9.94" x2="61.7" y2="61.41" gradientUnits="userSpaceOnUse"><stop offset="0"/><stop offset="1" stop-color="#fff"/></linearGradient><filter id="luminosity-noclip-2" x="14.51" y="-7935.11" width="28.81" height="32766" filterUnits="userSpaceOnUse" color-interpolation-filters="sRGB"><feFlood flood-color="#fff" result="bg"/><feBlend in="SourceGraphic" in2="bg"/></filter><mask id="mask-2" x="14.51" y="-7935.11" width="28.81" height="32766" maskUnits="userSpaceOnUse"><g class="cls-31"/></mask><radialGradient id="radial-gradient" cx="28.91" cy="16.44" r="14.4" gradientTransform="translate(20.09 -15.63) rotate(45)" gradientUnits="userSpaceOnUse"><stop offset="0" stop-color="#fff"/><stop offset="0.1" stop-color="#fafafa"/><stop offset="0.22" stop-color="#eaeaea"/><stop offset="0.36" stop-color="#d0d0d0"/><stop offset="0.51" stop-color="#adadad"/><stop offset="0.66" stop-color="#7f7f7f"/><stop offset="0.82" stop-color="#474747"/><stop offset="0.99" stop-color="#050505"/><stop offset="1"/></radialGradient><filter id="luminosity-noclip-3" x="0.74" y="-7935.11" width="70.54" height="32766" filterUnits="userSpaceOnUse" color-interpolation-filters="sRGB"><feFlood flood-color="#fff" result="bg"/><feBlend in="SourceGraphic" in2="bg"/></filter><mask id="mask-3" x="0.74" y="-7935.11" width="70.54" height="32766" maskUnits="userSpaceOnUse"><g class="cls-30"/></mask><linearGradient id="linear-gradient-2" x1="158.3" y1="-52.15" x2="185.37" y2="-10.47" gradientTransform="translate(-133.94 19.03) rotate(19.52)" gradientUnits="userSpaceOnUse"><stop offset="0.24"/><stop offset="0.38" stop-color="#030303"/><stop offset="0.48" stop-color="#0d0d0d"/><stop offset="0.56" stop-color="#1d1d1d"/><stop offset="0.65" stop-color="#343434"/><stop offset="0.73" stop-color="#515151"/><stop offset="0.8" stop-color="#767676"/><stop offset="0.87" stop-color="#a1a1a1"/><stop offset="0.94" stop-color="#d1d1d1"/><stop offset="1" stop-color="#fff"/></linearGradient><filter id="luminosity-noclip-4" x="10.41" y="-7935.11" width="60.95" height="32766" filterUnits="userSpaceOnUse" color-interpolation-filters="sRGB"><feFlood flood-color="#fff" result="bg"/><feBlend in="SourceGraphic" in2="bg"/></filter><mask id="mask-4" x="10.41" y="-7935.11" width="60.95" height="32766" maskUnits="userSpaceOnUse"><g class="cls-29"/></mask><linearGradient id="linear-gradient-3" x1="-143.93" y1="53.31" x2="-116.85" y2="94.99" gradientTransform="matrix(0.92, -0.38, 0.38, 0.92, 137, -75.62)" xlink:href="#linear-gradient-2"/><filter id="luminosity-noclip-5" x="0" y="0" width="72.16" height="71.51" filterUnits="userSpaceOnUse" color-interpolation-filters="sRGB"><feFlood flood-color="#fff" result="bg"/><feBlend in="SourceGraphic" in2="bg"/></filter><mask id="mask-5" x="0" y="0" width="72.16" height="71.51" maskUnits="userSpaceOnUse"><g class="cls-1"><path class="cls-2" d="M72.16,34.74a9.33,9.33,0,0,0-.52-2.4c0-.21,0-.42-.07-.63L71.48,31a35,35,0,0,0-1.3-5.9c-.15-.49-.31-1-.49-1.44a4.09,4.09,0,0,0-.18-.49c-.12-.34-.26-.68-.4-1-.06-.15-.13-.31-.19-.47-.2-.46-.4-.91-.62-1.36L68.15,20c-.18-.36-.36-.71-.55-1.06l-.27-.5-.51-.89-.28-.47c-.25-.4-.5-.8-.77-1.2-.11-.16-.22-.31-.32-.47l-.55-.77-.41-.54c-.18-.23-.36-.47-.55-.7l-.43-.54c-.27-.32-.55-.65-.84-1s-.35-.38-.52-.57l-.49-.51-.58-.59-.46-.43c-.39-.37-.79-.74-1.2-1.09l-.35-.31-.75-.61L58,7.51l-.81-.62c-.67-.48-1.32-.92-2-1.34L55,5.45c-.32-.2-.64-.4-1-.59l-.18-.1A34.4,34.4,0,0,0,50.6,3.1,35.65,35.65,0,0,0,36.05,0,36.29,36.29,0,0,0,31.6.28,6.27,6.27,0,0,0,29.88.13a20.46,20.46,0,0,0-6.19,1.45c-.59.21-1.16.44-1.74.67l-.72.31-.82.37A35.11,35.11,0,0,0,1.7,23.53c-.12.34-.23.69-.34,1,0,.11-.07.21-.1.31A30.85,30.85,0,0,0,.4,38.48c0,.19,0,.38,0,.57s0,.43.07.65,0,.24,0,.37,0,.2,0,.3,0,.2,0,.31l.09.67L.85,42c0,.16.05.32.08.48s0,.19,0,.28c.06.31.13.62.2.93s.09.38.13.56a1.16,1.16,0,0,1,0,.18c.07.27.14.53.22.8s.08.3.13.46a36.63,36.63,0,0,0,1.69,4.64l0,.07c.28.62.58,1.24.9,1.84a35.7,35.7,0,0,0,5,7.27,37.7,37.7,0,0,0,3.17,3.15l.11.09c.55.48,1.12,1,1.7,1.39a35.8,35.8,0,0,0,3.76,2.53l.05,0a35.51,35.51,0,0,0,14.43,4.65l.24,0c.5.05,1,.09,1.49.11s1.18.05,1.78.05a35.69,35.69,0,0,0,13.81-2.77,3.51,3.51,0,0,0,2.08-.42,36.59,36.59,0,0,0,4.86-2.79c.47-.32.93-.67,1.39-1l.25-.2a37.07,37.07,0,0,0,5.63-5.5c.25-.29.48-.59.71-.88A36.16,36.16,0,0,0,72,38c0-.74.11-1.48.12-2.23C72.16,35.39,72.17,35.06,72.16,34.74Z"/></g></mask><linearGradient id="linear-gradient-4" x1="10.24" y1="9.94" x2="61.7" y2="61.41" gradientUnits="userSpaceOnUse"><stop offset="0" stop-color="#fff"/><stop offset="1" stop-color="#1876e7"/></linearGradient><filter id="luminosity-noclip-6" x="14.51" y="2.04" width="28.81" height="28.81" filterUnits="userSpaceOnUse" color-interpolation-filters="sRGB"><feFlood flood-color="#fff" result="bg"/><feBlend in="SourceGraphic" in2="bg"/></filter><mask id="mask-6" x="14.51" y="2.04" width="28.81" height="28.81" maskUnits="userSpaceOnUse"><g class="cls-3"><circle class="cls-4" cx="28.91" cy="16.44" r="14.4" transform="translate(-3.16 25.26) rotate(-45)"/></g></mask><radialGradient id="radial-gradient-2" cx="28.91" cy="16.44" r="14.4" gradientTransform="translate(20.09 -15.63) rotate(45)" gradientUnits="userSpaceOnUse"><stop offset="0" stop-color="#ececec"/><stop offset="0.47" stop-color="#f1f1f1"/><stop offset="1" stop-color="#fff"/></radialGradient><filter id="luminosity-noclip-7" x="0.74" y="22.23" width="70.54" height="49.68" filterUnits="userSpaceOnUse" color-interpolation-filters="sRGB"><feFlood flood-color="#fff" result="bg"/><feBlend in="SourceGraphic" in2="bg"/></filter><mask id="mask-7" x="0.74" y="22.23" width="70.54" height="49.68" maskUnits="userSpaceOnUse"><g class="cls-5"><path class="cls-6" d="M68.19,22.23A35.27,35.27,0,0,1,.74,37.45,35.27,35.27,0,1,0,68.19,22.23Z"/></g></mask><linearGradient id="linear-gradient-5" x1="158.3" y1="-52.15" x2="185.37" y2="-10.47" gradientTransform="translate(-133.94 19.03) rotate(19.52)" gradientUnits="userSpaceOnUse"><stop offset="0.24" stop-color="#fff"/><stop offset="0.92" stop-color="#fff"/><stop offset="1" stop-color="#fff"/></linearGradient><filter id="luminosity-noclip-8" x="10.41" y="4.46" width="60.95" height="67.51" filterUnits="userSpaceOnUse" color-interpolation-filters="sRGB"><feFlood flood-color="#fff" result="bg"/><feBlend in="SourceGraphic" in2="bg"/></filter><mask id="mask-8" x="10.41" y="4.46" width="60.95" height="67.51" maskUnits="userSpaceOnUse"><g class="cls-7"><path class="cls-8" d="M50.37,4.46a35.27,35.27,0,0,1-40,56.43,35.27,35.27,0,1,0,40-56.43Z"/></g></mask><linearGradient id="linear-gradient-6" x1="-143.93" y1="53.31" x2="-116.85" y2="94.99" gradientTransform="matrix(0.92, -0.38, 0.38, 0.92, 137, -75.62)" xlink:href="#linear-gradient-5"/></defs><g class="cls-9"><g id="Layer_2" data-name="Layer 2"><g id="Layer_1-2" data-name="Layer 1"><circle class="cls-10" cx="36.05" cy="35.75" r="35.75"/><path class="cls-11" d="M36.05,71.51A35.76,35.76,0,0,0,71.8,35.75a36.33,36.33,0,0,0-.45-5.66A13.19,13.19,0,0,1,68,29a22.73,22.73,0,0,1-5.85-5,19.84,19.84,0,0,0-6-4.81c-2.35-1.05-5.33-1.08-7.28.59-2.16,1.84-2.42,5.17-1.55,7.87.38,1.15.88,2.54.08,3.44s-2.1.62-3.23.78c-1.89.27-3.35,1.81-4.4,3.42-1.72,2.63-2.78,5.9-2,8.94.49,1.84,1.65,3.74.94,5.51s-3.1,2.38-4.91,3.31c-2.52,1.29-4.38,4.3-3.46,7,.36,1.05,1.1,2,1.39,3,.74,2.71-1.48,5.13-2.67,7.74A35.74,35.74,0,0,0,36.05,71.51Z"/><path class="cls-12" d="M40.59,17.4c-.13-1.25.17-2.52,0-3.77A9.57,9.57,0,0,0,38.18,9,17.94,17.94,0,0,1,35.1,4.61a5.72,5.72,0,0,1-.34-3.27C34.84.92,35,.47,35.1,0A35.73,35.73,0,0,0,4.32,52.22a14.36,14.36,0,0,0,4.21-1.95l4.61-2.82C15.47,46,18,44.29,18.5,41.61c.61-3.34-2.28-6.83-1-10a6.38,6.38,0,0,1,2.6-2.75,7.9,7.9,0,0,1,5.74-1.43c2.83.6,4.63,3.36,7.12,4.84a8.67,8.67,0,0,0,5.39,1.14,6.38,6.38,0,0,0,2.92-1,6.24,6.24,0,0,0,2.45-4.71,11.06,11.06,0,0,0-1.18-5.31C41.81,20.76,40.78,19.19,40.59,17.4Z"/><path class="cls-13" d="M71.64,32.34c0,.26-4,0-4.41,0-5.16-.83-7.68-5.69-12.44-7.13a3.88,3.88,0,0,0-3.3.26c-3.46,2.39,3.86,7.3-1.13,8.81-1.28.39-2.58,0-3.83.3a8.33,8.33,0,0,0-3.22,1.76,8.41,8.41,0,0,0-3.05,6.28,12.6,12.6,0,0,0,9.33,11.53,18.45,18.45,0,0,1,3.4.78C55.42,56,55.67,59,54.54,61.17s-4.33,2-5.31,4.46c-.26.65-.52,2.13,0,2.74s1.87.35,2.71-.05a36.59,36.59,0,0,0,4.86-2.79,36.65,36.65,0,0,0,8-7.6A36.16,36.16,0,0,0,72,38,12.58,12.58,0,0,0,71.64,32.34Z"/><path class="cls-11" d="M40.76,20.15c-.65-2.35-.38-4.94-1.39-7.16S36.18,9.21,34.73,7.2a10.54,10.54,0,0,1-1.89-7A35.73,35.73,0,0,0,2,46.69a7.65,7.65,0,0,0,2.87-2.07C6.33,42.8,6.4,40.29,6.62,38a21.48,21.48,0,0,1,3-9.59A11.62,11.62,0,0,1,17.77,23a14.6,14.6,0,0,1,5,.48,16.92,16.92,0,0,1,5,1.93,33.49,33.49,0,0,1,4.53,3.81,11.57,11.57,0,0,0,5.07,3,5,5,0,0,0,5.26-1.83,6,6,0,0,0,.15-5.18C42.2,23.43,41.24,21.88,40.76,20.15Z"/><path class="cls-13" d="M41.88,28.16c.42-2.14-.52-4.38-1.58-6.33a27.2,27.2,0,0,1-2.13-4.29c-.49-1.49,0-3.1-.45-4.61-.52-1.81-2-3.1-3-4.66a24.94,24.94,0,0,1-2.8-6A18.72,18.72,0,0,1,31.6.28c-2.1-.54-5.42.42-7.91,1.3C8.14,7.1-2.19,22.69.4,38.48a18.08,18.08,0,0,0,1.87-3.73c.55-1.51.89-3.09,1.42-4.61.88-2.54,1.45-5.16,3.59-7,1.24-1.07,2.44-1.11,4-1.56a17.49,17.49,0,0,0,4.8-2.28,13.4,13.4,0,0,1,2.67-1.64c2.39-.92,3.47.82,4.69,2.49,2.16,2.95,5,4.11,8.32,5.39A9.49,9.49,0,0,1,35.56,28c.95,1.09,1.54,2.9,3.18,3.09,1.39.17,2.6-1.07,3-2.4A4.94,4.94,0,0,0,41.88,28.16Z"/><path class="cls-14" d="M41.06,53.35h-.27c-2,.15-5.78,2.44-6.36,4.35a9.63,9.63,0,0,0-.17,3.63c.1,1.18.24,2.85,1.56,3.28a4.6,4.6,0,0,0,2.24,0c1.83-.35,3.7.12,5.54,0a5.48,5.48,0,0,0,2.54-.65c1-.66,1.74-1.7,2.82-2.31s2.12-.64,1.9-2.08c-.18-1.15-1.08-1.17-2-1.52-2.05-.76-3.54-2.4-5.36-3.54A6.62,6.62,0,0,0,41.06,53.35Z"/><path class="cls-15" d="M35.56,60.84a2.58,2.58,0,0,0,2.48,2c.73,0,1.4-.44,2.13-.42a10.55,10.55,0,0,1,1.34.26,1.31,1.31,0,0,0,1.25-.35,1.52,1.52,0,0,0,0-1.44A2.49,2.49,0,0,1,42.71,59c.19-.67.54-1,.09-1.72a5,5,0,0,0-3.1-1.51C37.31,55.51,35,58.62,35.56,60.84Z"/><path class="cls-15" d="M45.48,61.33c.34,0,.67-.2,1-.26.5-.09,1.11-.07,1.36-.5s-.11-1-.52-1.21c-.75-.46-2.1-1.83-2.71-1S44.15,61.52,45.48,61.33Z"/><path class="cls-15" d="M45.17,39.91c-2.4,3.77,4.37,2.54,6,2.4C53.32,42.12,56,42,56,39.18c-.1-3.45-4-3.35-6.45-2.6A8.08,8.08,0,0,0,45.17,39.91Z"/><path class="cls-15" d="M56.28,33.6a.94.94,0,0,0,.78.07.9.9,0,0,0,.34-.38,2.62,2.62,0,0,0,.24-.64,6.26,6.26,0,0,0,0-2.4,1.17,1.17,0,0,0-.19-.55C56.18,28.17,52.5,32,56.28,33.6Z"/><path class="cls-15" d="M58.19,64.52a40.67,40.67,0,0,0,6.59-6.59A36.16,36.16,0,0,0,72,38c.06-1,.16-2.18.13-3.21-1.51-.08-3.41.08-4.92,0a10,10,0,0,1-4.72-1.66,3.63,3.63,0,0,0-1.79-.57,1.58,1.58,0,0,0-1.5,1A2.73,2.73,0,0,0,59.37,35c.7,2.67.63,6.81-1.91,8.57-2,1.4-4.05,0-6.23,0a4.25,4.25,0,0,0-3.11,1.26c-1.63,1.82-.31,3.49,1.57,4.14A36.32,36.32,0,0,1,55,50.94a10.76,10.76,0,0,1,3.5,3,5.52,5.52,0,0,1,1.2,2.65,7.3,7.3,0,0,1-.37,2.65C58.92,60.78,58.61,63,58.19,64.52Z"/><path class="cls-15" d="M32.73,10.11a40.62,40.62,0,0,1-2-3.87A12.67,12.67,0,0,1,29.88.12a20.78,20.78,0,0,0-6.19,1.46A35.29,35.29,0,0,0,1.26,24.87a8.06,8.06,0,0,0,1.86-.48c.7-.52,1-1.41,1.59-2.07C6,20.84,8.22,20.73,10,19.82c1.32-.7,2.33-1.86,3.59-2.65,2.58-1.61,7.21-2.26,10-1a7.93,7.93,0,0,1,2.93,2.4c.73.94,1.13,2.32,2.29,2.84,2,.91,4.31-.54,5.46-2.21s.4-4.72-.32-6.6A19.58,19.58,0,0,0,32.73,10.11Z"/><path class="cls-15" d="M35.66,20.1c-.81,1.33-3.84,2.6-2.29,3.76s5,4.79,5.73,3.85S37.94,16.34,35.66,20.1Z"/><path class="cls-12" d="M40.64.3c0,.22,0,.43-.06.63a31.48,31.48,0,0,0-.31,5.22,6.07,6.07,0,0,0,.52,2.41,5.14,5.14,0,0,0,2.57,2.29c2.85,1.3,6.26.94,9.08,2.31,1.41.69,2.59,1.78,4,2.53,2.26,1.24,5,1.53,7.09,3,2.28,1.6,3.54,4.38,5.85,5.94a5.11,5.11,0,0,0,.83.45A35.77,35.77,0,0,0,40.64.3Z"/><path class="cls-12" d="M36,34.8a1.76,1.76,0,0,0-1.78.08,11.86,11.86,0,0,1-1.63.91c-1.44.48-2.93-.5-4.44-.65C26,34.93,24,36.5,22.88,38.4a29.28,29.28,0,0,0-2.19,6.18A28.08,28.08,0,0,1,9.32,59.49a35.73,35.73,0,0,0,15,10c.38-2.72.21-5.63.8-8.34a14.64,14.64,0,0,1,2.52-5.6c.84-1.13,1.85-2.14,2.63-3.32a5.92,5.92,0,0,0,1.19-4c-.11-1-.58-1.88-.7-2.85a6.19,6.19,0,0,1,1-3.73,13.22,13.22,0,0,1,3-3.45,5.6,5.6,0,0,0,1.52-1.51A1.54,1.54,0,0,0,36,34.8Z"/><path class="cls-16" d="M72,38c0-.74.11-1.48.12-2.23,0-.33,0-.66,0-1a9.33,9.33,0,0,0-.52-2.4c0-.21,0-.42-.07-.63L71.48,31a35,35,0,0,0-1.3-5.9c-.15-.49-.31-1-.49-1.44a4.09,4.09,0,0,0-.18-.49c-.12-.34-.26-.68-.4-1-.06-.15-.13-.31-.19-.47-.2-.46-.4-.91-.62-1.36L68.15,20c-.18-.36-.36-.71-.55-1.06-.07-.15-.15-.29-.23-.43a66.87,66.87,0,0,1-3.12,9.27C61.92,33,58.14,38,52.78,40c-4.88,1.89-10.42,1.19-15.45,2.65-6.52,1.9-11.62,7.24-18.15,9.12-4.64,1.33-9.59.8-14.4,1.24a35.51,35.51,0,0,0,4.54,6.45,37.7,37.7,0,0,0,3.17,3.15l.11.09c.55.48,1.12,1,1.7,1.39a35.8,35.8,0,0,0,3.76,2.53l.05,0a35.51,35.51,0,0,0,14.43,4.65l.24,0c.5.05,1,.09,1.49.11s1.18.05,1.78.05a35.69,35.69,0,0,0,13.81-2.77,3.51,3.51,0,0,0,2.08-.42,36.59,36.59,0,0,0,4.86-2.79c.47-.32.93-.67,1.39-1l.25-.2a37.07,37.07,0,0,0,5.63-5.5c.25-.29.48-.59.71-.88A36.16,36.16,0,0,0,72,38Z"/><path class="cls-17" d="M72.15,35.72c0-.33,0-.66,0-1a9.33,9.33,0,0,0-.52-2.4c0-.21,0-.42-.07-.63L71.48,31a35,35,0,0,0-1.3-5.9c-.15-.49-.31-1-.49-1.44a4.09,4.09,0,0,0-.18-.49c-.12-.34-.26-.68-.4-1-.06-.15-.13-.31-.19-.47-.2-.46-.4-.91-.62-1.36L68.15,20c-.18-.36-.36-.71-.55-1.06l-.24-.44a36.67,36.67,0,0,1,1.52,9.67c-.15,6.49-3.8,12.59-8.89,16.62a14.06,14.06,0,0,1-4.8,2.65c-2.36.68-4.88.4-7.34.47a26.19,26.19,0,0,0-10.5,2.5C34,52,31,54.31,27.53,55.71c-7.18,2.9-15.45,1.45-22.42-2.07a35.72,35.72,0,0,0,4.21,5.85,37.7,37.7,0,0,0,3.17,3.15l.11.09c.55.48,1.12,1,1.7,1.39a35.8,35.8,0,0,0,3.76,2.53l.05,0a35.51,35.51,0,0,0,14.43,4.65l.24,0c.5.05,1,.09,1.49.11s1.18.05,1.78.05a35.69,35.69,0,0,0,13.81-2.77,3.51,3.51,0,0,0,2.08-.42,36.59,36.59,0,0,0,4.86-2.79c.47-.32.93-.67,1.39-1l.25-.2a37.07,37.07,0,0,0,5.63-5.5c.25-.29.48-.59.71-.88A36.16,36.16,0,0,0,72,38C72.07,37.21,72.14,36.47,72.15,35.72Z"/><path class="cls-18" d="M72.13,34.74a8.15,8.15,0,0,0-.49-2.4c0-.21,0-.42-.07-.63L71.48,31a35,35,0,0,0-1.3-5.9c-.15-.49-.31-1-.49-1.44a4.09,4.09,0,0,0-.18-.49c-.12-.34-.26-.68-.4-1-.06-.15-.13-.31-.19-.47-.2-.46-.4-.91-.62-1.36L68.15,20c-.18-.36-.36-.71-.55-1.06l-.27-.5-.51-.89-.28-.47c-.25-.4-.5-.8-.77-1.2-.11-.16-.22-.31-.32-.47l-.55-.77-.41-.54c-.18-.23-.36-.47-.55-.7l-.43-.54c-.27-.32-.55-.65-.84-1s-.35-.38-.52-.57l-.49-.51-.58-.59-.46-.43-.34-.31.16.16.49.51.52.57c.29.32.57.64.84,1l.44.54c.18.23.37.46.55.7l.4.54c.19.25.37.51.55.77l.32.46c.27.4.53.8.77,1.21.1.15.19.31.28.46l.51.89.28.5.54,1.06.15.31c.22.45.42.91.62,1.37.07.15.13.31.19.47.14.33.28.67.41,1l.18.48c.17.48.33,1,.49,1.45a35.78,35.78,0,0,1,1.29,5.9l.09.71c0,.22.05.43.07.64a7.8,7.8,0,0,1,.5,2.39,8,8,0,0,1,0,1c0,.75-.08,1.49-.13,2.23a36.12,36.12,0,0,1-7.24,20c-.23.3-.47.59-.72.89a38,38,0,0,1-5.63,5.5l-.25.2c-.46.35-.92.69-1.39,1a35.9,35.9,0,0,1-4.86,2.78,3.51,3.51,0,0,1-2.08.42,35.65,35.65,0,0,1-13.81,2.77c-.6,0-1.19,0-1.78,0l-1.48-.11-.25,0a35.57,35.57,0,0,1-14.43-4.66l-.05,0A36.78,36.78,0,0,1,13.08,63c-.58-.45-1.14-.91-1.69-1.39l-.11-.1c-.23-.2-.45-.42-.68-.63.61.62,1.24,1.23,1.89,1.8l.11.09c.55.48,1.12,1,1.7,1.39a35.8,35.8,0,0,0,3.76,2.53l.05,0a35.51,35.51,0,0,0,14.43,4.65l.24,0c.5.05,1,.09,1.49.11s1.18.05,1.78.05a35.69,35.69,0,0,0,13.81-2.77,3.51,3.51,0,0,0,2.08-.42,36.59,36.59,0,0,0,4.86-2.79c.47-.32.93-.67,1.39-1l.25-.2a37.07,37.07,0,0,0,5.63-5.5c.25-.29.48-.59.71-.88A36.16,36.16,0,0,0,72,38c0-.74.11-1.48.12-2.23,0-.33,0-.66,0-1Z"/><path class="cls-19" d="M31.6.28A6.27,6.27,0,0,0,29.88.13a20.46,20.46,0,0,0-6.19,1.45c-.59.21-1.16.44-1.74.67l-.72.31-.82.37A35.11,35.11,0,0,0,1.7,23.53c-.12.34-.23.69-.34,1,0,.11-.07.21-.1.31A32.51,32.51,0,0,0,.19,30.31,25,25,0,1,0,40.1.23a35.63,35.63,0,0,0-8.5.05Z"/><path class="cls-20" d="M63.94,13.4l-.43-.54c-.27-.32-.55-.65-.84-1s-.35-.38-.52-.57l-.49-.51-.58-.59-.46-.43c-.39-.37-.79-.74-1.2-1.09l-.35-.31-.75-.61L58,7.51l-.81-.62c-.67-.48-1.32-.92-2-1.34L55,5.45c-.32-.2-.64-.4-1-.59l-.18-.1A34.4,34.4,0,0,0,50.6,3.1,35.65,35.65,0,0,0,36.05,0,36.29,36.29,0,0,0,31.6.28,6.27,6.27,0,0,0,29.88.13a20.46,20.46,0,0,0-6.19,1.45c-.59.21-1.16.44-1.74.67l-.72.31-.82.37c-.52.25-1,.5-1.54.77l-.5.27-1,.56-.56.34-.9.56-.57.38c-.29.19-.57.38-.84.58l-.56.41-.83.63-.51.41-.86.73-.42.37c-.4.36-.79.72-1.17,1.1l-.05.05c-.4.39-.78.79-1.16,1.2l-.37.42-.73.84-.41.52-.63.8c-.14.18-.27.37-.4.55s-.39.54-.58.82l-.38.57-.54.86-.34.57c-.18.31-.36.63-.53,1-.09.17-.19.34-.28.52-.23.45-.46.9-.67,1.36A33.17,33.17,0,0,0,1.7,23.53c-.12.34-.23.69-.34,1,0,.11-.07.21-.1.31A30.85,30.85,0,0,0,.4,38.48c0,.19,0,.38,0,.57s0,.43.07.65,0,.24,0,.37,0,.2,0,.3,0,.2,0,.31l.09.67L.85,42c0,.16.05.32.08.48s0,.19,0,.28c.06.31.13.62.2.93s.09.38.13.56a1.16,1.16,0,0,1,0,.18c.07.27.14.53.22.8s.08.3.13.46a36.63,36.63,0,0,0,1.69,4.64l0,.07c.28.62.58,1.24.9,1.84a35.7,35.7,0,0,0,5,7.27c.31.35.64.68,1,1A36,36,0,0,1,6.7,54.94c-.31-.6-.61-1.21-.89-1.84l0-.06a35.33,35.33,0,0,1-1.7-4.65c0-.15-.08-.31-.13-.46l-.21-.8a.85.85,0,0,0,0-.17c0-.19-.09-.38-.13-.57s-.14-.61-.2-.92c0-.1,0-.19-.05-.28l-.09-.48c0-.22-.08-.43-.11-.64s-.06-.45-.09-.67,0-.21,0-.31,0-.2,0-.3,0-.24,0-.37l-.06-.65c0-.19,0-.38,0-.57a30.57,30.57,0,0,1,.87-13.61c0-.1.06-.2.09-.31l.33-1c.3-.89.64-1.75,1-2.6A18.6,18.6,0,0,0,35.84,2.83c.86-.07,1.72-.11,2.59-.11A35.64,35.64,0,0,1,53,5.8a35,35,0,0,1,3.29,1.68,1.18,1.18,0,0,1,.19.11l1,.58.16.11c.66.41,1.31.85,1.94,1.31l.84.64.37.29c.25.2.5.4.74.61l.36.3c.41.36.81.72,1.2,1.09l.45.43.59.59,0,0Z"/><g class="cls-21"><path class="cls-22" d="M72.16,34.74a9.33,9.33,0,0,0-.52-2.4c0-.21,0-.42-.07-.63L71.48,31a35,35,0,0,0-1.3-5.9c-.15-.49-.31-1-.49-1.44a4.09,4.09,0,0,0-.18-.49c-.12-.34-.26-.68-.4-1-.06-.15-.13-.31-.19-.47-.2-.46-.4-.91-.62-1.36L68.15,20c-.18-.36-.36-.71-.55-1.06l-.27-.5-.51-.89-.28-.47c-.25-.4-.5-.8-.77-1.2-.11-.16-.22-.31-.32-.47l-.55-.77-.41-.54c-.18-.23-.36-.47-.55-.7l-.43-.54c-.27-.32-.55-.65-.84-1s-.35-.38-.52-.57l-.49-.51-.58-.59-.46-.43c-.39-.37-.79-.74-1.2-1.09l-.35-.31-.75-.61L58,7.51l-.81-.62c-.67-.48-1.32-.92-2-1.34L55,5.45c-.32-.2-.64-.4-1-.59l-.18-.1A34.4,34.4,0,0,0,50.6,3.1,35.65,35.65,0,0,0,36.05,0,36.29,36.29,0,0,0,31.6.28,6.27,6.27,0,0,0,29.88.13a20.46,20.46,0,0,0-6.19,1.45c-.59.21-1.16.44-1.74.67l-.72.31-.82.37A35.11,35.11,0,0,0,1.7,23.53c-.12.34-.23.69-.34,1,0,.11-.07.21-.1.31A30.85,30.85,0,0,0,.4,38.48c0,.19,0,.38,0,.57s0,.43.07.65,0,.24,0,.37,0,.2,0,.3,0,.2,0,.31l.09.67L.85,42c0,.16.05.32.08.48s0,.19,0,.28c.06.31.13.62.2.93s.09.38.13.56a1.16,1.16,0,0,1,0,.18c.07.27.14.53.22.8s.08.3.13.46a36.63,36.63,0,0,0,1.69,4.64l0,.07c.28.62.58,1.24.9,1.84a35.7,35.7,0,0,0,5,7.27,37.7,37.7,0,0,0,3.17,3.15l.11.09c.55.48,1.12,1,1.7,1.39a35.8,35.8,0,0,0,3.76,2.53l.05,0a35.51,35.51,0,0,0,14.43,4.65l.24,0c.5.05,1,.09,1.49.11s1.18.05,1.78.05a35.69,35.69,0,0,0,13.81-2.77,3.51,3.51,0,0,0,2.08-.42,36.59,36.59,0,0,0,4.86-2.79c.47-.32.93-.67,1.39-1l.25-.2a37.07,37.07,0,0,0,5.63-5.5c.25-.29.48-.59.71-.88A36.16,36.16,0,0,0,72,38c0-.74.11-1.48.12-2.23C72.16,35.39,72.17,35.06,72.16,34.74Z"/></g><g class="cls-23"><circle class="cls-24" cx="28.91" cy="16.44" r="14.4" transform="translate(-3.16 25.26) rotate(-45)"/></g><g class="cls-25"><path class="cls-26" d="M68.19,22.23A35.27,35.27,0,0,1,.74,37.45,35.27,35.27,0,1,0,68.19,22.23Z"/></g><g class="cls-27"><path class="cls-28" d="M50.37,4.46a35.27,35.27,0,0,1-40,56.43,35.27,35.27,0,1,0,40-56.43Z"/></g></g></g></g></svg>