<svg xmlns="http://www.w3.org/2000/svg" xmlns:xlink="http://www.w3.org/1999/xlink" viewBox="0 0 70.62 70.36"><defs><style>.cls-1{mask:url(#mask);filter:url(#luminosity-noclip-4);}.cls-11,.cls-16,.cls-2,.cls-4,.cls-6{mix-blend-mode:multiply;}.cls-2{fill:url(#linear-gradient);}.cls-3{mask:url(#mask-2);filter:url(#luminosity-noclip-5);}.cls-4{fill:url(#linear-gradient-2);}.cls-5{mask:url(#mask-3);filter:url(#luminosity-noclip-6);}.cls-6{fill:url(#linear-gradient-3);}.cls-7{isolation:isolate;}.cls-8{fill:#ff2424;}.cls-9{fill:#e72121;}.cls-10{fill:#d80b0b;}.cls-11{fill:#b70909;opacity:0.28;}.cls-12,.cls-13,.cls-14{fill:#fff2c8;}.cls-12,.cls-13,.cls-17{mix-blend-mode:overlay;}.cls-12{opacity:0.92;}.cls-14{mix-blend-mode:lighten;opacity:0.14;}.cls-15{mask:url(#mask-4);}.cls-16{fill:url(#linear-gradient-4);}.cls-17{fill:#fff;opacity:0.19;}.cls-18{mask:url(#mask-5);}.cls-19,.cls-21{mix-blend-mode:hard-light;opacity:0.17;}.cls-19{fill:url(#linear-gradient-5);}.cls-20{mask:url(#mask-6);}.cls-21{fill:url(#linear-gradient-6);}.cls-22{filter:url(#luminosity-noclip-3);}.cls-23{filter:url(#luminosity-noclip-2);}.cls-24{filter:url(#luminosity-noclip);}</style><filter id="luminosity-noclip" x="0.27" y="-7890.2" width="70.09" height="32766" filterUnits="userSpaceOnUse" color-interpolation-filters="sRGB"><feFlood flood-color="#fff" result="bg"/><feBlend in="SourceGraphic" in2="bg"/></filter><mask id="mask" x="0.27" y="-7890.2" width="70.09" height="32766" maskUnits="userSpaceOnUse"><g class="cls-24"/></mask><linearGradient id="linear-gradient" x1="10.53" y1="10.26" x2="60.09" y2="59.82" gradientTransform="translate(54.57 -10.82) rotate(68)" gradientUnits="userSpaceOnUse"><stop offset="0"/><stop offset="1" stop-color="#fff"/></linearGradient><filter id="luminosity-noclip-2" x="0" y="-7890.2" width="70.54" height="32766" filterUnits="userSpaceOnUse" color-interpolation-filters="sRGB"><feFlood flood-color="#fff" result="bg"/><feBlend in="SourceGraphic" in2="bg"/></filter><mask id="mask-2" x="0" y="-7890.2" width="70.54" height="32766" maskUnits="userSpaceOnUse"><g class="cls-23"/></mask><linearGradient id="linear-gradient-2" x1="167.11" y1="-84.86" x2="194.18" y2="-43.18" gradientTransform="translate(-153.92 45.31) rotate(19.52)" gradientUnits="userSpaceOnUse"><stop offset="0.24"/><stop offset="0.38" stop-color="#030303"/><stop offset="0.48" stop-color="#0d0d0d"/><stop offset="0.56" stop-color="#1d1d1d"/><stop offset="0.65" stop-color="#343434"/><stop offset="0.73" stop-color="#515151"/><stop offset="0.8" stop-color="#767676"/><stop offset="0.87" stop-color="#a1a1a1"/><stop offset="0.94" stop-color="#d1d1d1"/><stop offset="1" stop-color="#fff"/></linearGradient><filter id="luminosity-noclip-3" x="9.67" y="-7890.2" width="60.95" height="32766" filterUnits="userSpaceOnUse" color-interpolation-filters="sRGB"><feFlood flood-color="#fff" result="bg"/><feBlend in="SourceGraphic" in2="bg"/></filter><mask id="mask-3" x="9.67" y="-7890.2" width="60.95" height="32766" maskUnits="userSpaceOnUse"><g class="cls-22"/></mask><linearGradient id="linear-gradient-3" x1="-167.69" y1="81.11" x2="-140.62" y2="122.79" gradientTransform="matrix(0.92, -0.38, 0.38, 0.92, 147.61, -112)" xlink:href="#linear-gradient-2"/><filter id="luminosity-noclip-4" x="0.27" y="0" width="70.09" height="70.09" filterUnits="userSpaceOnUse" color-interpolation-filters="sRGB"><feFlood flood-color="#fff" result="bg"/><feBlend in="SourceGraphic" in2="bg"/></filter><mask id="mask-4" x="0.27" y="0" width="70.09" height="70.09" maskUnits="userSpaceOnUse"><g class="cls-1"><circle class="cls-2" cx="35.31" cy="35.04" r="35.04" transform="translate(-10.41 54.65) rotate(-68)"/></g></mask><linearGradient id="linear-gradient-4" x1="10.53" y1="10.26" x2="60.09" y2="59.82" gradientTransform="translate(54.57 -10.82) rotate(68)" gradientUnits="userSpaceOnUse"><stop offset="0" stop-color="red"/><stop offset="1" stop-color="#930005"/></linearGradient><filter id="luminosity-noclip-5" x="0" y="20.62" width="70.54" height="49.68" filterUnits="userSpaceOnUse" color-interpolation-filters="sRGB"><feFlood flood-color="#fff" result="bg"/><feBlend in="SourceGraphic" in2="bg"/></filter><mask id="mask-5" x="0" y="20.62" width="70.54" height="49.68" maskUnits="userSpaceOnUse"><g class="cls-3"><path class="cls-4" d="M67.45,20.62A35.27,35.27,0,0,1,0,35.84,35.27,35.27,0,1,0,67.45,20.62Z"/></g></mask><linearGradient id="linear-gradient-5" x1="167.11" y1="-84.86" x2="194.18" y2="-43.18" gradientTransform="translate(-153.92 45.31) rotate(19.52)" gradientUnits="userSpaceOnUse"><stop offset="0.24" stop-color="#fff"/><stop offset="0.92" stop-color="#fff"/><stop offset="1" stop-color="#fff"/></linearGradient><filter id="luminosity-noclip-6" x="9.67" y="2.85" width="60.95" height="67.51" filterUnits="userSpaceOnUse" color-interpolation-filters="sRGB"><feFlood flood-color="#fff" result="bg"/><feBlend in="SourceGraphic" in2="bg"/></filter><mask id="mask-6" x="9.67" y="2.85" width="60.95" height="67.51" maskUnits="userSpaceOnUse"><g class="cls-5"><path class="cls-6" d="M49.63,2.85a35.27,35.27,0,0,1-40,56.43,35.27,35.27,0,1,0,40-56.43Z"/></g></mask><linearGradient id="linear-gradient-6" x1="-167.69" y1="81.11" x2="-140.62" y2="122.79" gradientTransform="matrix(0.92, -0.38, 0.38, 0.92, 147.61, -112)" xlink:href="#linear-gradient-5"/></defs><g class="cls-7"><g id="Layer_2" data-name="Layer 2"><g id="Layer_1-2" data-name="Layer 1"><circle class="cls-8" cx="35.31" cy="35.29" r="35.04"/><path class="cls-9" d="M60.05,10.47a13.22,13.22,0,0,0-5.47,1.78,17.46,17.46,0,0,0-7.71,8.33,13,13,0,0,0,.43,11.16A20.73,20.73,0,0,0,51,36.22a7.32,7.32,0,0,1,2.38,3.44,5.18,5.18,0,0,1-2,4.72,9.32,9.32,0,0,1-9.91,1.26c-2.33-1.13-4.06-3.2-6.3-4.51A11,11,0,0,0,18.6,49.4c-.2,1.8,0,3.84-1.26,5.17s-3.06,1.45-4,2.8-.39,3.3-.22,5A35,35,0,0,0,60.05,10.47Z"/><path class="cls-10" d="M60.5,10.94a18.38,18.38,0,0,0-2.91,1.61c-4.79,3.27-8.52,9.36-6.39,14.75,1.68,4.21,6.38,6.63,8,10.84,1.41,3.58.25,7.79-2.11,10.83S51.37,54,47.91,55.72c-4,2-8.79,3.49-12.79,1.54-2.59-1.26-4.4-3.81-7.07-4.89a7.57,7.57,0,0,0-9.47,4c-.59,1.43-.73,3-1.45,4.4a6.87,6.87,0,0,1-2.7,2.7A35,35,0,0,0,60.5,10.94Z"/><path class="cls-9" d="M58.08,17.64c.16-1.59-1.33-2.27-3.12-.15-1.38,1.63-2.88,4.29-1.1,6.26.55.61,1.35.8,1.86,0a3.77,3.77,0,0,0,.45-1.65A3.84,3.84,0,0,1,56.94,20,5,5,0,0,0,58.08,17.64Z"/><path class="cls-9" d="M58.35,24.83a1.13,1.13,0,0,0-.52-.43.55.55,0,0,0-.14-.22.68.68,0,0,0-.93,0,1.32,1.32,0,0,0-.35,1.56,1.15,1.15,0,0,0,1.38.55A1,1,0,0,0,58.35,24.83Z"/><path class="cls-9" d="M15.32,39.89c-2.3-.21-3.77,2.11-4.64,3.92A8.17,8.17,0,0,0,10.4,51a2.77,2.77,0,0,0,2.7,1.72,1.79,1.79,0,0,0,2.24-1c1.29-1.14,1.08-2.73,1-4.31.52-1.14,1.64-1.95,2.05-3.1C19.06,42.27,17.27,40.07,15.32,39.89Z"/><path class="cls-9" d="M51.27,38.43a2,2,0,0,0-2.89-1.06c-1.57.65-6,4.37-3.49,6.13,1.2.87,2.62,0,3.58-.8l.9-.73a.64.64,0,0,0,.51-.16C50.86,41,51.76,39.77,51.27,38.43Z"/><path class="cls-9" d="M45.93,36.06a5.41,5.41,0,0,0,.93.47.67.67,0,0,0,1-.39,2.31,2.31,0,0,0,0-.64c.24-.81-.59-1.89-1.47-2.26a1.69,1.69,0,0,0-.46-.2,1.17,1.17,0,0,0-1.38.71,1.49,1.49,0,0,0,.35,1.66A3.38,3.38,0,0,0,45.93,36.06Z"/><path class="cls-9" d="M21.22,37.64a1.43,1.43,0,0,0-.23-.2,1.56,1.56,0,0,0-2.37.93,1.5,1.5,0,0,0-.06.29,2,2,0,0,0,.5,2.61c1.07.71,2.14-.11,2.43-1.19A2.19,2.19,0,0,0,21.22,37.64Z"/><path class="cls-9" d="M17.43,36.35a.67.67,0,0,0-.36-.19,1.31,1.31,0,0,0-.83,0,1.46,1.46,0,0,0-.89,1,1.19,1.19,0,0,0,.06.81,1.16,1.16,0,0,0,.72.42,1.43,1.43,0,0,0,1.23-.16.69.69,0,0,0,.68-.67A1.4,1.4,0,0,0,17.43,36.35Z"/><path class="cls-8" d="M37.31,46.68l-.1-.14c-1.33-1.89-3.53-4.28-4.54-2.19-.52,1.06.17,2.37.9,3.14a5.32,5.32,0,0,0,3,1.49c.3.07.6.14.9.19a.67.67,0,0,0,.74-1A13.3,13.3,0,0,0,37.31,46.68Z"/><path class="cls-8" d="M39.64,46.66a.66.66,0,0,0-.58.33,1.12,1.12,0,0,0,0,1.08,1.14,1.14,0,0,0,.92.57.38.38,0,0,0,.15,0l.13.06a.68.68,0,0,0,.82-.82A1.56,1.56,0,0,0,39.64,46.66Z"/><path class="cls-8" d="M39.86,50.08l-.39,0a.67.67,0,0,0-.66.66.68.68,0,0,0,.66.66l.39,0a.67.67,0,0,0,.66-.66A.68.68,0,0,0,39.86,50.08Z"/><path class="cls-8" d="M20.7,47.82a1.82,1.82,0,0,0-.51,2.74.61.61,0,0,0,.73.13c1-.12.86-1.76.75-2.47C21.61,47.77,21,47.65,20.7,47.82Z"/><path class="cls-8" d="M21.24,45.71l-.13.12a.66.66,0,0,0,.94.94l.12-.13a.66.66,0,1,0-.93-.93Z"/><path class="cls-8" d="M54.49,34.86a5.93,5.93,0,0,0-1.26-1.19c-.43-.4-.47-1-.88-1.43a1.21,1.21,0,0,0-1.6-.15c-1.27,1,.4,2.37,1.15,3,.58.67,1.34,1.25,2.08,1.07A.89.89,0,0,0,54.49,34.86Z"/><path class="cls-10" d="M38.42,56.18c1,.39,2.94.66,3.66-.36A1.28,1.28,0,0,0,42,54.25a1.86,1.86,0,0,0-1.4-.57,3.05,3.05,0,0,0-2,0,1.56,1.56,0,0,0-1.15,1.17A1.33,1.33,0,0,0,38.42,56.18Z"/><path class="cls-10" d="M47.2,15.2A1.37,1.37,0,0,0,48.64,15c.75-.49,1.36-1.18,2.15-1.65s3.07-1.2,3-2.63c-.09-1.23-2-1.42-2.87-1.24A5.23,5.23,0,0,0,48.35,11,6.47,6.47,0,0,0,47.21,12C46.5,12.91,45.86,14.53,47.2,15.2Z"/><path class="cls-10" d="M46.18,18.61a.67.67,0,0,0,.6-.31,1.79,1.79,0,0,0,.35-.92.5.5,0,0,0,0-.21V17a.69.69,0,0,0-.66-.67,1.23,1.23,0,0,0-1.1.69,1.25,1.25,0,0,0,.18,1.39A.65.65,0,0,0,46.18,18.61Z"/><path class="cls-10" d="M55.76,10.74a1,1,0,0,0,.51,0,.65.65,0,0,0,.47-.55.63.63,0,0,0,0-.24.68.68,0,0,0-.15-.68.69.69,0,0,0-.94,0l-.12.12a1.24,1.24,0,0,0-.48.29.67.67,0,0,0,0,.93A.68.68,0,0,0,55.76,10.74Z"/><path class="cls-10" d="M12.38,53.31a2.57,2.57,0,0,0-1.9.38,1.45,1.45,0,0,0-.55.52,1.35,1.35,0,0,0-.26.67,1.68,1.68,0,0,0,1.83,1.6,2.15,2.15,0,0,0,1.6-.55A1.56,1.56,0,0,0,12.38,53.31Z"/><path class="cls-10" d="M9.25,51.18a.67.67,0,0,0-.92,0,1,1,0,0,0-.2,1.14.24.24,0,0,0,.06.11l.05.07.07.09a.88.88,0,1,0,.94-1.42Z"/><path class="cls-10" d="M50.91,47.56a4.48,4.48,0,0,0-.4.69c-.77,1.12-1,2.17,0,2.6l.11,0a1.64,1.64,0,0,0,.62.31c2.2.58,8.64-5.6,5.28-6.78a1.31,1.31,0,0,0-.41-.06.55.55,0,0,0-.54-.08A8.68,8.68,0,0,0,50.91,47.56Z"/><path class="cls-10" d="M55.86,42.23l.21.27a5.07,5.07,0,0,0,.52.52.67.67,0,0,0,1-.13,2.56,2.56,0,0,0,.14-2.11,1.77,1.77,0,0,0-.16-.34,1.2,1.2,0,0,0-1.15-.66,1.19,1.19,0,0,0-1,.9.09.09,0,0,0,0,0,1.51,1.51,0,0,0-.1.53A1.36,1.36,0,0,0,55.86,42.23Z"/><path class="cls-10" d="M53.94,43.37a.75.75,0,1,0,0-1,.69.69,0,0,0-.19.49A.73.73,0,0,0,53.94,43.37Z"/><path class="cls-9" d="M29.23,4.42a5.08,5.08,0,0,1-1.69-.14,1.83,1.83,0,0,0-1.1.06,26.48,26.48,0,0,0-8.2,4.5c-2,1.65-4.89,4.22-4.83,7.08s3,4,5.44,3.4c3.27-.77,6.4-3.5,9-5.49,2-1.51,5.48-3.91,5.7-6.66C33.74,4.75,31.35,4.3,29.23,4.42Z"/><path class="cls-9" d="M7.32,19.28a13,13,0,0,0-.83,1.12l-.06.1-.12.19,0,.06a4.92,4.92,0,0,0-.79,2.41,2.33,2.33,0,0,0,.76,1.78,2.08,2.08,0,0,0,1.6.81,1.92,1.92,0,0,0,.55-.08c2.81-.19,5.22-4.52,3.16-6.72A2.74,2.74,0,0,0,7.32,19.28Z"/><path class="cls-9" d="M17.11,21.41l-.26-.05a2,2,0,0,0-.35-.14,2,2,0,0,0-2.45,1.39.38.38,0,0,0,0,.1,2,2,0,0,0,0,1.95,2,2,0,0,0,1.71,1,2.75,2.75,0,0,0,1.6-.44,2.23,2.23,0,0,0,.24-.19,2,2,0,0,0,.92-1.95A2,2,0,0,0,17.11,21.41Z"/><path class="cls-9" d="M38.09,3.48a1.88,1.88,0,0,0-1.59.17,1.71,1.71,0,0,0-.79,1.81.79.79,0,0,0,.13.33,2.8,2.8,0,0,0,.64,2,1.68,1.68,0,0,0,2.33,0,2.68,2.68,0,0,0,.7-1.38A2.36,2.36,0,0,0,38.09,3.48Z"/><path class="cls-9" d="M34.32,10.32c-.66.51-1.73,1.09-1.86,2a1.39,1.39,0,0,0-.12.61,1.36,1.36,0,0,0,1,1.28,1.75,1.75,0,0,0,.82,0l.22-.09a2.11,2.11,0,0,0,1.11-.68l.68-.75a1.53,1.53,0,0,0,.12-2A1.49,1.49,0,0,0,34.32,10.32Z"/><path class="cls-9" d="M5.2,27.42c-1.17,2.44.06,5.17,3.11,3.95.62-.24,1.67-1.3,2.37-1.05s1.13,1.4,1.69,1.77a6.83,6.83,0,0,0,4.88.78A11.81,11.81,0,0,0,25.66,28c1.06-1.57.88-3.58,2.38-4.69,1.67-1.23,3.75-2,3.86-4.27a1.45,1.45,0,0,0-.74-1.28c-1.53-.65-2.25-.36-3.69.42a16.73,16.73,0,0,0-4,2.49c-1,1-1.05,2.24-1.41,3.54a5.8,5.8,0,0,1-2.23,3.1,11,11,0,0,1-3.68,2c-1.79.46-2.29-.47-3.56-1.38a3.14,3.14,0,0,0-2.73-.59c-1,.26-3.22,2.71-3.24.51,0-.7-1.06-1.07-1.39-.38Z"/><path class="cls-9" d="M41.51,5.35c2.33,2.87-1.71,5.07-3.2,6.9s-1.17,3.44-.45,5.55c.66,1.94-.51,2.73-2,3.69a23.26,23.26,0,0,0-2.91,2.12,11.77,11.77,0,0,0-4,6.56,1.51,1.51,0,0,0,.66,1.63l.35.14a1.36,1.36,0,0,0,1.39-.37c2.12-2.67,3.84-5.05,6.68-7,2.45-1.72,4.59-4.05,3.49-7.26-.19-.55-.84-1.33-.84-1.9,0-.87.8-1.4,1.37-1.91a9.48,9.48,0,0,0,2.52-3.11,5.06,5.06,0,0,0-1.88-6.53c-1-.65-1.83.73-1.18,1.53Z"/><path class="cls-9" d="M5.16,36.08c-.1.08.29,1.09.42,1.3a3.35,3.35,0,0,0,1.3,1.18,3.14,3.14,0,0,0,3.6-.4,1.33,1.33,0,0,0,.34-1.29c-.32-1-1.11-1-2-.81S8,35.94,7.58,35.3A2.22,2.22,0,0,0,5.64,34,1.8,1.8,0,0,0,4,35.38a.73.73,0,0,0,1.21.7Z"/><path class="cls-9" d="M4.41,40a2.8,2.8,0,0,0,.81,1.73,1.6,1.6,0,0,0,2.36-.07.94.94,0,0,0,0-1.29c.24.28-.1-.17-.13-.2a1.87,1.87,0,0,0-.89-.59l-.08,0c-.1,0-.1,0,0,0h0l-.07,0c-.09-.06-.1-.06,0,0s.07.06,0,0l-.06-.06c.08.12.09.12,0,0A1.06,1.06,0,0,0,5.17,39a1,1,0,0,0-.76,1Z"/><path class="cls-11" d="M50.87,3.89a35,35,0,0,1-31.4,50.6A34.87,34.87,0,0,1,3.91,50.84a35,35,0,1,0,47-46.95Z"/><path class="cls-11" d="M58.71,9.21a35,35,0,0,1-54,43.21,35,35,0,1,0,54-43.21Z"/><path class="cls-12" d="M59.61,10.05A35,35,0,0,0,25.17,1.74L24.43,2l-.6.21-1.13.41-.57.22-1,.41-.71.32-.73.35-.53.27c-.37.2-.73.39-1.09.6-.16.08-.31.17-.46.26-.38.22-.76.45-1.13.69L16.11,6l-.71.48-.23.17c-.43.3-.85.6-1.26.92l-.31.24c-.39.31-.77.63-1.15,1L12.2,9c-.7.62-1.38,1.26-2,1.93l-.06.07c-.42.43-.82.87-1.21,1.32l-.13.14c-.4.47-.8.95-1.18,1.44A35,35,0,0,0,13.12,62.4,35,35,0,0,1,4.86,24.23,15.26,15.26,0,0,0,28.93,11.76a15.12,15.12,0,0,0-2.24-7.95,35.06,35.06,0,0,1,32.92,6.24Z"/><path class="cls-13" d="M30.5,11.19A5.18,5.18,0,1,0,35.68,6,5.18,5.18,0,0,0,30.5,11.19Z"/><path class="cls-13" d="M29.11,21.16a3.38,3.38,0,1,0,3.38-3.38A3.38,3.38,0,0,0,29.11,21.16Z"/><path class="cls-14" d="M54.59,6A34.93,34.93,0,0,0,17.67,5l-.4.23c-.31.18-.61.38-.91.57l-.47.3-.85.6-.48.34c-.28.2-.55.41-.82.62s-.31.25-.47.37l-.78.66L12,9.09l-.76.7-.43.41-.73.73-.39.42c-.24.25-.48.51-.71.78l-.37.42c-.23.27-.46.54-.68.82l-.33.42c-.22.29-.45.58-.66.88l-.29.4c-.22.31-.43.62-.64.94-.09.12-.17.25-.25.38-.21.33-.42.66-.62,1-.07.11-.13.22-.19.33-.21.37-.42.73-.62,1.1l-.12.23A35.07,35.07,0,0,0,17.3,65.35a35,35,0,0,1-12.49-44,13.13,13.13,0,0,0,8,2.68c7,0,12.75-5.44,12.75-12.15a11.75,11.75,0,0,0-3-7.84A35,35,0,0,1,54.59,6Z"/><g class="cls-15"><circle class="cls-16" cx="35.31" cy="35.04" r="35.04" transform="translate(-10.41 54.65) rotate(-68)"/></g><circle class="cls-17" cx="18.26" cy="12.71" r="3.88"/><path class="cls-17" d="M14.43,15.33a1.06,1.06,0,1,0,1.06-1.06A1.06,1.06,0,0,0,14.43,15.33Z"/><circle class="cls-17" cx="19.85" cy="16.16" r="2.67"/><g class="cls-18"><path class="cls-19" d="M67.45,20.62A35.27,35.27,0,0,1,0,35.84,35.27,35.27,0,1,0,67.45,20.62Z"/></g><g class="cls-20"><path class="cls-21" d="M49.63,2.85a35.27,35.27,0,0,1-40,56.43,35.27,35.27,0,1,0,40-56.43Z"/></g><path class="cls-17" d="M63.86,15A35,35,0,0,1,5.91,54.35,35,35,0,1,0,63.86,15Z"/></g></g></g></svg>