<svg xmlns="http://www.w3.org/2000/svg" xmlns:xlink="http://www.w3.org/1999/xlink" viewBox="0 0 78.73 75.76"><defs><style>.cls-1{mask:url(#mask);}.cls-10,.cls-12,.cls-16,.cls-2,.cls-20,.cls-22,.cls-25,.cls-26,.cls-32,.cls-4,.cls-6,.cls-8{mix-blend-mode:multiply;}.cls-2{fill:url(#linear-gradient);}.cls-3{mask:url(#mask-2);}.cls-4{fill:url(#linear-gradient-2);}.cls-5{mask:url(#mask-3);}.cls-6{fill:url(#radial-gradient);}.cls-7{mask:url(#mask-4);}.cls-8{fill:url(#linear-gradient-3);}.cls-9{mask:url(#mask-5);}.cls-10{fill:url(#linear-gradient-4);}.cls-11{mask:url(#mask-6);}.cls-12{fill:url(#linear-gradient-5);}.cls-13{fill:none;}.cls-14{isolation:isolate;}.cls-15{mask:url(#mask-7);}.cls-16,.cls-28,.cls-31{opacity:0.68;}.cls-16{fill:url(#linear-gradient-6);}.cls-17,.cls-25,.cls-26,.cls-27,.cls-28,.cls-29{fill:#ddc3a3;}.cls-18{opacity:0.89;}.cls-19{fill:#d8b58c;}.cls-20{opacity:0.44;}.cls-21{fill:#ce9b78;}.cls-22{opacity:0.23;}.cls-23{clip-path:url(#clip-path);}.cls-24{fill:#c87e56;}.cls-25{opacity:0.6;}.cls-26{opacity:0.25;}.cls-27,.cls-28,.cls-38,.cls-40{mix-blend-mode:screen;}.cls-27{opacity:0.27;}.cls-29{mix-blend-mode:overlay;opacity:0.46;}.cls-30{mask:url(#mask-8);}.cls-31{mix-blend-mode:color-dodge;fill:url(#radial-gradient-2);}.cls-32{opacity:0.42;}.cls-33{mask:url(#mask-9);}.cls-34{fill:url(#linear-gradient-7);}.cls-35{mask:url(#mask-10);}.cls-36{fill:url(#linear-gradient-8);}.cls-37{mask:url(#mask-11);}.cls-38,.cls-40{opacity:0.49;}.cls-38{fill:url(#linear-gradient-9);}.cls-39{mask:url(#mask-12);}.cls-40{fill:url(#linear-gradient-10);}.cls-41{filter:url(#luminosity-noclip-12);}.cls-42{filter:url(#luminosity-noclip-11);}.cls-43{filter:url(#luminosity-noclip-10);}.cls-44{filter:url(#luminosity-noclip-9);}.cls-45{filter:url(#luminosity-noclip-8);}.cls-46{filter:url(#luminosity-noclip-7);}.cls-47{filter:url(#luminosity-noclip-6);}.cls-48{filter:url(#luminosity-noclip-5);}.cls-49{filter:url(#luminosity-noclip-4);}.cls-50{filter:url(#luminosity-noclip-3);}.cls-51{filter:url(#luminosity-noclip-2);}.cls-52{filter:url(#luminosity-noclip);}</style><filter id="luminosity-noclip" x="0.1" y="-7959.04" width="70.57" height="32766" filterUnits="userSpaceOnUse" color-interpolation-filters="sRGB"><feFlood flood-color="#fff" result="bg"/><feBlend in="SourceGraphic" in2="bg"/></filter><mask id="mask" x="0.1" y="-7959.04" width="70.57" height="32766" maskUnits="userSpaceOnUse"><g class="cls-52"/></mask><linearGradient id="linear-gradient" x1="10.44" y1="10.31" x2="60.32" y2="60.19" gradientUnits="userSpaceOnUse"><stop offset="0"/><stop offset="1" stop-color="#fff"/></linearGradient><filter id="luminosity-noclip-2" x="9.68" y="-7959.04" width="61.01" height="32766" filterUnits="userSpaceOnUse" color-interpolation-filters="sRGB"><feFlood flood-color="#fff" result="bg"/><feBlend in="SourceGraphic" in2="bg"/></filter><mask id="mask-2" x="9.68" y="-7959.04" width="61.01" height="32766" maskUnits="userSpaceOnUse"><g class="cls-51"/></mask><linearGradient id="linear-gradient-2" x1="-163.64" y1="198.52" x2="-136.54" y2="240.24" gradientTransform="matrix(0.92, -0.38, 0.38, 0.92, 99.04, -219.03)" gradientUnits="userSpaceOnUse"><stop offset="0.24"/><stop offset="0.38" stop-color="#030303"/><stop offset="0.48" stop-color="#0d0d0d"/><stop offset="0.56" stop-color="#1d1d1d"/><stop offset="0.65" stop-color="#343434"/><stop offset="0.73" stop-color="#515151"/><stop offset="0.8" stop-color="#767676"/><stop offset="0.87" stop-color="#a1a1a1"/><stop offset="0.94" stop-color="#d1d1d1"/><stop offset="1" stop-color="#fff"/></linearGradient><filter id="luminosity-noclip-3" x="10.99" y="-7959.04" width="30.57" height="32766" filterUnits="userSpaceOnUse" color-interpolation-filters="sRGB"><feFlood flood-color="#fff" result="bg"/><feBlend in="SourceGraphic" in2="bg"/></filter><mask id="mask-3" x="10.99" y="-7959.04" width="30.57" height="32766" maskUnits="userSpaceOnUse"><g class="cls-50"/></mask><radialGradient id="radial-gradient" cx="25.74" cy="17.12" r="15.27" gradientTransform="translate(0.51)" gradientUnits="userSpaceOnUse"><stop offset="0" stop-color="#fff"/><stop offset="0.1" stop-color="#fafafa"/><stop offset="0.22" stop-color="#eaeaea"/><stop offset="0.36" stop-color="#d0d0d0"/><stop offset="0.51" stop-color="#adadad"/><stop offset="0.66" stop-color="#7f7f7f"/><stop offset="0.82" stop-color="#474747"/><stop offset="0.99" stop-color="#050505"/><stop offset="1"/></radialGradient><filter id="luminosity-noclip-4" x="37.34" y="-7959.04" width="33.32" height="32766" filterUnits="userSpaceOnUse" color-interpolation-filters="sRGB"><feFlood flood-color="#fff" result="bg"/><feBlend in="SourceGraphic" in2="bg"/></filter><mask id="mask-4" x="37.34" y="-7959.04" width="33.32" height="32766" maskUnits="userSpaceOnUse"><g class="cls-49"/></mask><linearGradient id="linear-gradient-3" x1="37.34" y1="25.26" x2="70.66" y2="25.26" xlink:href="#linear-gradient"/><filter id="luminosity-noclip-5" x="0.18" y="-7959.04" width="58.88" height="32766" filterUnits="userSpaceOnUse" color-interpolation-filters="sRGB"><feFlood flood-color="#fff" result="bg"/><feBlend in="SourceGraphic" in2="bg"/></filter><mask id="mask-5" x="0.18" y="-7959.04" width="58.88" height="32766" maskUnits="userSpaceOnUse"><g class="cls-48"/></mask><linearGradient id="linear-gradient-4" x1="0.18" y1="54.03" x2="59.06" y2="54.03" xlink:href="#linear-gradient"/><filter id="luminosity-noclip-6" x="0" y="-7959.04" width="70.61" height="32766" filterUnits="userSpaceOnUse" color-interpolation-filters="sRGB"><feFlood flood-color="#fff" result="bg"/><feBlend in="SourceGraphic" in2="bg"/></filter><mask id="mask-6" x="0" y="-7959.04" width="70.61" height="32766" maskUnits="userSpaceOnUse"><g class="cls-47"/></mask><linearGradient id="linear-gradient-5" x1="127.22" y1="-179.2" x2="154.29" y2="-137.51" gradientTransform="translate(-147.81 147.49) rotate(19.52)" xlink:href="#linear-gradient-2"/><filter id="luminosity-noclip-7" x="0.1" y="0" width="70.57" height="70.5" filterUnits="userSpaceOnUse" color-interpolation-filters="sRGB"><feFlood flood-color="#fff" result="bg"/><feBlend in="SourceGraphic" in2="bg"/></filter><mask id="mask-7" x="5.68" y="0" width="70.57" height="70.5" maskUnits="userSpaceOnUse"><g class="cls-46"><g transform="translate(5.58)"><g class="cls-1"><ellipse class="cls-2" cx="35.38" cy="35.25" rx="35.28" ry="35.25"/></g></g></g></mask><linearGradient id="linear-gradient-6" x1="16.02" y1="10.31" x2="65.9" y2="60.19" gradientUnits="userSpaceOnUse"><stop offset="0" stop-color="red"/><stop offset="1" stop-color="#957635"/></linearGradient><clipPath id="clip-path" transform="translate(5.58)"><ellipse class="cls-13" cx="35.38" cy="35.25" rx="35.28" ry="35.25"/></clipPath><filter id="luminosity-noclip-8" x="10.99" y="1.85" width="30.57" height="30.54" filterUnits="userSpaceOnUse" color-interpolation-filters="sRGB"><feFlood flood-color="#fff" result="bg"/><feBlend in="SourceGraphic" in2="bg"/></filter><mask id="mask-8" x="16.57" y="1.85" width="30.57" height="30.54" maskUnits="userSpaceOnUse"><g class="cls-45"><g transform="translate(5.58)"><g class="cls-5"><ellipse class="cls-6" cx="26.27" cy="17.12" rx="15.29" ry="15.27"/></g></g></g></mask><radialGradient id="radial-gradient-2" cx="25.74" cy="17.12" r="15.27" gradientTransform="translate(6.09)" gradientUnits="userSpaceOnUse"><stop offset="0" stop-color="#ececec"/><stop offset="0.47" stop-color="#f1f1f1"/><stop offset="1" stop-color="#fff"/></radialGradient><filter id="luminosity-noclip-9" x="37.34" y="0.84" width="33.32" height="48.83" filterUnits="userSpaceOnUse" color-interpolation-filters="sRGB"><feFlood flood-color="#fff" result="bg"/><feBlend in="SourceGraphic" in2="bg"/></filter><mask id="mask-9" x="42.92" y="0.84" width="33.32" height="48.83" maskUnits="userSpaceOnUse"><g class="cls-44"><g transform="translate(5.58)"><g class="cls-7"><path class="cls-8" d="M37.84,21.44c2.18,6.25,8.23,5.7,7.72,12.15s-3.47,13.28,2.49,15,12,1.72,18.51-3c1.27-.93,2.54-2.9,3.76-5.48a35.67,35.67,0,0,0,.34-4.87A35.27,35.27,0,0,0,43.05.84C39.09,7.34,36.12,16.51,37.84,21.44Z"/></g></g></g></mask><linearGradient id="linear-gradient-7" x1="37.34" y1="25.26" x2="70.66" y2="25.26" xlink:href="#linear-gradient-6"/><filter id="luminosity-noclip-10" x="0.18" y="37.57" width="58.88" height="32.93" filterUnits="userSpaceOnUse" color-interpolation-filters="sRGB"><feFlood flood-color="#fff" result="bg"/><feBlend in="SourceGraphic" in2="bg"/></filter><mask id="mask-10" x="5.76" y="37.57" width="58.88" height="32.93" maskUnits="userSpaceOnUse"><g class="cls-43"><g transform="translate(5.58)"><g class="cls-9"><path class="cls-10" d="M36.94,56.59c-2.58-10.78-15.46-13.53-22.39-12.1C8.88,45.66,4.11,41.66.18,37.57a35.28,35.28,0,0,0,58.88,23.8C51.33,62.83,38.71,64,36.94,56.59Z"/></g></g></g></mask><linearGradient id="linear-gradient-8" x1="0.18" y1="54.03" x2="59.06" y2="54.03" xlink:href="#linear-gradient-6"/><filter id="luminosity-noclip-11" x="0" y="20.57" width="70.61" height="49.68" filterUnits="userSpaceOnUse" color-interpolation-filters="sRGB"><feFlood flood-color="#fff" result="bg"/><feBlend in="SourceGraphic" in2="bg"/></filter><mask id="mask-11" x="5.58" y="20.57" width="70.61" height="49.68" maskUnits="userSpaceOnUse"><g class="cls-42"><g transform="translate(5.58)"><g class="cls-11"><path class="cls-12" d="M67.52,20.57A35.31,35.31,0,0,1,0,35.79,35.3,35.3,0,1,0,67.52,20.57Z"/></g></g></g></mask><linearGradient id="linear-gradient-9" x1="127.22" y1="-179.2" x2="154.29" y2="-137.51" gradientTransform="translate(-147.81 147.49) rotate(19.52)" gradientUnits="userSpaceOnUse"><stop offset="0.24" stop-color="#fff"/><stop offset="0.92" stop-color="#fff"/><stop offset="1" stop-color="#fff"/></linearGradient><filter id="luminosity-noclip-12" x="9.68" y="2.79" width="61.01" height="67.51" filterUnits="userSpaceOnUse" color-interpolation-filters="sRGB"><feFlood flood-color="#fff" result="bg"/><feBlend in="SourceGraphic" in2="bg"/></filter><mask id="mask-12" x="15.26" y="2.79" width="61.01" height="67.51" maskUnits="userSpaceOnUse"><g class="cls-41"><g transform="translate(5.58)"><g class="cls-3"><path class="cls-4" d="M49.68,2.79a35.28,35.28,0,0,1-40,56.44,35.29,35.29,0,1,0,40-56.44Z"/></g></g></g></mask><linearGradient id="linear-gradient-10" x1="-163.64" y1="198.52" x2="-136.54" y2="240.24" gradientTransform="matrix(0.92, -0.38, 0.38, 0.92, 99.04, -219.03)" xlink:href="#linear-gradient-9"/></defs><g class="cls-14"><g id="Layer_2" data-name="Layer 2"><g id="Layer_1-2" data-name="Layer 1"><g class="cls-15"><ellipse class="cls-16" cx="40.96" cy="35.25" rx="35.28" ry="35.25"/></g><ellipse class="cls-17" cx="40.96" cy="35.25" rx="35.28" ry="35.25"/><g class="cls-18"><path class="cls-19" d="M67.48,32.29a7,7,0,0,0-.56-2.08,2.15,2.15,0,0,0-1.25-1.54,1.58,1.58,0,0,0-1.84.36,4.82,4.82,0,0,0-1.34,3.44c-.39,1.72-.17,4.49,2.08,4.65C67,37.29,67.61,34.11,67.48,32.29Z" transform="translate(5.58)"/><path class="cls-19" d="M58.5,21.13l-.23.1a3.2,3.2,0,0,0-2.2,1.18,1.77,1.77,0,0,0,.31,2.36,2,2,0,0,0,2.66.11l.08-.07a3.47,3.47,0,0,0,1.23-1.76A1.49,1.49,0,0,0,58.5,21.13Z" transform="translate(5.58)"/><path class="cls-19" d="M31.18,39.91a5.66,5.66,0,0,0-2.63,3.3c-.93,3.32,3.6,3.39,5.56,2.39,2.27-1.15,4.37-5.12,1.25-6.68-1.26-.64-2.7-.12-3.89.84Z" transform="translate(5.58)"/><path class="cls-19" d="M40,44.08a1.92,1.92,0,0,0,1.19-1.78,1.43,1.43,0,0,0,0-1,1.76,1.76,0,0,0-.15-.44,1,1,0,0,0-.24-.93,1,1,0,0,0-1.42,0,5.31,5.31,0,0,0-.44.65A1.6,1.6,0,0,0,38.32,42c0,.15,0,.29-.06.45C38.2,43.46,38.86,44.45,40,44.08Z" transform="translate(5.58)"/><path class="cls-19" d="M11.86,36.5c2.2-1.82,2.45-6.54,1.4-9-.45-1.05-1.36-2.24-2.64-2.1a2.48,2.48,0,0,0-1.68,1.1c-2,.45-2.84,5.12-2.65,6.62C6.62,35.68,9.34,38.6,11.86,36.5Z" transform="translate(5.58)"/><path class="cls-19" d="M29.34,17a2,2,0,0,0,1.8-.48,2.36,2.36,0,0,0,.78-1c.47-1.14.55-3.19-.85-3.7C28.3,10.79,26.52,16.36,29.34,17Z" transform="translate(5.58)"/><path class="cls-19" d="M13.35,43.12c-1.46-1.07-3-1.1-3.89.28-1,.51-1,3.22-1,4.05a4.38,4.38,0,0,0,3.83,4.25,4.26,4.26,0,0,0,.8,0,1.83,1.83,0,0,0,2-.62,1.93,1.93,0,0,0,.3-.61,3.17,3.17,0,0,0,.68-2A7.09,7.09,0,0,0,13.35,43.12Z" transform="translate(5.58)"/><path class="cls-19" d="M38,26.24a5,5,0,0,0,5.54,2.28,5.94,5.94,0,0,0,3.13-2.2,8,8,0,0,0,1.46-2.63,5,5,0,0,0-4.69-6.57,5.86,5.86,0,0,0-2.83.74,5.48,5.48,0,0,0-2.77,3.58,5.23,5.23,0,0,0-.13.87A4.68,4.68,0,0,0,38,26.24Z" transform="translate(5.58)"/><path class="cls-19" d="M52,44.77a1.31,1.31,0,0,0,0,2.62A1.31,1.31,0,0,0,52,44.77Z" transform="translate(5.58)"/><path class="cls-19" d="M44,57.82a6.42,6.42,0,0,0-2.68-1.44,5.88,5.88,0,0,0-1.51-.17,7.71,7.71,0,0,0-1.26.16,5.09,5.09,0,0,0-1.75,1,3.69,3.69,0,0,0,1.63,6.17l.2,0a5.41,5.41,0,0,0,.83.28,7.28,7.28,0,0,0,2.94,0A3.62,3.62,0,0,0,44,57.82Z" transform="translate(5.58)"/><path class="cls-19" d="M33.64,60.42a1.9,1.9,0,0,0-.12-.36l0-.06-.06-.11a2.46,2.46,0,0,0-.19-.32l-.11-.15a.34.34,0,0,0-.08-.09,3.15,3.15,0,0,0-2.82-1.1,3.05,3.05,0,0,0-2.46,3.87,2.78,2.78,0,0,0,3.75,1.79,2.54,2.54,0,0,0,.49-.26,2.79,2.79,0,0,0,1.2-.9,2.53,2.53,0,0,0,.46-2.22Z" transform="translate(5.58)"/><path class="cls-19" d="M33.84,54.66a1.63,1.63,0,1,0,1.63,1.62A1.65,1.65,0,0,0,33.84,54.66Z" transform="translate(5.58)"/><path class="cls-19" d="M59.68,43.36c-2.53,0-2.54,3.93,0,3.93A2,2,0,0,0,59.68,43.36Z" transform="translate(5.58)"/><path class="cls-19" d="M58.93,48.61a1.88,1.88,0,0,0,0,3.75A1.88,1.88,0,0,0,58.93,48.61Z" transform="translate(5.58)"/><path class="cls-19" d="M52.75,52.76a1,1,0,0,0,0,2A1,1,0,0,0,52.75,52.76Z" transform="translate(5.58)"/><path class="cls-19" d="M56,43.13a1.19,1.19,0,0,0,0,2.37A1.19,1.19,0,0,0,56,43.13Z" transform="translate(5.58)"/><path class="cls-19" d="M55.27,47.79a1.44,1.44,0,1,0,1.44,1.44A1.46,1.46,0,0,0,55.27,47.79Z" transform="translate(5.58)"/><path class="cls-19" d="M47,48.87a1.75,1.75,0,1,0,1.75,1.74A1.76,1.76,0,0,0,47,48.87Z" transform="translate(5.58)"/><path class="cls-19" d="M55.65,31.25a4.4,4.4,0,0,0-3,1.25,4.26,4.26,0,0,0-1.24,3,4.33,4.33,0,0,0,1.24,3,4.44,4.44,0,0,0,3,1.24,4.39,4.39,0,0,0,3-1.24,4.35,4.35,0,0,0,1.24-3,4.29,4.29,0,0,0-1.24-3A4.42,4.42,0,0,0,55.65,31.25Z" transform="translate(5.58)"/><path class="cls-19" d="M48.72,34.17a1.06,1.06,0,0,0,0-2.12A1.06,1.06,0,0,0,48.72,34.17Z" transform="translate(5.58)"/><path class="cls-19" d="M48.21,35.93c-3.18,0-3.18,4.94,0,4.94S51.4,35.93,48.21,35.93Z" transform="translate(5.58)"/><path class="cls-19" d="M55.64,18.17A2,2,0,0,0,58,17.76a4.51,4.51,0,0,0,.6-.71,2.11,2.11,0,0,0,.18-.33,2.83,2.83,0,0,0,.17-.4.45.45,0,0,0,0-.08A1.32,1.32,0,0,0,59,15.09a1.36,1.36,0,0,0-1.25-.84,2.18,2.18,0,0,0-1.71.73,2.11,2.11,0,0,0-.2.29l-.33.24a1.61,1.61,0,0,0-.69,1.29A1.63,1.63,0,0,0,55.64,18.17Z" transform="translate(5.58)"/><path class="cls-19" d="M51.42,13a1,1,0,0,0,1.7-.14,3.08,3.08,0,0,0-.54-3.62,1.33,1.33,0,0,0-2.19.58,3.72,3.72,0,0,0-.24,1.28,2.15,2.15,0,0,0,.69,1.56A1.34,1.34,0,0,0,51.42,13Z" transform="translate(5.58)"/><path class="cls-19" d="M28.54,68a1.07,1.07,0,0,0,0-2.13,1.07,1.07,0,0,0,0,2.13Z" transform="translate(5.58)"/><path class="cls-19" d="M23.25,66a1.07,1.07,0,0,0,0-2.13,1.07,1.07,0,0,0,0,2.13Z" transform="translate(5.58)"/><path class="cls-19" d="M19.09,47.36a1.09,1.09,0,0,0,0-2.18,1.09,1.09,0,0,0,0,2.18Z" transform="translate(5.58)"/><path class="cls-19" d="M4.34,36.31a.91.91,0,0,0,0-1.81.91.91,0,0,0,0,1.81Z" transform="translate(5.58)"/><path class="cls-19" d="M64.19,20.12a1.53,1.53,0,1,0-1.53-1.53,1.54,1.54,0,0,0,1.53,1.53Z" transform="translate(5.58)"/><path class="cls-19" d="M61.64,23.09a.91.91,0,0,0,0-1.82.91.91,0,0,0,0,1.82Z" transform="translate(5.58)"/><path class="cls-19" d="M61.17,27.4a1,1,0,0,0,0-1.94,1,1,0,0,0,0,1.94Z" transform="translate(5.58)"/><path class="cls-19" d="M53.51,32.16a1,1,0,0,0,0-2,1,1,0,0,0,0,2Z" transform="translate(5.58)"/><path class="cls-19" d="M44.33,40a1.78,1.78,0,1,0-1.78-1.78A1.81,1.81,0,0,0,44.33,40Z" transform="translate(5.58)"/><path class="cls-19" d="M41.69,44.3a2.1,2.1,0,1,0-2.1-2.09,2.12,2.12,0,0,0,2.1,2.09Z" transform="translate(5.58)"/><path class="cls-19" d="M37.72,47.35a2.6,2.6,0,1,0-2.6-2.59,2.62,2.62,0,0,0,2.6,2.59Z" transform="translate(5.58)"/><path class="cls-19" d="M36.2,68.32a2.6,2.6,0,1,0-2.59-2.59,2.63,2.63,0,0,0,2.59,2.59Z" transform="translate(5.58)"/><path class="cls-19" d="M36.68,60a1.88,1.88,0,1,0-1.88-1.87A1.91,1.91,0,0,0,36.68,60Z" transform="translate(5.58)"/><path class="cls-19" d="M28.92,57.12a1.6,1.6,0,1,0-1.59-1.59,1.62,1.62,0,0,0,1.59,1.59Z" transform="translate(5.58)"/><path class="cls-19" d="M23.72,53.66a1.91,1.91,0,0,0,0-3.82c-2.45,0-2.46,3.82,0,3.82Z" transform="translate(5.58)"/><path class="cls-19" d="M52.94,53.27a2.66,2.66,0,1,0-2.66-2.66,2.69,2.69,0,0,0,2.66,2.66Z" transform="translate(5.58)"/><path class="cls-19" d="M46.51,47.36a1.94,1.94,0,1,0-1.94-1.94,2,2,0,0,0,1.94,1.94Z" transform="translate(5.58)"/><path class="cls-19" d="M17.58,30.17A1.57,1.57,0,1,0,16,28.6a1.58,1.58,0,0,0,1.57,1.57Z" transform="translate(5.58)"/><path class="cls-19" d="M3.68,28.82a1,1,0,0,0,0-1.94,1,1,0,0,0,0,1.94Z" transform="translate(5.58)"/><path class="cls-19" d="M18.62,40.62a1.53,1.53,0,1,0-1.54-1.53,1.55,1.55,0,0,0,1.54,1.53Z" transform="translate(5.58)"/><path class="cls-19" d="M23.12,46.56a2,2,0,1,0-2-2,2.06,2.06,0,0,0,2,2Z" transform="translate(5.58)"/></g><g class="cls-20"><path class="cls-21" d="M42.19,29.07a2.93,2.93,0,0,0-2.06,3.58,3.35,3.35,0,0,0,.35.8,3,3,0,0,0,1.37,1.17,2.77,2.77,0,0,0,1.86.15,3,3,0,0,0,2-2.18l0,.12,0-.06A2.85,2.85,0,0,0,45,29.82,3,3,0,0,0,42.19,29.07Z" transform="translate(5.58)"/><path class="cls-21" d="M25.78,51.42a2.71,2.71,0,0,0-2.41,1.36A2.47,2.47,0,0,0,23.24,55a1.77,1.77,0,0,0,.52.8,2.41,2.41,0,0,0,1.1.64,2.45,2.45,0,0,0,2.2-.29,3,3,0,0,0,1.05-1.22,2.43,2.43,0,0,0,.12-1.66A2.61,2.61,0,0,0,25.78,51.42Z" transform="translate(5.58)"/><path class="cls-21" d="M20.49,53.51A2.54,2.54,0,1,0,18,56,2.58,2.58,0,0,0,20.49,53.51Z" transform="translate(5.58)"/><path class="cls-21" d="M8.12,44.62a1.31,1.31,0,0,0,0-2.62A1.31,1.31,0,0,0,8.12,44.62Z" transform="translate(5.58)"/><path class="cls-21" d="M13.92,55.23c-3.14,0-3.15,4.88,0,4.88S17.06,55.23,13.92,55.23Z" transform="translate(5.58)"/><path class="cls-21" d="M19.47,58.27a.91.91,0,0,0,0,1.82A.91.91,0,0,0,19.47,58.27Z" transform="translate(5.58)"/><path class="cls-21" d="M43.35,47.7a2,2,0,0,0-1.08-.38,2.43,2.43,0,0,0-1,.1,1,1,0,0,0-.18.08,2.45,2.45,0,0,0-1.94,3,2.4,2.4,0,0,0,4,1A3.25,3.25,0,0,0,44,50.12a3.13,3.13,0,0,0,0-1.49A1.65,1.65,0,0,0,43.35,47.7Z" transform="translate(5.58)"/><path class="cls-21" d="M60.16,30.49a2.23,2.23,0,0,0,.14-1.6,2.42,2.42,0,0,0-2.93-1.67,3.18,3.18,0,0,0-1.32.79,2.49,2.49,0,0,0,.8,4,2.46,2.46,0,0,0,2.21-.13A2.41,2.41,0,0,0,60.16,30.49Z" transform="translate(5.58)"/><path class="cls-21" d="M52.88,21a1.78,1.78,0,0,0,0,3.56A1.78,1.78,0,0,0,52.88,21Z" transform="translate(5.58)"/><path class="cls-21" d="M46.86,19.52a2.47,2.47,0,1,0-2.46-2.46A2.49,2.49,0,0,0,46.86,19.52Z" transform="translate(5.58)"/><path class="cls-21" d="M21.38,40.68a3.32,3.32,0,0,0-3.1-.82,3.17,3.17,0,0,0-2.22,2.22,6.19,6.19,0,0,0,.6,4.52,5.36,5.36,0,0,0,1.75,1.86c1.57,1.5,4.18,1.93,5.66,0C26.12,45.83,23.52,42.38,21.38,40.68Z" transform="translate(5.58)"/><path class="cls-21" d="M25.47,61.29l-.09-.07a3.12,3.12,0,0,0-5.16.29A3.29,3.29,0,0,0,20,64.57a3.23,3.23,0,0,0,3,1.94,2,2,0,0,0,.43,0,2.52,2.52,0,0,0,2.51,0,2.76,2.76,0,0,0,.84-3.87A4.34,4.34,0,0,0,25.47,61.29Z" transform="translate(5.58)"/><path class="cls-21" d="M11.44,17.24a1.75,1.75,0,0,0,.55-1,1.18,1.18,0,0,0-1.42-1.51,1.83,1.83,0,0,0-1.07.58,1.39,1.39,0,0,0,0,1.93,1.36,1.36,0,0,0,.39.25.7.7,0,0,0,.95.18,1.37,1.37,0,0,0,.22-.19A1.52,1.52,0,0,0,11.44,17.24Z" transform="translate(5.58)"/><path class="cls-21" d="M3.28,24.73a2,2,0,0,0,.82,1.35,2.94,2.94,0,0,0,.52.39,3.15,3.15,0,0,0,4.17-1.2,3.57,3.57,0,0,0,.47-.91,3.15,3.15,0,0,0,.65-2.2,2.66,2.66,0,0,0-3.63-1.9,5.51,5.51,0,0,0-2.65,2.21,2.8,2.8,0,0,0-.35,2.25Z" transform="translate(5.58)"/><path class="cls-21" d="M12.66,24.37a1.47,1.47,0,0,0,0-2.93A1.47,1.47,0,0,0,12.66,24.37Z" transform="translate(5.58)"/><path class="cls-21" d="M16.2,36.34a3.53,3.53,0,0,0,2.28,1.74A3.46,3.46,0,0,0,21,37.73a3.82,3.82,0,0,0,1.76-4.29,3.61,3.61,0,0,0-2.1-2.3,3.7,3.7,0,0,0-2.9,0A2.85,2.85,0,0,0,16,33.53,3.24,3.24,0,0,0,16.2,36.34Z" transform="translate(5.58)"/><path class="cls-21" d="M22,39.28a1.79,1.79,0,1,0,1.78-1.78A1.81,1.81,0,0,0,22,39.28Z" transform="translate(5.58)"/><path class="cls-21" d="M26.27,44.34a1.28,1.28,0,0,0,0-2.56A1.28,1.28,0,0,0,26.27,44.34Z" transform="translate(5.58)"/><path class="cls-21" d="M6.19,40a3.66,3.66,0,0,0-.62-4,2.25,2.25,0,0,0-2.36-.57,2.57,2.57,0,0,0-1.68,2.43A1.72,1.72,0,0,0,2,39.09a3.09,3.09,0,0,0,.07.52A2.28,2.28,0,0,0,6.19,40Z" transform="translate(5.58)"/><path class="cls-21" d="M14.68,40.68a1.53,1.53,0,0,0,0-3.06A1.53,1.53,0,0,0,14.68,40.68Z" transform="translate(5.58)"/><path class="cls-21" d="M9.33,50.49a2.43,2.43,0,0,0-2.59.14A2.24,2.24,0,0,0,6,51.77a1.75,1.75,0,0,0-.11,1.35A2.49,2.49,0,0,0,7,54.64,2.93,2.93,0,0,0,8,55a2.29,2.29,0,0,0,1.37-.1,2,2,0,0,0,1-.86,2.64,2.64,0,0,0,.22-2A2.71,2.71,0,0,0,9.33,50.49Z" transform="translate(5.58)"/><path class="cls-21" d="M66,42.58A.78.78,0,0,0,66,41,.78.78,0,0,0,66,42.58Z" transform="translate(5.58)"/><path class="cls-21" d="M65.11,27.67c4,0,4-6.25,0-6.25S61.07,27.67,65.11,27.67Z" transform="translate(5.58)"/><path class="cls-21" d="M65.64,30.12a1.71,1.71,0,1,0,1.71-1.7A1.72,1.72,0,0,0,65.64,30.12Z" transform="translate(5.58)"/><path class="cls-21" d="M62.21,21.41a1.53,1.53,0,0,0,0-3.06A1.53,1.53,0,0,0,62.21,21.41Z" transform="translate(5.58)"/><path class="cls-21" d="M46.3,22.79c0-.06,0-.11-.07-.17l0-.05a1.28,1.28,0,0,0-.26-.35,2.09,2.09,0,0,0-1.28-.52,1.79,1.79,0,0,0-1.55.89,2.14,2.14,0,0,0-.22,1.68,1.83,1.83,0,0,0,2.48,1.19A1.83,1.83,0,0,0,46.47,24,1.64,1.64,0,0,0,46.3,22.79Z" transform="translate(5.58)"/><path class="cls-21" d="M47.2,49.87a.88.88,0,0,0,0,1.75A.88.88,0,0,0,47.2,49.87Z" transform="translate(5.58)"/><path class="cls-21" d="M59.81,45a.84.84,0,0,0,0,1.68A.84.84,0,0,0,59.81,45Z" transform="translate(5.58)"/><path class="cls-21" d="M55.15,35.48a1.78,1.78,0,0,0,0,3.56A1.78,1.78,0,0,0,55.15,35.48Z" transform="translate(5.58)"/><path class="cls-21" d="M54.14,35.4a.91.91,0,0,0,0-1.81A.91.91,0,0,0,54.14,35.4Z" transform="translate(5.58)"/><path class="cls-21" d="M48.72,38a.82.82,0,0,0,0,1.63A.82.82,0,0,0,48.72,38Z" transform="translate(5.58)"/><path class="cls-21" d="M69.31,38.41a1.49,1.49,0,0,0-.24-.49,1.67,1.67,0,0,0-2.48-.17l0,0a1.69,1.69,0,0,0-.35,1.79l.15.37a1.85,1.85,0,0,0,.3.39,1.73,1.73,0,0,0,.84.48,1.64,1.64,0,0,0,2-1.34A1.75,1.75,0,0,0,69.31,38.41Z" transform="translate(5.58)"/><path class="cls-21" d="M64,42.49a2.8,2.8,0,0,0,.27-3.05,2.45,2.45,0,0,0-2.87-1.21,2.5,2.5,0,0,0-.66.31,2.41,2.41,0,0,0-.83.55,2.62,2.62,0,0,0,.6,4A2.66,2.66,0,0,0,64,42.49Z" transform="translate(5.58)"/><path class="cls-21" d="M65.38,45.48a2.26,2.26,0,0,0-1.59.21,2.13,2.13,0,0,0-.8.75,2.53,2.53,0,0,0-.51,1.34,2.4,2.4,0,0,0,.74,1.82,2.15,2.15,0,0,0,3.34-.43A2.4,2.4,0,0,0,67,47.8a3.4,3.4,0,0,0-.36-1.37A2.06,2.06,0,0,0,65.38,45.48Z" transform="translate(5.58)"/></g><g class="cls-22"><g class="cls-23"><path class="cls-24" d="M28.19,64.81a2.54,2.54,0,0,0-.19.57,3.62,3.62,0,0,0-.36-.42,4.93,4.93,0,0,0-3.35-1.38,4.86,4.86,0,0,0-.92.09,1.1,1.1,0,0,0-1.13-1,1.2,1.2,0,0,0-.89,2,3.44,3.44,0,0,0-.41.35,4.74,4.74,0,0,0-1.21,2.09,4.65,4.65,0,0,0,0,2.51v.11l.48,1.13a3.58,3.58,0,0,0,1.21,1.32,2.37,2.37,0,0,0,1,.6,3.56,3.56,0,0,0,1.82.41,5.63,5.63,0,0,0,2.38-.64A3.52,3.52,0,0,0,28,71.27a3.39,3.39,0,0,0,.84-1.6l0-.11a4.76,4.76,0,0,0,.1-2l.2.11a2,2,0,0,0,1.54,0,1.85,1.85,0,0,0,1.18-.89,2,2,0,0,0-.38-2.43A2.12,2.12,0,0,0,28.19,64.81Z" transform="translate(5.58)"/><path class="cls-24" d="M10.33,28.35a2.77,2.77,0,0,0-1.43,0,2.43,2.43,0,0,0-1.73,2.34,3.9,3.9,0,0,0-.18,1,2.62,2.62,0,0,0,4.69,1.66,3.2,3.2,0,0,0,.55-2.08A3,3,0,0,0,11.49,29c-.15-.11-.3-.22-.44-.34.39.32.43.35.1.09A2,2,0,0,0,10.33,28.35Z" transform="translate(5.58)"/><path class="cls-24" d="M23.25,8.54a1.25,1.25,0,1,0,0-2.5A1.26,1.26,0,0,0,22,7.29,1.28,1.28,0,0,0,23.25,8.54Z" transform="translate(5.58)"/><path class="cls-24" d="M17.81,13.52a2,2,0,0,0,.47.16,2.83,2.83,0,0,0,2.34-.57A3,3,0,0,0,22,10.77a2.37,2.37,0,0,0-2.3-2.34,2.74,2.74,0,0,0-1.4.34,3.35,3.35,0,0,0-.8.57,3.58,3.58,0,0,0-.59.47,2.33,2.33,0,0,0-.6,2.25A2.16,2.16,0,0,0,17.81,13.52Z" transform="translate(5.58)"/><path class="cls-24" d="M23.12,9.84a1.31,1.31,0,0,0,2.4,1,1.35,1.35,0,0,0-.47-1.8A1.31,1.31,0,0,0,23.12,9.84Z" transform="translate(5.58)"/><path class="cls-24" d="M46,11.41a3.71,3.71,0,0,0,2.9-.3,2.79,2.79,0,0,0,1.35-2.68,3.78,3.78,0,0,0-1.17-2.65,5.88,5.88,0,0,0-2.79-1.71,2.54,2.54,0,0,0-1.34,0A3.22,3.22,0,0,0,42.23,9,6.08,6.08,0,0,0,46,11.41Z" transform="translate(5.58)"/><path class="cls-24" d="M54.91,12.85a3.87,3.87,0,0,0,1,.47,2.25,2.25,0,0,0,2.17-.53,1.86,1.86,0,0,0,.48-1.85,1.79,1.79,0,0,0-.19-.45,1.73,1.73,0,0,0-.79-.81,4.28,4.28,0,0,0-1-.87l-.08,0-.16-.13-.23-.16A1.67,1.67,0,0,0,53.86,9a1.81,1.81,0,0,0-.45,1.78A4,4,0,0,0,54.91,12.85Z" transform="translate(5.58)"/><path class="cls-24" d="M53.73,15.38A.83.83,0,1,0,54.54,14l-.35-.09a.73.73,0,0,0-.7,1.21Z" transform="translate(5.58)"/><path class="cls-24" d="M63.44,40.93a3.84,3.84,0,0,0,1.77-2.25,3.89,3.89,0,0,0,0-2.41,2.92,2.92,0,0,0-2.74-2.2,3,3,0,0,0-2.68,1.64,2.92,2.92,0,0,0-.28,1.66,4.82,4.82,0,0,0,.05,2,2.53,2.53,0,0,0,1.51,1.69A2.76,2.76,0,0,0,63.44,40.93Z" transform="translate(5.58)"/><path class="cls-24" d="M50.34,27.38a2.85,2.85,0,0,0,1.2,3.31,2.46,2.46,0,0,0,3.62-1.58,2.22,2.22,0,0,0,.08-.68,3.08,3.08,0,0,0,.08-.53,1.71,1.71,0,0,0,0-1.71,2.29,2.29,0,0,0-2.2-1.09,2.23,2.23,0,0,0-1.07.46A2.85,2.85,0,0,0,50.34,27.38Z" transform="translate(5.58)"/><path class="cls-24" d="M54.89,18.82a1.44,1.44,0,0,0,0,2.88A1.44,1.44,0,0,0,54.89,18.82Z" transform="translate(5.58)"/><path class="cls-24" d="M18.05,44.07a4.68,4.68,0,0,0-2.24-.59,2.83,2.83,0,0,0-2.64,2A2.32,2.32,0,0,0,14,48a2.59,2.59,0,0,0,.55.77c1.37,1.26,3.83,1.44,4.92-.31A3.06,3.06,0,0,0,18.05,44.07Z" transform="translate(5.58)"/><path class="cls-24" d="M12.74,46.25a2.29,2.29,0,0,0-.4-.7l-.07-.1-.06-.07a1.59,1.59,0,0,0-1.11-.46,2.16,2.16,0,0,0-1,.26,1.81,1.81,0,0,0-.82,2,.41.41,0,0,0,0,.16,1.76,1.76,0,0,0,3.45-.47c-.06.39-.06.42,0,.08A1.23,1.23,0,0,0,12.74,46.25Z" transform="translate(5.58)"/><path class="cls-24" d="M6,49.25a1.87,1.87,0,0,0,1-1.18,3.14,3.14,0,0,0,.05-1.61,3.38,3.38,0,0,0-.74-1.4,1.81,1.81,0,0,0-1.28-.53,1.81,1.81,0,0,0-1.82,1.79s0,.09,0,.13A2.55,2.55,0,0,0,3.35,48a2.76,2.76,0,0,0,1,1.18A1.72,1.72,0,0,0,6,49.25Z" transform="translate(5.58)"/><path class="cls-24" d="M29.63,54.22a1.58,1.58,0,0,1,.28.08,2.14,2.14,0,0,0,2.73-2.11,4.53,4.53,0,0,0-1.07-2.69,14.82,14.82,0,0,0-1.64-1.72A2.38,2.38,0,0,0,26,48.94a4.62,4.62,0,0,0,.58,3.26C27.16,53.24,28.35,54.38,29.63,54.22Z" transform="translate(5.58)"/><path class="cls-24" d="M33.4,50.35a1,1,0,0,0,1.19-1.18,1.33,1.33,0,0,0-.7-.87,1,1,0,0,0-1.36,1.36A1.31,1.31,0,0,0,33.4,50.35Z" transform="translate(5.58)"/><path class="cls-24" d="M34.85,50.28a1.35,1.35,0,0,0,0,2.69A1.35,1.35,0,0,0,34.85,50.28Z" transform="translate(5.58)"/><path class="cls-24" d="M62,53.28c-1.74-1.25-3.92.69-4.73,2.13a2.25,2.25,0,0,0-.26,1A1.92,1.92,0,0,0,57.08,59c2,2,4.64-1.86,5.51-3.38A1.74,1.74,0,0,0,62,53.28Z" transform="translate(5.58)"/><path class="cls-24" d="M34.85,7a1.13,1.13,0,0,0,0-2.25A1.13,1.13,0,0,0,34.85,7Z" transform="translate(5.58)"/><path class="cls-24" d="M35.6,8.79a.63.63,0,0,0,0-1.25A.63.63,0,0,0,35.6,8.79Z" transform="translate(5.58)"/><path class="cls-24" d="M37.24,7.6a.94.94,0,0,0,0-1.88A.94.94,0,0,0,37.24,7.6Z" transform="translate(5.58)"/><path class="cls-24" d="M33.69,66.05A.85.85,0,0,0,33,67.59a.86.86,0,0,0,1.16-.3A.85.85,0,0,0,33.69,66.05Z" transform="translate(5.58)"/><path class="cls-24" d="M33.33,63.09a1.25,1.25,0,1,0,1.26,1.25A1.27,1.27,0,0,0,33.33,63.09Z" transform="translate(5.58)"/><path class="cls-24" d="M36.54,66.23a.69.69,0,0,0-.87-.66l-.11,0a.66.66,0,0,0,0,1.27l.11,0A.7.7,0,0,0,36.54,66.23Z" transform="translate(5.58)"/><path class="cls-24" d="M3.15,31.71a1.94,1.94,0,0,0,3.24-1.14,5.65,5.65,0,0,0,.11-.91c0-.13,0-.26,0-.39s-.07-.63,0-.35A1.9,1.9,0,0,0,6,27.7a1.72,1.72,0,0,0-1.2-.54A2.2,2.2,0,0,0,2.9,28.28a2.55,2.55,0,0,0-.21,2.12A1.67,1.67,0,0,0,3.15,31.71Z" transform="translate(5.58)"/><path class="cls-24" d="M7.82,24.47H7.76a1.25,1.25,0,0,0-.46.19,1.19,1.19,0,0,0-.56.55,1.66,1.66,0,0,0-.09,1.44,1.63,1.63,0,0,0,1,.92A1.38,1.38,0,0,0,9,27.22L9.29,27a1.53,1.53,0,0,0,.23-1.83A1.61,1.61,0,0,0,7.82,24.47Z" transform="translate(5.58)"/><path class="cls-24" d="M5.85,22.88a.91.91,0,0,0,0,1.81A.91.91,0,0,0,5.85,22.88Z" transform="translate(5.58)"/><path class="cls-24" d="M51.9,34.22a1.1,1.1,0,0,0,0,2.19A1.1,1.1,0,0,0,51.9,34.22Z" transform="translate(5.58)"/><path class="cls-24" d="M59.84,22.85a1.32,1.32,0,0,0,0,2.63A1.32,1.32,0,0,0,59.84,22.85Z" transform="translate(5.58)"/><path class="cls-24" d="M60,21.93c4.43,0,4.43-6.87,0-6.87S55.6,21.93,60,21.93Z" transform="translate(5.58)"/><path class="cls-24" d="M50.36,16.58a1.44,1.44,0,1,0,.65-.07,1.68,1.68,0,1,0-.65.07Z" transform="translate(5.58)"/><path class="cls-24" d="M57,48.94c5.52,0,5.53-8.56,0-8.56S51.48,48.94,57,48.94Z" transform="translate(5.58)"/><path class="cls-24" d="M54.55,51a1.76,1.76,0,0,0-1.77,1.27,1.87,1.87,0,0,0-1.26-.45c-2.53,0-2.54,3.94,0,3.94a1.8,1.8,0,0,0,1.8-1.32,1.85,1.85,0,0,0,1.23.43C57,54.91,57.05,51,54.55,51Z" transform="translate(5.58)"/><path class="cls-24" d="M63.06,48.37c-3.14,0-3.15,4.87,0,4.87S66.2,48.37,63.06,48.37Z" transform="translate(5.58)"/><path class="cls-24" d="M70.34,37.32c-3.75,0-3.75,5.81,0,5.81S74.09,37.32,70.34,37.32Z" transform="translate(5.58)"/><path class="cls-24" d="M66.46,43c-3.1,0-3.1,4.82,0,4.82S69.56,43,66.46,43Z" transform="translate(5.58)"/><path class="cls-24" d="M41.69,65a5.41,5.41,0,0,0-1.85.35,1.88,1.88,0,0,0-.52-3.18,1.94,1.94,0,0,0,1.47-1.87,1.94,1.94,0,0,0-3.88,0,2,2,0,0,0,1.37,1.84,1.82,1.82,0,0,0,.48,3.56,2.19,2.19,0,0,0,.36,0,4.81,4.81,0,0,0-1.26.92,4.05,4.05,0,0,0-1.12,1.74,4,4,0,0,0-.46,2.08,5.44,5.44,0,0,0,1.58,3.82,5.42,5.42,0,0,0,7.65,0,6,6,0,0,0,1.59-3.82,5.49,5.49,0,0,0-1.59-3.82A5.64,5.64,0,0,0,41.69,65Z" transform="translate(5.58)"/><path class="cls-24" d="M13.51,56.64h-.17a3.67,3.67,0,0,0,0-5.24,3.86,3.86,0,0,0-2.61-1.08,3.8,3.8,0,0,0-2.61,1.08A3.75,3.75,0,0,0,7.08,54s0,.11,0,.17c-2.83,0-2.83,4.37,0,4.37A2,2,0,0,0,9,57.25a3.87,3.87,0,0,0,1.14.4c-4,2.84-2.88,10.74,3.34,10.74C21.08,68.39,21.09,56.64,13.51,56.64Z" transform="translate(5.58)"/><path class="cls-24" d="M3.94,43.53a1.36,1.36,0,0,0,1.28.78,1.5,1.5,0,0,0,0-3H5.16a4.17,4.17,0,0,0,.21-1.46c0-.16,0-.32,0-.47A1.58,1.58,0,0,0,6.61,40a1.72,1.72,0,0,0,0-3.44A1.59,1.59,0,0,0,5,37.87,4.61,4.61,0,0,0,3.76,36a5.68,5.68,0,0,0-3.87-1.6A5.68,5.68,0,0,0-4,36a4.14,4.14,0,0,0-1.13,1.76,4.12,4.12,0,0,0-.47,2.11A5.51,5.51,0,0,0-4,43.71a5.7,5.7,0,0,0,3.87,1.6,5.64,5.64,0,0,0,3.87-1.6Z" transform="translate(5.58)"/><path class="cls-24" d="M12,41.55a2,2,0,1,0-2,2A2.06,2.06,0,0,0,12,41.55Z" transform="translate(5.58)"/><path class="cls-24" d="M5.09,50.78a1.25,1.25,0,0,0,0,2.5A1.25,1.25,0,0,0,5.09,50.78Z" transform="translate(5.58)"/><path class="cls-24" d="M.27,31.93a1.06,1.06,0,0,0,1.06-1.06A1.07,1.07,0,0,0,.27,29.81a1.06,1.06,0,0,0,0,2.12Z" transform="translate(5.58)"/><path class="cls-24" d="M12.8,28.5a2.82,2.82,0,0,0,3.3-.43l0,0a2.68,2.68,0,0,0,0-3.76l0,0a2.79,2.79,0,0,0-3-.57,2.71,2.71,0,0,0-1.67,2.49A2.83,2.83,0,0,0,12.8,28.5Z" transform="translate(5.58)"/><path class="cls-24" d="M6.31,20.66a2.47,2.47,0,0,0,2.45-2.45,2.5,2.5,0,0,0-2.45-2.45,2.45,2.45,0,1,0,0,4.9Z" transform="translate(5.58)"/><path class="cls-24" d="M66.52,25.5A4.59,4.59,0,0,0,64,29.66a1.84,1.84,0,1,0-1,3.4,1.68,1.68,0,0,0,1.54-.87,4.3,4.3,0,0,0,4,2.39c5.35,0,6-7.26,2-9.08,2.93-1.76,2.26-7.35-2-7.35S63.59,23.74,66.52,25.5Z" transform="translate(5.58)"/><path class="cls-24" d="M65.23,17.45a1.13,1.13,0,0,0,0-2.25A1.13,1.13,0,0,0,65.23,17.45Z" transform="translate(5.58)"/><path class="cls-24" d="M54.31,35.69a2.51,2.51,0,1,0,2.51-2.5A2.55,2.55,0,0,0,54.31,35.69Z" transform="translate(5.58)"/><path class="cls-24" d="M33.27,63c4.79,0,4.8-7.43,0-7.43S28.47,63,33.27,63Z" transform="translate(5.58)"/><path class="cls-24" d="M43.67,63.51c2.86,0,2.86-4.44,0-4.44S40.81,63.51,43.67,63.51Z" transform="translate(5.58)"/><path class="cls-24" d="M49.82,62.31c-2.82,0-2.82,4.38,0,4.38S52.64,62.31,49.82,62.31Z" transform="translate(5.58)"/><path class="cls-24" d="M22.78,54.07c-4.07,0-4.08,6.31,0,6.31S26.85,54.07,22.78,54.07Z" transform="translate(5.58)"/><path class="cls-24" d="M46.87,42a3.71,3.71,0,0,0-2.54,1,3.66,3.66,0,0,0-1,2.54,3.61,3.61,0,0,0,1,2.53,3.6,3.6,0,0,0,5.08,0,3.59,3.59,0,0,0,0-5.07A3.76,3.76,0,0,0,46.87,42Z" transform="translate(5.58)"/><path class="cls-24" d="M37,52.79a4.91,4.91,0,0,0,1.42,3.42,5,5,0,0,0,3.43,1.42,5,5,0,0,0,3.42-1.42,3.64,3.64,0,0,0,1-1.56,3.6,3.6,0,0,0,.41-1.86,4.86,4.86,0,0,0-1.42-3.43,4.86,4.86,0,0,0-6.85,0,3.61,3.61,0,0,0-1,1.56A3.55,3.55,0,0,0,37,52.79Z" transform="translate(5.58)"/><path class="cls-24" d="M47.36,55.45c-2.78,0-2.78,4.31,0,4.31S50.14,55.45,47.36,55.45Z" transform="translate(5.58)"/></g></g><path class="cls-25" d="M60.51,10.52A35.23,35.23,0,0,1,30,63.5,35.2,35.2,0,0,1,4.89,53,35.27,35.27,0,1,0,60.51,10.52Z" transform="translate(5.58)"/><path class="cls-26" d="M58.21,8.39a35,35,0,0,1,2.61,13.3A35.28,35.28,0,0,1,2.71,48.56,35.27,35.27,0,1,0,58.21,8.39Z" transform="translate(5.58)"/><path class="cls-27" d="M64.93,16A35.25,35.25,0,0,0,35.56,0h-.18c-.54,0-1.08,0-1.62,0l-.41,0c-.5,0-1,.07-1.49.12h-.11L30.2.38l-.42.07L28.45.68l-.23,0c-.49.1-1,.21-1.46.33l-.46.12c-.38.11-.77.21-1.15.33l-.35.1c-.45.14-.9.3-1.34.46L23,2.26l-1,.37-.47.2c-.41.17-.81.35-1.21.54l-.58.29c-.26.12-.5.25-.75.38l-.59.31L17.32,5l-.65.41c-.19.11-.37.23-.55.35-.48.31-1,.63-1.41,1l-.19.14-.73.55-.36.28c-.79.63-1.56,1.3-2.3,2l-.2.19c-.78.74-1.52,1.52-2.22,2.33l-.09.1c-.72.85-1.41,1.73-2.06,2.64a35.23,35.23,0,0,0,.57,41.45A35.18,35.18,0,0,1,5.85,20,17.93,17.93,0,0,0,39,10.59a17.72,17.72,0,0,0-2.28-8.71A35.22,35.22,0,0,1,64.93,16Z" transform="translate(5.58)"/><path class="cls-28" d="M64.17,14.88a35.27,35.27,0,0,1-58.11,40,35.27,35.27,0,1,0,58.11-40Z" transform="translate(5.58)"/><path class="cls-29" d="M.14,33.46A28.5,28.5,0,0,0,47.81,2.26,35.29,35.29,0,0,0,.14,33.46Z" transform="translate(5.58)"/><g class="cls-30"><ellipse class="cls-31" cx="31.86" cy="17.12" rx="15.29" ry="15.27"/></g><g class="cls-32"><g class="cls-33"><path class="cls-34" d="M37.84,21.44c2.18,6.25,8.23,5.7,7.72,12.15s-3.47,13.28,2.49,15,12,1.72,18.51-3c1.27-.93,2.54-2.9,3.76-5.48a35.67,35.67,0,0,0,.34-4.87A35.27,35.27,0,0,0,43.05.84C39.09,7.34,36.12,16.51,37.84,21.44Z" transform="translate(5.58)"/></g><g class="cls-35"><path class="cls-36" d="M36.94,56.59c-2.58-10.78-15.46-13.53-22.39-12.1C8.88,45.66,4.11,41.66.18,37.57a35.28,35.28,0,0,0,58.88,23.8C51.33,62.83,38.71,64,36.94,56.59Z" transform="translate(5.58)"/></g></g><g class="cls-37"><path class="cls-38" d="M67.52,20.57A35.31,35.31,0,0,1,0,35.79,35.3,35.3,0,1,0,67.52,20.57Z" transform="translate(5.58)"/></g><g class="cls-39"><path class="cls-40" d="M49.68,2.79a35.28,35.28,0,0,1-40,56.44,35.29,35.29,0,1,0,40-56.44Z" transform="translate(5.58)"/></g></g></g></g></svg>