<svg xmlns="http://www.w3.org/2000/svg" xmlns:xlink="http://www.w3.org/1999/xlink" viewBox="0 0 91.58 83.96"><defs><style>.cls-1{mask:url(#mask);}.cls-14,.cls-16,.cls-17,.cls-18,.cls-2,.cls-22,.cls-29,.cls-4,.cls-6,.cls-8{mix-blend-mode:multiply;}.cls-2{fill:url(#linear-gradient);}.cls-3{mask:url(#mask-2);}.cls-4{fill:url(#radial-gradient);}.cls-5{mask:url(#mask-3);}.cls-6{fill:url(#linear-gradient-2);}.cls-7{mask:url(#mask-4);}.cls-8{fill:url(#linear-gradient-3);}.cls-9{fill:none;}.cls-10{isolation:isolate;}.cls-11{clip-path:url(#clip-path);}.cls-12{fill:#eee9ff;}.cls-13{fill:#c8c6d3;opacity:0.71;}.cls-14{opacity:0.43;}.cls-15,.cls-16,.cls-17,.cls-18{fill:#e2e0e2;}.cls-16{opacity:0.46;}.cls-17{opacity:0.14;}.cls-18{opacity:0.67;}.cls-19,.cls-20{fill:#f0ddf1;}.cls-19{mix-blend-mode:overlay;opacity:0.65;}.cls-20,.cls-26,.cls-28{mix-blend-mode:screen;}.cls-20,.cls-28{opacity:0.22;}.cls-21{mask:url(#mask-6);}.cls-22,.cls-29{fill:url(#linear-gradient-5);}.cls-23{mask:url(#mask-7);}.cls-24{mix-blend-mode:color-dodge;opacity:0.68;fill:url(#radial-gradient-2);}.cls-25{mask:url(#mask-8);}.cls-26{opacity:0.29;fill:url(#linear-gradient-6);}.cls-27{mask:url(#mask-9);}.cls-28{fill:url(#linear-gradient-7);}.cls-29{opacity:0.81;}.cls-30{filter:url(#luminosity-noclip-9);}.cls-31{filter:url(#luminosity-noclip-8);}.cls-32{filter:url(#luminosity-noclip-7);}.cls-33{filter:url(#luminosity-noclip-6);}.cls-34{filter:url(#luminosity-noclip-4);}.cls-35{filter:url(#luminosity-noclip-3);}.cls-36{filter:url(#luminosity-noclip-2);}.cls-37{filter:url(#luminosity-noclip);}</style><filter id="luminosity-noclip" x="0" y="-8313.19" width="83.75" height="32766" filterUnits="userSpaceOnUse" color-interpolation-filters="sRGB"><feFlood flood-color="#fff" result="bg"/><feBlend in="SourceGraphic" in2="bg"/></filter><mask id="mask" x="0" y="-8313.19" width="83.75" height="32766" maskUnits="userSpaceOnUse"><g class="cls-37"/></mask><linearGradient id="linear-gradient" x1="12.27" y1="12.27" x2="71.49" y2="71.49" gradientUnits="userSpaceOnUse"><stop offset="0"/><stop offset="0.03" stop-color="#0d0d0d"/><stop offset="0.19" stop-color="#4c4c4c"/><stop offset="0.35" stop-color="#838383"/><stop offset="0.5" stop-color="#afafaf"/><stop offset="0.64" stop-color="#d2d2d2"/><stop offset="0.78" stop-color="#ebebeb"/><stop offset="0.9" stop-color="#fafafa"/><stop offset="1" stop-color="#fff"/></linearGradient><filter id="luminosity-noclip-2" x="9.01" y="-8313.19" width="36.5" height="32766" filterUnits="userSpaceOnUse" color-interpolation-filters="sRGB"><feFlood flood-color="#fff" result="bg"/><feBlend in="SourceGraphic" in2="bg"/></filter><mask id="mask-2" x="9.01" y="-8313.19" width="36.5" height="32766" maskUnits="userSpaceOnUse"><g class="cls-36"/></mask><radialGradient id="radial-gradient" cx="27.26" cy="23.04" r="18.25" gradientTransform="translate(4.02 -4.05) rotate(9.16)" gradientUnits="userSpaceOnUse"><stop offset="0" stop-color="#fff"/><stop offset="0.1" stop-color="#fafafa"/><stop offset="0.22" stop-color="#eaeaea"/><stop offset="0.36" stop-color="#d0d0d0"/><stop offset="0.51" stop-color="#adadad"/><stop offset="0.66" stop-color="#7f7f7f"/><stop offset="0.82" stop-color="#474747"/><stop offset="0.99" stop-color="#050505"/><stop offset="1"/></radialGradient><filter id="luminosity-noclip-3" x="0.01" y="-8313.19" width="83.65" height="32766" filterUnits="userSpaceOnUse" color-interpolation-filters="sRGB"><feFlood flood-color="#fff" result="bg"/><feBlend in="SourceGraphic" in2="bg"/></filter><mask id="mask-3" x="0.01" y="-8313.19" width="83.65" height="32766" maskUnits="userSpaceOnUse"><g class="cls-35"/></mask><linearGradient id="linear-gradient-2" x1="16.01" y1="-156.16" x2="48.11" y2="-106.74" gradientTransform="translate(-29.39 167.46) rotate(19.52)" gradientUnits="userSpaceOnUse"><stop offset="0.24"/><stop offset="0.38" stop-color="#030303"/><stop offset="0.48" stop-color="#0d0d0d"/><stop offset="0.56" stop-color="#1d1d1d"/><stop offset="0.65" stop-color="#343434"/><stop offset="0.73" stop-color="#515151"/><stop offset="0.8" stop-color="#767676"/><stop offset="0.87" stop-color="#a1a1a1"/><stop offset="0.94" stop-color="#d1d1d1"/><stop offset="1" stop-color="#fff"/></linearGradient><filter id="luminosity-noclip-4" x="11.47" y="-8313.19" width="72.27" height="32766" filterUnits="userSpaceOnUse" color-interpolation-filters="sRGB"><feFlood flood-color="#fff" result="bg"/><feBlend in="SourceGraphic" in2="bg"/></filter><mask id="mask-4" x="11.47" y="-8313.19" width="72.27" height="32766" maskUnits="userSpaceOnUse"><g class="cls-34"/></mask><linearGradient id="linear-gradient-3" x1="-26.39" y1="231.77" x2="5.71" y2="281.19" gradientTransform="matrix(0.92, -0.38, 0.38, 0.92, -36.12, -191.73)" xlink:href="#linear-gradient-2"/><clipPath id="clip-path" transform="translate(3.58)"><circle class="cls-9" cx="41.88" cy="42.08" r="41.88" transform="translate(-12.79 65.23) rotate(-68.09)"/></clipPath><filter id="luminosity-noclip-6" x="0" y="0" width="83.75" height="83.75" filterUnits="userSpaceOnUse" color-interpolation-filters="sRGB"><feFlood flood-color="#fff" result="bg"/><feBlend in="SourceGraphic" in2="bg"/></filter><mask id="mask-6" x="3.58" y="0" width="83.75" height="83.75" maskUnits="userSpaceOnUse"><g class="cls-33"><g transform="translate(3.58)"><g class="cls-1"><circle class="cls-2" cx="41.88" cy="41.88" r="41.88"/></g></g></g></mask><linearGradient id="linear-gradient-5" x1="15.84" y1="12.27" x2="75.07" y2="71.49" gradientUnits="userSpaceOnUse"><stop offset="0" stop-color="#fff"/><stop offset="0.03" stop-color="#f9fafa"/><stop offset="0.25" stop-color="#cdd2d2"/><stop offset="0.46" stop-color="#abb3b3"/><stop offset="0.66" stop-color="#929d9d"/><stop offset="0.85" stop-color="#839090"/><stop offset="1" stop-color="#7e8b8b"/></linearGradient><filter id="luminosity-noclip-7" x="9.01" y="4.79" width="36.5" height="36.5" filterUnits="userSpaceOnUse" color-interpolation-filters="sRGB"><feFlood flood-color="#fff" result="bg"/><feBlend in="SourceGraphic" in2="bg"/></filter><mask id="mask-7" x="12.59" y="4.79" width="36.5" height="36.5" maskUnits="userSpaceOnUse"><g class="cls-32"><g transform="translate(3.58)"><g class="cls-3"><circle class="cls-4" cx="27.26" cy="23.04" r="18.25" transform="translate(-3.32 4.64) rotate(-9.16)"/></g></g></g></mask><radialGradient id="radial-gradient-2" cx="27.26" cy="23.04" r="18.25" gradientTransform="translate(4.02 -4.05) rotate(9.16)" gradientUnits="userSpaceOnUse"><stop offset="0" stop-color="#ececec"/><stop offset="0.47" stop-color="#f1f1f1"/><stop offset="1" stop-color="#fff"/></radialGradient><filter id="luminosity-noclip-8" x="0.01" y="24.97" width="83.65" height="58.91" filterUnits="userSpaceOnUse" color-interpolation-filters="sRGB"><feFlood flood-color="#fff" result="bg"/><feBlend in="SourceGraphic" in2="bg"/></filter><mask id="mask-8" x="3.59" y="24.97" width="83.65" height="58.91" maskUnits="userSpaceOnUse"><g class="cls-31"><g transform="translate(3.58)"><g class="cls-5"><path class="cls-6" d="M80,25A41.81,41.81,0,0,1,0,43,41.82,41.82,0,1,0,80,25Z"/></g></g></g></mask><linearGradient id="linear-gradient-6" x1="16.01" y1="-156.16" x2="48.11" y2="-106.74" gradientTransform="translate(-29.39 167.46) rotate(19.52)" gradientUnits="userSpaceOnUse"><stop offset="0.24" stop-color="#fff"/><stop offset="0.92" stop-color="#fff"/><stop offset="1" stop-color="#fff"/></linearGradient><filter id="luminosity-noclip-9" x="11.47" y="3.9" width="72.27" height="80.06" filterUnits="userSpaceOnUse" color-interpolation-filters="sRGB"><feFlood flood-color="#fff" result="bg"/><feBlend in="SourceGraphic" in2="bg"/></filter><mask id="mask-9" x="15.05" y="3.9" width="72.27" height="80.06" maskUnits="userSpaceOnUse"><g class="cls-30"><g transform="translate(3.58)"><g class="cls-7"><path class="cls-8" d="M58.86,3.9A41.81,41.81,0,0,1,11.47,70.81,41.82,41.82,0,1,0,58.86,3.9Z"/></g></g></g></mask><linearGradient id="linear-gradient-7" x1="-26.39" y1="231.77" x2="5.71" y2="281.19" gradientTransform="matrix(0.92, -0.38, 0.38, 0.92, -36.12, -191.73)" xlink:href="#linear-gradient-6"/></defs><g class="cls-10"><g id="Layer_2" data-name="Layer 2"><g id="Layer_1-2" data-name="Layer 1"><g class="cls-11"><circle class="cls-12" cx="41.88" cy="42.08" r="41.88" transform="translate(-9.21 65.23) rotate(-68.09)"/><path class="cls-13" d="M68.57,14.85c.2,2.14-1.21,4-1.84,6.1a2.25,2.25,0,0,0,.07,1.85,2.41,2.41,0,0,0,1.32.81c2.95,1,6.45,1.95,7.57,4.85.65,1.68.39,3.87,1.81,5s3.88.11,5.32-1.27A8.78,8.78,0,0,0,85.71,27a12,12,0,0,0-1.33-5.75c-2.45-5.91-5-12-9.44-16.56-3-3.13-7.89,3.15-9.91,5.08C66.64,11.14,68.36,12.74,68.57,14.85Z" transform="translate(3.58)"/><path class="cls-13" d="M70.15,35a.47.47,0,0,0,.28.09c4.2.34,3-8,.06-9.12-1.85-.7-3.31.87-3.24,2.68.1,2.29,2.27,3.83,2.75,6A.54.54,0,0,0,70.15,35Z" transform="translate(3.58)"/><path class="cls-13" d="M76.1,45.33a1.38,1.38,0,0,0,1.56.14,4.79,4.79,0,0,0,2.94-4.55c-.15-3.33-4.47-6.25-7.06-3.29a3.08,3.08,0,0,0-.16,3.88c.5.59,1.24,1,1.71,1.56a6,6,0,0,1,.75,1.74A1.41,1.41,0,0,0,76.1,45.33Z" transform="translate(3.58)"/><path class="cls-13" d="M69.89,55.68c.47.32,1.21.16,1.55.62s.09,1.06.49,1.36.85,0,1.17-.32a5.6,5.6,0,0,0,1.68-3.81,1.69,1.69,0,0,0-.1-.74,3.75,3.75,0,0,0-1.24-1.27,2.15,2.15,0,0,0-2.18.22,4.92,4.92,0,0,0-1.43,1.79C69.47,54.23,69.23,55.24,69.89,55.68Z" transform="translate(3.58)"/><path class="cls-13" d="M59.88,51.54a3.75,3.75,0,0,0,3.19-.08,7.71,7.71,0,0,1,2.06-1.05l.18,0c.78-.06,1.59.29,2.34.06a2,2,0,0,0,1.09-2.59c-1-2.67-5-2.73-7.15-1.8C59.88,46.77,56.88,50.21,59.88,51.54Z" transform="translate(3.58)"/><path class="cls-13" d="M64.7,53.61a1.24,1.24,0,0,0-.21,1.06,1.09,1.09,0,0,0,.62.59,1.55,1.55,0,0,0,1.25-2.84A2.8,2.8,0,0,0,64.7,53.61Z" transform="translate(3.58)"/><path class="cls-13" d="M65.94,52.27a1.24,1.24,0,0,1,.42.15,1.41,1.41,0,0,1,.22-.06Z" transform="translate(3.58)"/><path class="cls-13" d="M83.83,48.68a5.6,5.6,0,0,0-2.84,1A4,4,0,0,0,79.23,52a17.3,17.3,0,0,0,0,2.39C79,57,76,59,76.45,61.52a5.2,5.2,0,0,0,1.93,2.77,5.48,5.48,0,0,0,3.1,1.58,4.23,4.23,0,0,0,3-1.29,7,7,0,0,0,2.07-3.85c.2-1.15.1-2.33.25-3.49s.61-2.42.71-3.66C87.72,51.27,86.43,48.58,83.83,48.68Z" transform="translate(3.58)"/><path class="cls-13" d="M70.66,60.76a4.39,4.39,0,0,0-4.94.93,6.44,6.44,0,0,0-1.06,2.44c-.26.93-.52,1.86-.77,2.79a2.24,2.24,0,0,0-.12,1.14c.26,1.16,1.88,1.25,2.83,2a3.13,3.13,0,0,1,1.06,2.35A14,14,0,0,1,67.38,75a2.75,2.75,0,0,0,.28,2,2,2,0,0,0,1.78.67,6,6,0,0,0,1.88-.62A14.3,14.3,0,0,0,74.89,75a4.82,4.82,0,0,0,1.79-3.6,7,7,0,0,0-.58-2.32C74.79,65.63,74.49,62.3,70.66,60.76Z" transform="translate(3.58)"/><path class="cls-13" d="M61.5,59.85a1.28,1.28,0,0,0-.8-.06,13.34,13.34,0,0,0-4.4,2l.59-.21A2.9,2.9,0,0,0,55.6,62.7a2.27,2.27,0,0,0,.1,2.5,1.78,1.78,0,0,0,2.38.37,6.45,6.45,0,0,0,1-1.38,12.7,12.7,0,0,1,1.82-1.61,2.35,2.35,0,0,0,1-2.11A.93.93,0,0,0,61.5,59.85Z" transform="translate(3.58)"/><path class="cls-13" d="M40.93,9.29a2.12,2.12,0,0,1,.87,0c.79.27.83,1.39,1.37,2a2,2,0,0,0,2.39.32c3.83-2,.5-6.91-2.77-7.16S35.18,9.87,40.93,9.29Z" transform="translate(3.58)"/><path class="cls-13" d="M34.67,29.42a18.31,18.31,0,0,0,2.8-3.16,5.68,5.68,0,0,0,1.24-3.11c0-1.92-1.56-3.46-3.14-4.56A8.14,8.14,0,0,0,31,16.82a16.43,16.43,0,0,0-3.16.59c-1.76.36-3.57.32-5.33.66a7.44,7.44,0,0,0-3.39,1.5,15,15,0,0,0-6.87,7,5.6,5.6,0,0,0-.53,4.18c.92,2.51,4.38,3.18,5.66,5.53,1.13,2.05.32,4.93,1.89,6.68s4.25,1.24,6.4.49c3-1.06,6.29-2.9,6.85-6,.37-2.1-.56-4.46.54-6.29A7.9,7.9,0,0,1,34.67,29.42Z" transform="translate(3.58)"/><path class="cls-13" d="M21.57,12.07A2.75,2.75,0,0,0,20,14.56l3.6-.13a2.28,2.28,0,0,0,1-.2,1.42,1.42,0,0,0,.28-2.07,2.32,2.32,0,0,0-2.18-.66,6.59,6.59,0,0,0-2.18.94Z" transform="translate(3.58)"/><path class="cls-13" d="M12.74,19c-.18.62.2,1.43.85,1.44a1.63,1.63,0,0,0,.94-.45l2.15-1.71a1.36,1.36,0,0,0,.53-.66.83.83,0,0,0-.57-.89,1.61,1.61,0,0,0-1.12.06,7,7,0,0,0-2.57,2l1-1.24A3.09,3.09,0,0,0,12.74,19Z" transform="translate(3.58)"/><path class="cls-13" d="M65.93,41a1.14,1.14,0,0,0,0-2.28A1.14,1.14,0,0,0,65.93,41Z" transform="translate(3.58)"/><path class="cls-13" d="M66.09,36.27a1.46,1.46,0,0,0,0-2.92A1.46,1.46,0,0,0,66.09,36.27Z" transform="translate(3.58)"/><path class="cls-13" d="M59.05,43.24c2.52-1.54,4.39-4,3.6-7.24-.45-1.82-1.94-3.49-3.93-2.64s-2.44,3.09-2.56,5c-.09,1.62-.74,2-1.79,3.06A4.92,4.92,0,0,0,53,43.59a2.38,2.38,0,0,0,2.47,3.1C57,46.48,58.13,44.71,59.05,43.24Z" transform="translate(3.58)"/><path class="cls-13" d="M62.58,55.29a6.93,6.93,0,0,0-3.39-.68,2.84,2.84,0,0,0-.41,0c-1.17.09-2.52.73-2.58,2.07a2,2,0,0,0,2.09,2.08,4.25,4.25,0,0,0,1.56-.45,6.39,6.39,0,0,1,2-.42C63.12,57.84,64,55.88,62.58,55.29Z" transform="translate(3.58)"/><path class="cls-13" d="M56.44,53.3a1.24,1.24,0,0,0,.71-.42,1,1,0,0,0-.69-1.66,1.17,1.17,0,0,0-1.19.91A1,1,0,0,0,56.44,53.3Z" transform="translate(3.58)"/><path class="cls-13" d="M42.18,34.71c1.09-1.38,2.54-2.88,1.85-4.78s-2.91-2.24-4.51-1.49a6.83,6.83,0,0,0-3.42,4.1,3,3,0,0,0-.1.93,2.43,2.43,0,0,0-.14.48,2.82,2.82,0,0,0,1.91,3.47C39.82,37.9,41.08,36.09,42.18,34.71Z" transform="translate(3.58)"/><path class="cls-13" d="M35.89,41.71a1.1,1.1,0,0,0,.31-.36l0-.09a1.56,1.56,0,0,0,.45-1.54,1.31,1.31,0,0,0-1.62-.92,2,2,0,0,0-1.48,2.31A1.39,1.39,0,0,0,35.89,41.71Z" transform="translate(3.58)"/><path class="cls-13" d="M46.49,37.42a1.94,1.94,0,0,0-2.62-.84c-1.13.54-1.83,1.72-2.64,2.62-.12.14-.25.25-.38.38h-.07c-1.85.35-4.26,3.28-1.64,4.48,1.33.6,2.44-.28,3.46-1.06a21.61,21.61,0,0,0,3.18-2.54A2.81,2.81,0,0,0,46.49,37.42Z" transform="translate(3.58)"/><path class="cls-13" d="M6.75,14.74c2.74,1.09,6,1.52,8.61-.09,2.16-1.32,4.57-4.24,4.69-6.91a3.37,3.37,0,0,0-.29-4.57,1.87,1.87,0,0,0-2.84.29,4.31,4.31,0,0,0-2.25,1,86.48,86.48,0,0,0-7.2,6.87,1.86,1.86,0,0,0-.94,1.11,1.8,1.8,0,0,0-.06,1.4A.58.58,0,0,0,6.75,14.74Z" transform="translate(3.58)"/><path class="cls-13" d="M15.73,43.21a14.7,14.7,0,0,1-.31-2.08,4.9,4.9,0,0,0-.09-1.21,2.52,2.52,0,0,0-3.11-1.43,3.61,3.61,0,0,0-.46.17c-.57-.16-1.08.38-1.42.91A13.64,13.64,0,0,0,9.19,40.7l.9-.7A7.29,7.29,0,0,0,9,42.8a2.7,2.7,0,0,0,1.41,2.78l.24.07A4.8,4.8,0,0,0,13,49.09,1.11,1.11,0,0,0,14.4,50a2.56,2.56,0,0,0,1.51-1.21,3,3,0,0,0,1-1.93c.15-1.4-.56-2.33-1.12-3.54Z" transform="translate(3.58)"/><path class="cls-13" d="M40.8,23c.38,1.08,2.08,1.56,2.67.35A3.43,3.43,0,0,0,43.74,21c0-.05,0-.1,0-.15a2.84,2.84,0,0,0-1.29-3.11A1.65,1.65,0,0,0,40,19.32a4,4,0,0,0,.55,1.53l.21.37a1.68,1.68,0,0,0,0,.27A2.82,2.82,0,0,0,40.8,23Z" transform="translate(3.58)"/><path class="cls-13" d="M9.63,48.59a2.21,2.21,0,0,0-3.3,1.24,7.34,7.34,0,0,0,0,4.77c.2,2.49,1.22,4.88,3.63,5.63a2.91,2.91,0,0,0,3.6-1.63c.69-2-1.37-3.35-2.26-4.87S11.4,49.79,9.63,48.59Z" transform="translate(3.58)"/><path class="cls-13" d="M6.06,47.25a2.09,2.09,0,0,0,2.31-1.8A2.18,2.18,0,0,0,8,43.9c-.29-.44-.75-.71-.78-1.28,0-.93-1.29-1.64-2-.83A5.55,5.55,0,0,0,4,44.09c-.2.81-.14,2,.66,2.46a.67.67,0,0,0,.18.07A2.09,2.09,0,0,0,6.06,47.25Z" transform="translate(3.58)"/><path class="cls-13" d="M8.09,37.43c-.42.06-.6.39-.74.74a.84.84,0,0,0,.5,1,.85.85,0,0,0,1.07-.35,1,1,0,0,0,0-1A.81.81,0,0,0,8.09,37.43Z" transform="translate(3.58)"/><path class="cls-13" d="M6.94,32.72c.42-3.72-2.82-6.5-5.41-8.6-.71-.57-1.82.14-1.32,1l.08.13A1.62,1.62,0,0,0-1.39,27c.06.42.1.83.13,1.24A41.86,41.86,0,0,0-3.53,35a1.41,1.41,0,0,0,.94,1.76,22.53,22.53,0,0,0-.16,7.6c0,.16,0,.32.07.48.3,2.08,3.36,1.4,3.48-.47.22-3.29,1.76-5,3.83-7.3A8.18,8.18,0,0,0,6.94,32.72Z" transform="translate(3.58)"/><path class="cls-13" d="M3.35,23.1a9.9,9.9,0,0,1,3.71,3,1.71,1.71,0,0,0,2.25.59l.06,0a1.51,1.51,0,0,0,.54-.26,1.6,1.6,0,0,0,.41-2,4,4,0,0,0-.68-1c-1.47-2.1-3.81-5-6.29-3.14C2.45,21,2.15,22.51,3.35,23.1Z" transform="translate(3.58)"/><path class="cls-13" d="M9.88,17.6c-.11.08-.22.16-.31.24a.61.61,0,0,0-.12.05,1.18,1.18,0,0,0-.52.73,1.54,1.54,0,0,0-.13.81,1.15,1.15,0,0,0,.09.33,1.52,1.52,0,0,0,0,.21.84.84,0,0,0,1,.57,1.89,1.89,0,0,0,1.32-1.07,1.41,1.41,0,0,0,0-1A.92.92,0,0,0,9.88,17.6Z" transform="translate(3.58)"/><path class="cls-13" d="M11.38,35.76a1.5,1.5,0,0,0,.81-2.09,11.51,11.51,0,0,0-1.78-2.52,1,1,0,0,0-1.89.8,1.67,1.67,0,0,0,.56,1C9,34.43,9.8,36.22,11.38,35.76Z" transform="translate(3.58)"/><path class="cls-13" d="M75.8,47.24a2.33,2.33,0,0,0-1.54-2,5.11,5.11,0,0,1-2.09-1.73,1.19,1.19,0,0,0-2.19.59,4,4,0,0,0,1.35,3.08A3.25,3.25,0,0,0,74,48.24a3.13,3.13,0,0,0,.76.06A1.08,1.08,0,0,0,75.8,47.24Z" transform="translate(3.58)"/><path class="cls-13" d="M87.63,40.42a1.42,1.42,0,0,0,.37-.91,11.27,11.27,0,0,0-.25-2.59A1.19,1.19,0,0,0,87,36c0-.13-.07-.26-.11-.38a1.33,1.33,0,0,0-1.57-1,1.26,1.26,0,0,0-1.46.22.74.74,0,0,0-.86.17c-1.33,1.28-1.19,3.46-.81,5.14a4.48,4.48,0,0,0,3.23,3.62,1.22,1.22,0,0,0,1.48-1.49,1.12,1.12,0,0,0-.05-.13l.26-.16a1.28,1.28,0,0,0,.48-1.54S87.63,40.45,87.63,40.42Z" transform="translate(3.58)"/><path class="cls-13" d="M44.52,65.49c-.7-1.42-1.26-3.12-2.78-3.87a2.76,2.76,0,0,0-3.25.53,3.35,3.35,0,0,0-.66,3A5.47,5.47,0,0,0,38,68.43a6.71,6.71,0,0,0,5.4,4.14c1.66,1.34,4.21,2.07,5.67.39,1-1.14.18-2.86-.72-3.81C47.09,67.78,45.4,67.29,44.52,65.49Z" transform="translate(3.58)"/><path class="cls-13" d="M45.59,62.27c-1.37.38-1.21,2.19-.34,3a1.9,1.9,0,0,0,1.67.52,1.57,1.57,0,0,0,1-1.51,1.94,1.94,0,0,0-1.36-1.84A1.13,1.13,0,0,0,45.59,62.27Z" transform="translate(3.58)"/><path class="cls-13" d="M34.85,64.05a1.44,1.44,0,0,0-1.09,1.29,1.78,1.78,0,0,0,1.31,1.83,1,1,0,0,0,1-.27,2.63,2.63,0,0,0,.57-2.36A1.11,1.11,0,0,0,34.85,64.05Z" transform="translate(3.58)"/><g class="cls-14"><path class="cls-15" d="M50.35,31.54C55.94,22,49.27,6.39,37.82,5.69c-4.77-.3-8.71,1.93-12.36,4.64a29.29,29.29,0,0,0-6.77,5c-5.6,5.53-11.51,15-9.73,23.24C11.12,48.48,22.67,51.25,30.87,47c3.52-1.85,6.14-4.9,9.23-7.3C43.54,37,48.05,35.47,50.35,31.54Z" transform="translate(3.58)"/><path class="cls-15" d="M68.89,32.59c-7,0-9.75,5.55-11.73,11.17a43.26,43.26,0,0,1-5.87,4.85C46.38,51.88,40.35,54.67,39,61c-1.83,8.41,5.75,13.44,13.28,12.71,6.66-.64,12.49-4.7,17.43-8.95a27.2,27.2,0,0,0,9.46-16.11C80.3,41.47,77.57,32.62,68.89,32.59Z" transform="translate(3.58)"/></g></g><path class="cls-16" d="M63.93,57.18a51.34,51.34,0,0,0-3.86,5.88c-2.22,4.2-3.56,8.81-5.85,13a21.34,21.34,0,0,1-6.57,7.52A41.87,41.87,0,1,0,31.83,1.43a17.31,17.31,0,0,0-.72,5.68A15.13,15.13,0,0,0,39.6,19.73c3.94,2,7.85,1.24,12,1.91a21,21,0,0,1,10.47,4.43c7.38,6.31,9,16.36,5.39,25.15A30.31,30.31,0,0,1,63.93,57.18Z" transform="translate(3.58)"/><path class="cls-16" d="M29.33,76.78c-4.43-5-7.17-12-5.43-18.44,1.53-5.67,6.28-10.22,7.09-16a12.75,12.75,0,0,0-4.62-11.56C24,28.86,21,27.87,18.72,25.82c-3.6-3.29-4.47-8.84-3.09-13.52A19.27,19.27,0,0,1,17.53,8,41.87,41.87,0,0,0,37.62,83.74,41.62,41.62,0,0,1,29.33,76.78Z" transform="translate(3.58)"/><path class="cls-17" d="M64.45,6.82A41.9,41.9,0,0,1,23.4,57,41.68,41.68,0,0,1,.82,50.36,41.88,41.88,0,1,0,64.45,6.82Z" transform="translate(3.58)"/><path class="cls-18" d="M72.94,14A41.88,41.88,0,0,1,4.11,60.18,41.88,41.88,0,1,0,72.94,14Z" transform="translate(3.58)"/><path class="cls-19" d="M41.88.2a41.68,41.68,0,0,0-7,.6l-.39.07c-.71.13-1.41.27-2.11.43L32,1.39a40.32,40.32,0,0,0-7,2.37l-.35.15c-.64.29-1.26.59-1.88.91L22.44,5a41.3,41.3,0,0,0-4.2,2.52c-.65.45-1.28.91-1.9,1.39L16,9.15c-.53.42-1,.85-1.57,1.3l-.29.25a44.67,44.67,0,0,0-3.46,3.42c-.52.59-1,1.19-1.51,1.8a3.92,3.92,0,0,0-.25.32c-.42.53-.83,1.07-1.22,1.62l-.23.33a42.93,42.93,0,0,0-2.56,4.16,41.91,41.91,0,0,0,6,47.9,41.86,41.86,0,0,1-3.66-45.9A19.87,19.87,0,0,0,39,8.4a19.64,19.64,0,0,0-.74-5.35,43.15,43.15,0,0,1,5.72-.39,41.75,41.75,0,0,1,31,13.7A41.79,41.79,0,0,0,41.88.2Z" transform="translate(3.58)"/><path class="cls-20" d="M.69,34.53A29.76,29.76,0,0,0,49.67.94a41.82,41.82,0,0,0-49,33.59Z" transform="translate(3.58)"/><g class="cls-21"><circle class="cls-22" cx="45.45" cy="41.88" r="41.88"/></g><g class="cls-23"><circle class="cls-24" cx="27.26" cy="23.04" r="18.25" transform="translate(0.26 4.64) rotate(-9.16)"/></g><g class="cls-25"><path class="cls-26" d="M80,25A41.81,41.81,0,0,1,0,43,41.82,41.82,0,1,0,80,25Z" transform="translate(3.58)"/></g><g class="cls-27"><path class="cls-28" d="M58.86,3.9A41.81,41.81,0,0,1,11.47,70.81,41.82,41.82,0,1,0,58.86,3.9Z" transform="translate(3.58)"/></g><g class="cls-21"><circle class="cls-29" cx="45.45" cy="41.88" r="41.88"/></g></g></g></g></svg>