<svg xmlns="http://www.w3.org/2000/svg" xmlns:xlink="http://www.w3.org/1999/xlink" viewBox="0 0 70.62 70.56"><defs><style>.cls-1{mask:url(#mask);filter:url(#luminosity-noclip-6);}.cls-10,.cls-16,.cls-17,.cls-19,.cls-2,.cls-22,.cls-4,.cls-6,.cls-8{mix-blend-mode:multiply;}.cls-2{fill:url(#linear-gradient);}.cls-3{mask:url(#mask-2);filter:url(#luminosity-noclip-7);}.cls-4{fill:url(#linear-gradient-2);}.cls-5{mask:url(#mask-3);filter:url(#luminosity-noclip-8);}.cls-6{fill:url(#radial-gradient);}.cls-7{mask:url(#mask-4);filter:url(#luminosity-noclip-9);}.cls-8{fill:url(#linear-gradient-3);}.cls-9{mask:url(#mask-5);filter:url(#luminosity-noclip-10);}.cls-10{fill:url(#linear-gradient-4);}.cls-11{isolation:isolate;}.cls-12,.cls-16{fill:#4fb3ff;}.cls-13{fill:#41aaf9;}.cls-14{fill:#2ba1f9;}.cls-15{fill:#70c1ff;}.cls-16{opacity:0.42;}.cls-17{fill:#4398d8;}.cls-17,.cls-19{opacity:0.26;}.cls-18{fill:#9dbeff;opacity:0.35;}.cls-18,.cls-24{mix-blend-mode:overlay;}.cls-19{fill:#6399c3;}.cls-20{fill:#fff;mix-blend-mode:lighten;opacity:0.28;}.cls-21{mask:url(#mask-6);}.cls-22{fill:url(#linear-gradient-5);}.cls-23{mask:url(#mask-7);}.cls-24{opacity:0.6;fill:url(#linear-gradient-6);}.cls-25{mask:url(#mask-8);}.cls-26{opacity:0.48;fill:url(#radial-gradient-2);}.cls-27{mask:url(#mask-9);}.cls-28,.cls-30{mix-blend-mode:screen;}.cls-28{opacity:0.49;fill:url(#linear-gradient-7);}.cls-29{mask:url(#mask-10);}.cls-30{opacity:0.15;fill:url(#linear-gradient-8);}.cls-31{filter:url(#luminosity-noclip-5);}.cls-32{filter:url(#luminosity-noclip-4);}.cls-33{filter:url(#luminosity-noclip-3);}.cls-34{filter:url(#luminosity-noclip-2);}.cls-35{filter:url(#luminosity-noclip);}</style><filter id="luminosity-noclip" x="0.01" y="-7926.94" width="70.55" height="32766" filterUnits="userSpaceOnUse" color-interpolation-filters="sRGB"><feFlood flood-color="#fff" result="bg"/><feBlend in="SourceGraphic" in2="bg"/></filter><mask id="mask" x="0.01" y="-7926.94" width="70.55" height="32766" maskUnits="userSpaceOnUse"><g class="cls-35"/></mask><linearGradient id="linear-gradient" x1="10.34" y1="10.34" x2="60.22" y2="60.22" gradientTransform="translate(35.28 -14.61) rotate(45)" gradientUnits="userSpaceOnUse"><stop offset="0"/><stop offset="1" stop-color="#fff"/></linearGradient><filter id="luminosity-noclip-2" x="0" y="-7926.94" width="70.56" height="32766" filterUnits="userSpaceOnUse" color-interpolation-filters="sRGB"><feFlood flood-color="#fff" result="bg"/><feBlend in="SourceGraphic" in2="bg"/></filter><mask id="mask-2" x="0" y="-7926.94" width="70.56" height="32766" maskUnits="userSpaceOnUse"><g class="cls-34"/></mask><linearGradient id="linear-gradient-2" x1="36.5" y1="-456.92" x2="86.38" y2="-407.04" gradientTransform="translate(315.37 -299.25) rotate(-148.16)" gradientUnits="userSpaceOnUse"><stop offset="0"/><stop offset="1" stop-color="#fff"/></linearGradient><filter id="luminosity-noclip-3" x="13.17" y="-7926.94" width="25.5" height="32766" filterUnits="userSpaceOnUse" color-interpolation-filters="sRGB"><feFlood flood-color="#fff" result="bg"/><feBlend in="SourceGraphic" in2="bg"/></filter><mask id="mask-3" x="13.17" y="-7926.94" width="25.5" height="32766" maskUnits="userSpaceOnUse"><g class="cls-33"/></mask><radialGradient id="radial-gradient" cx="25.92" cy="15.95" r="12.75" gradientUnits="userSpaceOnUse"><stop offset="0" stop-color="#fff"/><stop offset="0.26" stop-color="#fdfdfd"/><stop offset="0.4" stop-color="#f5f5f5"/><stop offset="0.5" stop-color="#e7e7e7"/><stop offset="0.6" stop-color="#d4d4d4"/><stop offset="0.68" stop-color="#bbb"/><stop offset="0.76" stop-color="#9c9c9c"/><stop offset="0.83" stop-color="#787878"/><stop offset="0.9" stop-color="#4d4d4d"/><stop offset="0.96" stop-color="#1f1f1f"/><stop offset="1"/></radialGradient><filter id="luminosity-noclip-4" x="0.01" y="-7926.94" width="70.54" height="32766" filterUnits="userSpaceOnUse" color-interpolation-filters="sRGB"><feFlood flood-color="#fff" result="bg"/><feBlend in="SourceGraphic" in2="bg"/></filter><mask id="mask-4" x="0.01" y="-7926.94" width="70.54" height="32766" maskUnits="userSpaceOnUse"><g class="cls-32"/></mask><linearGradient id="linear-gradient-3" x1="159.83" y1="-53.97" x2="186.9" y2="-12.29" gradientTransform="translate(-136.72 18.82) rotate(19.52)" gradientUnits="userSpaceOnUse"><stop offset="0.24"/><stop offset="0.38" stop-color="#030303"/><stop offset="0.48" stop-color="#0d0d0d"/><stop offset="0.56" stop-color="#1d1d1d"/><stop offset="0.65" stop-color="#343434"/><stop offset="0.73" stop-color="#515151"/><stop offset="0.8" stop-color="#767676"/><stop offset="0.87" stop-color="#a1a1a1"/><stop offset="0.94" stop-color="#d1d1d1"/><stop offset="1" stop-color="#fff"/></linearGradient><filter id="luminosity-noclip-5" x="9.68" y="-7926.94" width="60.95" height="32766" filterUnits="userSpaceOnUse" color-interpolation-filters="sRGB"><feFlood flood-color="#fff" result="bg"/><feBlend in="SourceGraphic" in2="bg"/></filter><mask id="mask-5" x="9.68" y="-7926.94" width="60.95" height="32766" maskUnits="userSpaceOnUse"><g class="cls-31"/></mask><linearGradient id="linear-gradient-4" x1="-147.24" y1="51.4" x2="-120.17" y2="93.08" gradientTransform="matrix(0.92, -0.38, 0.38, 0.92, 140.06, -76.53)" xlink:href="#linear-gradient-3"/><filter id="luminosity-noclip-6" x="0.01" y="0.01" width="70.55" height="70.55" filterUnits="userSpaceOnUse" color-interpolation-filters="sRGB"><feFlood flood-color="#fff" result="bg"/><feBlend in="SourceGraphic" in2="bg"/></filter><mask id="mask-6" x="0.01" y="0.01" width="70.55" height="70.55" maskUnits="userSpaceOnUse"><g class="cls-1"><circle class="cls-2" cx="35.28" cy="35.28" r="35.27" transform="translate(-14.61 35.28) rotate(-45)"/></g></mask><linearGradient id="linear-gradient-5" x1="10.34" y1="10.34" x2="60.22" y2="60.22" gradientTransform="translate(35.28 -14.61) rotate(45)" gradientUnits="userSpaceOnUse"><stop offset="0" stop-color="#fff"/><stop offset="1" stop-color="#003ee7"/></linearGradient><filter id="luminosity-noclip-7" x="0" y="0" width="70.56" height="70.56" filterUnits="userSpaceOnUse" color-interpolation-filters="sRGB"><feFlood flood-color="#fff" result="bg"/><feBlend in="SourceGraphic" in2="bg"/></filter><mask id="mask-7" x="0" y="0" width="70.56" height="70.56" maskUnits="userSpaceOnUse"><g class="cls-3"><circle class="cls-4" cx="35.28" cy="35.28" r="35.27" transform="translate(-14.61 35.28) rotate(-45)"/></g></mask><linearGradient id="linear-gradient-6" x1="36.5" y1="-456.92" x2="86.38" y2="-407.04" gradientTransform="translate(315.37 -299.25) rotate(-148.16)" gradientUnits="userSpaceOnUse"><stop offset="0" stop-color="#fff"/><stop offset="1" stop-color="#ececec"/></linearGradient><filter id="luminosity-noclip-8" x="13.17" y="3.19" width="25.5" height="25.5" filterUnits="userSpaceOnUse" color-interpolation-filters="sRGB"><feFlood flood-color="#fff" result="bg"/><feBlend in="SourceGraphic" in2="bg"/></filter><mask id="mask-8" x="13.17" y="3.19" width="25.5" height="25.5" maskUnits="userSpaceOnUse"><g class="cls-5"><circle class="cls-6" cx="25.92" cy="15.95" r="12.75"/></g></mask><radialGradient id="radial-gradient-2" cx="25.92" cy="15.95" r="12.75" gradientUnits="userSpaceOnUse"><stop offset="0" stop-color="#ececec"/><stop offset="0.55" stop-color="#eee"/><stop offset="0.84" stop-color="#f6f6f6"/><stop offset="1" stop-color="#fff"/></radialGradient><filter id="luminosity-noclip-9" x="0.01" y="20.81" width="70.54" height="49.68" filterUnits="userSpaceOnUse" color-interpolation-filters="sRGB"><feFlood flood-color="#fff" result="bg"/><feBlend in="SourceGraphic" in2="bg"/></filter><mask id="mask-9" x="0.01" y="20.81" width="70.54" height="49.68" maskUnits="userSpaceOnUse"><g class="cls-7"><path class="cls-8" d="M67.46,20.81A35.26,35.26,0,0,1,0,36,35.27,35.27,0,1,0,67.46,20.81Z"/></g></mask><linearGradient id="linear-gradient-7" x1="159.83" y1="-53.97" x2="186.9" y2="-12.29" gradientTransform="translate(-136.72 18.82) rotate(19.52)" gradientUnits="userSpaceOnUse"><stop offset="0.24" stop-color="#fff"/><stop offset="0.92" stop-color="#fff"/><stop offset="1" stop-color="#fff"/></linearGradient><filter id="luminosity-noclip-10" x="9.68" y="3.04" width="60.95" height="67.51" filterUnits="userSpaceOnUse" color-interpolation-filters="sRGB"><feFlood flood-color="#fff" result="bg"/><feBlend in="SourceGraphic" in2="bg"/></filter><mask id="mask-10" x="9.68" y="3.04" width="60.95" height="67.51" maskUnits="userSpaceOnUse"><g class="cls-9"><path class="cls-10" d="M49.64,3a35.26,35.26,0,0,1-40,56.43A35.27,35.27,0,1,0,49.64,3Z"/></g></mask><linearGradient id="linear-gradient-8" x1="-147.24" y1="51.4" x2="-120.17" y2="93.08" gradientTransform="matrix(0.92, -0.38, 0.38, 0.92, 140.06, -76.53)" xlink:href="#linear-gradient-7"/></defs><g class="cls-11"><g id="Layer_2" data-name="Layer 2"><g id="Layer_1-2" data-name="Layer 1"><circle class="cls-12" cx="35.28" cy="35.28" r="35.27" transform="translate(-14.61 35.28) rotate(-45)"/><path class="cls-13" d="M70.55,35.28A35.27,35.27,0,0,0,46,1.69C46.68,7,46.91,15.18,45,19.63c-3,6.83-6,13.65-13.22,11.73s-11.74-3.84-17.49,0c-3.33,2.22-9.51,1.51-13.89-1a35.27,35.27,0,1,0,70.19,5Z"/><path class="cls-14" d="M58.22,8.5c-3,4.15-7.66,11-9.85,16.89C45,34.56,38.35,41.39,30,39,22.1,36.8,6.72,36.7.82,42.79A35.27,35.27,0,1,0,58.22,8.5Z"/><path class="cls-13" d="M35.28,70.55A35.27,35.27,0,0,0,61.67,11.88c-4.58,11.4-1.44,21-9.46,28.44-9.6,9-23.46.43-32.63,3-5.15,1.43-11.3,4.51-16.95,5.33A35.29,35.29,0,0,0,35.28,70.55Z"/><path class="cls-12" d="M30.88,61.86c-5.71,1.87-11.59,1.7-16.42,1.89A35.27,35.27,0,0,0,66.85,19.56a43.86,43.86,0,0,0-3.33,11.16C61,46.29,42,58.24,30.88,61.86Z"/><path class="cls-14" d="M3.38,20.22a2.64,2.64,0,0,0,.88.56,3.66,3.66,0,0,0,2-.06C8.18,20.24,10,19.43,11.9,19a7.13,7.13,0,0,1,5.65.82c1.12.82,1.85,2.11,3,2.86a7.33,7.33,0,0,0,4.83.7,14.27,14.27,0,0,0,7.39-2.69,15.33,15.33,0,0,0,4-5.52c2.26-4.67,3.54-10.3,1.28-15L38,.12C37.11.05,36.2,0,35.28,0A35.27,35.27,0,0,0,3.38,20.22Z"/><path class="cls-12" d="M35.44,49.94l-9-.08C20.55,49.8,9.56,48.54,5,53.12l-.06.06a35.4,35.4,0,0,0,7.88,9.26l23.34-8.28c1.26-.44,2.78-1.32,2.54-2.62S36.74,50,35.44,49.94Z"/><path class="cls-13" d="M9.55,11.17a4.62,4.62,0,0,0,1.52.17c1.21-.07,2.39-.43,3.61-.53a4.11,4.11,0,0,1,3.37,1,14.54,14.54,0,0,1,1.15,1.9,5.41,5.41,0,0,0,4.87,2.18,10,10,0,0,0,5.11-2.08c1.55-1.13,3-3.07,2.22-4.81-.3-.63-.9-1.23-.74-1.91s.7-.84,1.17-1.15A6.07,6.07,0,0,0,34.3,0,35.17,35.17,0,0,0,9.55,11.17Z"/><path class="cls-13" d="M35.28,70.55A35.28,35.28,0,0,0,69.09,25.23a11,11,0,0,0-4.37,5.39c-1.26,3.5-.66,7.34-.62,11.06s-.79,7.88-3.86,10c-.82.55-1.74.92-2.55,1.48-3.42,2.35-4.22,7.66-8,9.28-1.77.74-3.83.5-5.61,1.23-2,.8-3.41,2.71-5.49,3.09s-3.82-.72-5.71-1.26c-3.47-1-7.21-.2-10.6,1-.63.23-1.26.48-1.88.74A35.13,35.13,0,0,0,35.28,70.55Z"/><path class="cls-14" d="M20.35,52.48c-2.8-.91-9.61,1.13-13.65,3.47a37,37,0,0,0,2.43,3c8.56-3.2,23.35-5.73,23-6.69C31.74,51,23.63,53.54,20.35,52.48Z"/><path class="cls-15" d="M63,36.51c-.45,3.6-.51,7.34-1.77,10.78-1.38,3.75-4.75,7-8,9.28C47.7,60.49,41,61.94,34.67,64.06A35.2,35.2,0,0,0,24.6,68.9a36,36,0,0,0,4.18,1C37.29,65.82,47.55,65.11,55.13,59c5-4,8.49-9.14,9.39-15.52.81-5.74.39-13.28,4.8-17.49-.14-.53-.3-1.05-.46-1.57C65,27,63.56,31.83,63,36.51Z"/><path class="cls-15" d="M24.17,39.11a40,40,0,0,1,4.11,2,29.74,29.74,0,0,0,4.48,2.41c5.12,1.86,10.06-.12,13.79-3.76,4.51-4.41,5.42-9.67,7.16-15.48a41.71,41.71,0,0,1,7-13.42c-.24-.25-.47-.49-.71-.72a37,37,0,0,0-5.4,8.64C52.07,24.31,51.73,31.11,47.93,36c-3.59,4.59-10.12,7.87-15.64,4.84.45,0,.9,0,1.36,0a16.34,16.34,0,0,0,8.94-3.65c3.33-2.74,4.88-6.69,6.63-10.5,1.91-4.15,3.68-8.39,5.71-12.48a26.06,26.06,0,0,1,3.49-5.45c-.46-.4-.93-.79-1.41-1.16-3,3-4.94,7.35-6.78,11.21C46.59,26.39,43.77,37,33.89,38.08,26.15,39,19.3,32.8,11.6,36.38c-3.26,1.51-5.84,4.09-8.9,5.92a15.08,15.08,0,0,1-1.78.92c.2.89.43,1.78.71,2.65,2.68-1.29,5-3.25,7.41-5,4.16-3,7.9-3.76,12.9-2.4Z"/><path class="cls-15" d="M6.94,22.11c2.21-1,4.36-2.44,6.89-2.52s3.91,1.45,5.61,2.92c2.15,1.86,4.34,3,7.26,2.45,5.74-1,10.68-5.64,12.73-11a17.46,17.46,0,0,0,.83-9.28A19.43,19.43,0,0,0,38.93.2,33.92,33.92,0,0,0,35.28,0,18,18,0,0,1,37,3.75a14.86,14.86,0,0,1,.09,7.94,15,15,0,0,1-9.51,10.08c-5.41,1.75-7.59-4-12.55-4.57a11.09,11.09,0,0,0-5.49,1c-.9.37-2.55,1.67-3.47,1.71-1.23,0-1.89-.25-2.21-.71C3.44,20.08,3,21,2.64,21.9,3.79,22.91,5.39,22.82,6.94,22.11Z"/><path class="cls-15" d="M25.9,65.34c7.89-3.53,15.86-6.73,22.74-12.09A39.54,39.54,0,0,0,62,35.66c1.78-4.94,2.95-10.37,5.41-14.95-.17-.39-.36-.77-.54-1.15a43.87,43.87,0,0,0-5,11.63A39.74,39.74,0,0,1,45.19,53.43c-7.85,5.2-16.81,7.48-25.12,11.67-.62.32-1.26.66-1.89,1a31.69,31.69,0,0,0,3,1.47C22.71,66.79,24.31,66.05,25.9,65.34Z"/><path class="cls-15" d="M7.58,35c7.26-1.19,15.49-9,22.7-3.53.17.13.41-.12.29-.29-4.7-6.56-12.81-2.36-18.67-.14a17.15,17.15,0,0,1-11.68.39c-.11,1-.17,2-.19,3A17.54,17.54,0,0,0,7.58,35Z"/><path class="cls-15" d="M42.36,17.46C45,12.34,44.54,6,42.37.72l-1-.17c1.93,5.45,1.44,10.79,0,16.53C41.31,17.61,42.09,18,42.36,17.46Z"/><path class="cls-15" d="M39.27,20c-2.32,2.51-5.06,3.93-7.91,5.7a.42.42,0,0,0,.33.77c3.25-.78,6.11-3.36,8.18-5.87.34-.42-.22-1-.6-.6Z"/><path class="cls-16" d="M58.51,8.75a35.27,35.27,0,0,1-54.42,43,35.27,35.27,0,1,0,54.42-43Z"/><path class="cls-17" d="M55.31,6.25A35.26,35.26,0,0,1,22,53a35.07,35.07,0,0,1-20-6.25A35.27,35.27,0,1,0,55.31,6.25Z"/><path class="cls-18" d="M1.2,26.18A23.74,23.74,0,1,0,41,.47,35.87,35.87,0,0,0,35.28,0,35.28,35.28,0,0,0,1.2,26.18Z"/><path class="cls-19" d="M59.55,9.7A35.26,35.26,0,0,1,6.33,55.42,35.27,35.27,0,1,0,59.55,9.7Z"/><path class="cls-20" d="M60,10.11A35.08,35.08,0,0,0,34.68,0l-1.06,0h-.23c-.66,0-1.32.09-2,.16l-.16,0L30.2.38h-.06c-.67.1-1.34.22-2,.36l-.23.05q-1.52.31-3,.78l-.24.07q-1.47.47-2.88,1.05l-.23.1c-.62.26-1.23.54-1.83.83l-.94.49-.19.1q-.83.43-1.62.93l-.18.11c-.29.17-.58.36-.86.54l0,0c-.55.36-1.09.73-1.61,1.12l-.21.16c-.8.6-1.58,1.25-2.34,1.92l-.19.18c-.75.68-1.47,1.39-2.16,2.14l-.16.17c-.45.5-.89,1-1.31,1.52-.24.3-.46.57-.67.85l-.1.13c-.38.51-.76,1-1.12,1.57l-.11.16a35.26,35.26,0,0,0,6.83,46.66A35.28,35.28,0,0,1,7.42,18.73a17.08,17.08,0,0,0,9,4A17.12,17.12,0,0,0,35.26,2a35.51,35.51,0,0,1,6.5.19A35.12,35.12,0,0,1,60,10.11Z"/><g class="cls-21"><circle class="cls-22" cx="35.28" cy="35.28" r="35.27" transform="translate(-14.61 35.28) rotate(-45)"/></g><g class="cls-23"><circle class="cls-24" cx="35.28" cy="35.28" r="35.27" transform="translate(-14.61 35.28) rotate(-45)"/></g><g class="cls-25"><circle class="cls-26" cx="25.92" cy="15.95" r="12.75"/></g><g class="cls-27"><path class="cls-28" d="M67.46,20.81A35.26,35.26,0,0,1,0,36,35.27,35.27,0,1,0,67.46,20.81Z"/></g><g class="cls-29"><path class="cls-30" d="M49.64,3a35.26,35.26,0,0,1-40,56.43A35.27,35.27,0,1,0,49.64,3Z"/></g></g></g></g></svg>