<svg xmlns="http://www.w3.org/2000/svg" xmlns:xlink="http://www.w3.org/1999/xlink" viewBox="0 0 126.66 76.41"><defs><style>.cls-1{mask:url(#mask);filter:url(#luminosity-noclip-4);}.cls-12,.cls-13,.cls-14,.cls-18,.cls-2,.cls-4,.cls-6,.cls-9{mix-blend-mode:multiply;}.cls-2{fill:url(#linear-gradient);}.cls-3{mask:url(#mask-2);filter:url(#luminosity-noclip-5);}.cls-4{fill:url(#linear-gradient-2);}.cls-5{mask:url(#mask-3);filter:url(#luminosity-noclip-6);}.cls-6{fill:url(#linear-gradient-3);}.cls-7{isolation:isolate;}.cls-13,.cls-14,.cls-15,.cls-16,.cls-8{fill:#e7a993;}.cls-9{opacity:0.66;}.cls-10{fill:#b2afff;}.cls-11{fill:#e79174;}.cls-12{opacity:0.63;}.cls-13{opacity:0.36;}.cls-14,.cls-20,.cls-22{opacity:0.15;}.cls-15,.cls-16,.cls-20,.cls-22{mix-blend-mode:screen;}.cls-15{opacity:0.45;}.cls-16{opacity:0.25;}.cls-17{mask:url(#mask-4);}.cls-18{opacity:0.76;fill:url(#linear-gradient-4);}.cls-19{mask:url(#mask-5);}.cls-20{fill:url(#linear-gradient-5);}.cls-21{mask:url(#mask-6);}.cls-22{fill:url(#linear-gradient-6);}.cls-23{opacity:0.72;}.cls-24{fill:url(#linear-gradient-7);}.cls-25{fill:url(#linear-gradient-8);}.cls-26{fill:url(#linear-gradient-9);}.cls-27{fill:url(#linear-gradient-10);}.cls-28{fill:url(#linear-gradient-11);}.cls-29{fill:url(#linear-gradient-12);}.cls-30{fill:url(#linear-gradient-13);}.cls-31{fill:url(#linear-gradient-14);}.cls-32{fill:url(#linear-gradient-15);}.cls-33{fill:url(#linear-gradient-16);}.cls-34{fill:url(#linear-gradient-17);}.cls-35{fill:url(#linear-gradient-18);}.cls-36{fill:url(#linear-gradient-19);}.cls-37{filter:url(#luminosity-noclip-3);}.cls-38{filter:url(#luminosity-noclip-2);}.cls-39{filter:url(#luminosity-noclip);}</style><filter id="luminosity-noclip" x="27.81" y="-8195.3" width="70.09" height="32766" filterUnits="userSpaceOnUse" color-interpolation-filters="sRGB"><feFlood flood-color="#fff" result="bg"/><feBlend in="SourceGraphic" in2="bg"/></filter><mask id="mask" x="27.81" y="-8195.3" width="70.09" height="32766" maskUnits="userSpaceOnUse"><g class="cls-39"/></mask><linearGradient id="linear-gradient" x1="38.08" y1="10.26" x2="87.64" y2="59.82" gradientUnits="userSpaceOnUse"><stop offset="0"/><stop offset="0.09" stop-color="#0c0c0c"/><stop offset="0.25" stop-color="#2d2d2d"/><stop offset="0.46" stop-color="#626262"/><stop offset="0.73" stop-color="#acacac"/><stop offset="1" stop-color="#fff"/></linearGradient><filter id="luminosity-noclip-2" x="27.58" y="-8195.3" width="70.54" height="32766" filterUnits="userSpaceOnUse" color-interpolation-filters="sRGB"><feFlood flood-color="#fff" result="bg"/><feBlend in="SourceGraphic" in2="bg"/></filter><mask id="mask-2" x="27.58" y="-8195.3" width="70.54" height="32766" maskUnits="userSpaceOnUse"><g class="cls-38"/></mask><linearGradient id="linear-gradient-2" x1="119.15" y1="86.44" x2="146.22" y2="128.12" gradientTransform="translate(-23.88 -100.33) rotate(19.52)" gradientUnits="userSpaceOnUse"><stop offset="0.24"/><stop offset="0.38" stop-color="#030303"/><stop offset="0.48" stop-color="#0d0d0d"/><stop offset="0.56" stop-color="#1d1d1d"/><stop offset="0.65" stop-color="#343434"/><stop offset="0.73" stop-color="#515151"/><stop offset="0.8" stop-color="#767676"/><stop offset="0.87" stop-color="#a1a1a1"/><stop offset="0.94" stop-color="#d1d1d1"/><stop offset="1" stop-color="#fff"/></linearGradient><filter id="luminosity-noclip-3" x="37.29" y="-8195.3" width="60.95" height="32766" filterUnits="userSpaceOnUse" color-interpolation-filters="sRGB"><feFlood flood-color="#fff" result="bg"/><feBlend in="SourceGraphic" in2="bg"/></filter><mask id="mask-3" x="37.29" y="-8195.3" width="60.95" height="32766" maskUnits="userSpaceOnUse"><g class="cls-37"/></mask><linearGradient id="linear-gradient-3" x1="11.47" y1="-71.94" x2="38.54" y2="-30.26" gradientTransform="matrix(0.92, -0.38, 0.38, 0.92, 68.1, 97.6)" xlink:href="#linear-gradient-2"/><filter id="luminosity-noclip-4" x="27.81" y="0" width="70.09" height="70.09" filterUnits="userSpaceOnUse" color-interpolation-filters="sRGB"><feFlood flood-color="#fff" result="bg"/><feBlend in="SourceGraphic" in2="bg"/></filter><mask id="mask-4" x="27.81" y="0" width="70.09" height="70.09" maskUnits="userSpaceOnUse"><g class="cls-1"><circle class="cls-2" cx="62.86" cy="35.04" r="35.04"/></g></mask><linearGradient id="linear-gradient-4" x1="38.08" y1="10.26" x2="87.64" y2="59.82" gradientUnits="userSpaceOnUse"><stop offset="0" stop-color="red"/><stop offset="0.11" stop-color="#f30007"/><stop offset="0.3" stop-color="#d20119"/><stop offset="0.56" stop-color="#9d0236"/><stop offset="0.87" stop-color="#55045e"/><stop offset="1" stop-color="#340570"/></linearGradient><filter id="luminosity-noclip-5" x="27.58" y="20.4" width="70.54" height="49.68" filterUnits="userSpaceOnUse" color-interpolation-filters="sRGB"><feFlood flood-color="#fff" result="bg"/><feBlend in="SourceGraphic" in2="bg"/></filter><mask id="mask-5" x="27.58" y="20.4" width="70.54" height="49.68" maskUnits="userSpaceOnUse"><g class="cls-3"><path class="cls-4" d="M95,20.4A35.27,35.27,0,0,1,27.58,35.62,35.27,35.27,0,1,0,95,20.4Z"/></g></mask><linearGradient id="linear-gradient-5" x1="119.15" y1="86.44" x2="146.22" y2="128.12" gradientTransform="translate(-23.88 -100.33) rotate(19.52)" gradientUnits="userSpaceOnUse"><stop offset="0.24" stop-color="#fff"/><stop offset="0.92" stop-color="#fff"/><stop offset="1" stop-color="#fff"/></linearGradient><filter id="luminosity-noclip-6" x="37.29" y="2.57" width="60.95" height="67.51" filterUnits="userSpaceOnUse" color-interpolation-filters="sRGB"><feFlood flood-color="#fff" result="bg"/><feBlend in="SourceGraphic" in2="bg"/></filter><mask id="mask-6" x="37.29" y="2.57" width="60.95" height="67.51" maskUnits="userSpaceOnUse"><g class="cls-5"><path class="cls-6" d="M77.25,2.57A35.26,35.26,0,0,1,37.29,59a35.27,35.27,0,1,0,40-56.43Z"/></g></mask><linearGradient id="linear-gradient-6" x1="11.47" y1="-71.94" x2="38.54" y2="-30.26" gradientTransform="matrix(0.92, -0.38, 0.38, 0.92, 68.1, 97.6)" xlink:href="#linear-gradient-5"/><linearGradient id="linear-gradient-7" x1="90.92" y1="-143" x2="210.84" y2="-143" gradientTransform="translate(-10.41 234.34) rotate(-25.92)" gradientUnits="userSpaceOnUse"><stop offset="0" stop-color="#ffb6a0"/><stop offset="0.15" stop-color="#f3aca1"/><stop offset="0.42" stop-color="#d293a5"/><stop offset="0.77" stop-color="#9e6bab"/><stop offset="0.99" stop-color="#7a4faf"/></linearGradient><linearGradient id="linear-gradient-8" x1="80.14" y1="-142.59" x2="222.74" y2="-142.59" xlink:href="#linear-gradient-7"/><linearGradient id="linear-gradient-9" x1="172.51" y1="-144.15" x2="194.98" y2="-144.15" xlink:href="#linear-gradient-7"/><linearGradient id="linear-gradient-10" x1="177.42" y1="-135.38" x2="216.46" y2="-135.38" xlink:href="#linear-gradient-7"/><linearGradient id="linear-gradient-11" x1="154.93" y1="-130.4" x2="170.46" y2="-130.4" xlink:href="#linear-gradient-7"/><linearGradient id="linear-gradient-12" x1="111.53" y1="-129.56" x2="135.84" y2="-129.56" xlink:href="#linear-gradient-7"/><linearGradient id="linear-gradient-13" x1="105.52" y1="-142.23" x2="111" y2="-142.23" xlink:href="#linear-gradient-7"/><linearGradient id="linear-gradient-14" x1="79.95" y1="-136.57" x2="85.96" y2="-136.57" xlink:href="#linear-gradient-7"/><linearGradient id="linear-gradient-15" x1="89.58" y1="-139.74" x2="94.38" y2="-139.74" xlink:href="#linear-gradient-7"/><linearGradient id="linear-gradient-16" x1="96.4" y1="-136.57" x2="106.64" y2="-136.57" xlink:href="#linear-gradient-7"/><linearGradient id="linear-gradient-17" x1="107.08" y1="-152.24" x2="116.95" y2="-152.24" xlink:href="#linear-gradient-7"/><linearGradient id="linear-gradient-18" x1="205.4" y1="-147.07" x2="212.66" y2="-147.07" xlink:href="#linear-gradient-7"/><linearGradient id="linear-gradient-19" x1="209.22" y1="-142.98" x2="210.74" y2="-142.98" xlink:href="#linear-gradient-7"/></defs><g class="cls-7"><g id="Layer_2" data-name="Layer 2"><g id="Layer_1-2" data-name="Layer 1"><circle class="cls-8" cx="62.86" cy="35.04" r="35.04"/><g class="cls-9"><path class="cls-10" d="M32,26.18A22.88,22.88,0,0,0,41.06,24c.7-.29.28-1.3-.36-1.32-2.77-.13-5.4-.32-8.19-.19-.75,0-1.56,0-2.38,0A34.49,34.49,0,0,0,29,26.15C30,26.24,31,26.19,32,26.18Z"/><path class="cls-10" d="M72.9,10.08A56.07,56.07,0,0,1,58.48,21.86,52.74,52.74,0,0,1,41.6,28.19c-3.8.7-9,1.48-13.2.49-.14.76-.26,1.53-.35,2.31a33,33,0,0,0,7.63.57A52.27,52.27,0,0,0,57,26.29,57.9,57.9,0,0,0,74.91,12.9,48.16,48.16,0,0,0,80.85,5a35.3,35.3,0,0,0-3.22-1.7A35.89,35.89,0,0,1,72.9,10.08Z"/><path class="cls-10" d="M49.39,9.64C52.73,8.28,58.45,4.45,59.55.16A35.45,35.45,0,0,0,56,.68a4.76,4.76,0,0,1-.35.67,15.54,15.54,0,0,1-5.78,5.1c-2.59,1.47-7.21,3.35-11,3.14-.53.51-1.05,1-1.56,1.57C41.05,12.31,46.13,11,49.39,9.64Z"/><path class="cls-10" d="M41.67,43c8.9-.86,17.17-4.22,25-8.43A59.64,59.64,0,0,0,85.48,19.44,46.15,46.15,0,0,0,90,12.84a36,36,0,0,0-5.89-5.68,48.14,48.14,0,0,1-6.44,8.59,61.83,61.83,0,0,1-16.38,12c-6.3,3.33-13,6.12-20.13,7.19a52.11,52.11,0,0,1-10.59.46c-.92,0-1.82-.14-2.72-.25a35,35,0,0,0,.8,7.37A46.49,46.49,0,0,0,41.67,43Z"/><path class="cls-10" d="M97.06,42.66c.15-.69.29-1.39.4-2.11A107.87,107.87,0,0,1,79,52.6a128.76,128.76,0,0,1-20,8.34,116.31,116.31,0,0,1-14.7,3.86q1.18.74,2.43,1.38c11.46-1.73,22.81-6.43,32.65-11.74A110.75,110.75,0,0,0,97.06,42.66Z"/><path class="cls-10" d="M61.82,4.45A28.21,28.21,0,0,1,51.56,12c-5.56,2.53-12,4.41-18.14,4-.45.68-.87,1.38-1.27,2.1,6.76.87,14.73-1.5,20.1-3.76A30.39,30.39,0,0,0,64.51,5.62,25,25,0,0,0,67.76.35C66.69.2,65.61.09,64.51,0A17.8,17.8,0,0,1,61.82,4.45Z"/><path class="cls-10" d="M75.64,52.25A81.44,81.44,0,0,0,97.89,35.36c0-.11,0-.21,0-.32,0-1.14-.06-2.27-.17-3.38a80,80,0,0,1-6.44,6.87A79.26,79.26,0,0,1,76.22,49.71a80.65,80.65,0,0,1-18.6,7.36c-6,1.62-12.68,3.48-19,3.24.6.58,1.21,1.13,1.85,1.67C45.31,62,50.54,60.51,55,59.5A88.51,88.51,0,0,0,75.64,52.25Z"/><path class="cls-10" d="M45.72,57.24A79.46,79.46,0,0,0,74,47.6,83.88,83.88,0,0,0,95.39,31c.66-.73,1.3-1.48,1.94-2.24a35,35,0,0,0-4.82-12.37,52.5,52.5,0,0,1-6.25,7.94A75,75,0,0,1,67.75,38.24,67.9,67.9,0,0,1,45,46.18a57.86,57.86,0,0,1-13,.37c-.75-.06-1.52-.16-2.29-.26a35.07,35.07,0,0,0,6.44,11.38A57.37,57.37,0,0,0,45.72,57.24Z"/><path class="cls-10" d="M64,10.06c-2.35,1.73-4.07,4-6.71,5.42S51.36,17.77,49,19.77c-1.17,1,.11,2.64,1.39,2.38,3.24-.67,6.73-2.94,9.59-4.62,2.33-1.37,4.93-3.61,5.37-6.4C65.47,10.42,64.7,9.51,64,10.06Z"/></g><path class="cls-11" d="M92.45,22.91A1.17,1.17,0,0,0,91,21.79c-3.29.81-6.11,5.78-8.18,8.31-3,3.69-7,6.26-10.93,8.93a.58.58,0,0,0,.44,1c4.68-1.35,8.22-4.45,11.92-7.47C87.1,30.28,92.09,26.82,92.45,22.91Z"/><path class="cls-11" d="M58.79,26.19a50.39,50.39,0,0,1-13.88,4.62c-2.47.45-4.95.77-7.46,1-1.74.15-2.68.08-4,1.14a.58.58,0,0,0,.11.91c3.07,2,9.88.16,13.27-.7a28.54,28.54,0,0,0,12.48-6.32C59.64,26.5,59.19,26,58.79,26.19Z"/><g class="cls-12"><path class="cls-11" d="M72.71,61.49a8.38,8.38,0,0,0-1.5,1.29c-.48.51.14,1.43.78,1A6.28,6.28,0,0,1,73.47,63a6,6,0,0,0,1.44-.89.55.55,0,0,0-.27-1A2.76,2.76,0,0,0,72.71,61.49Z"/><path class="cls-11" d="M74.46,22.92a9.65,9.65,0,0,0-3,1.77c-1,.76-2.05,1.53-3.07,2.31a1.3,1.3,0,0,0-.58,1.42,1.36,1.36,0,0,0,.58.75,1.21,1.21,0,0,0,1.27,0c2-1.46,4.59-3.15,5.54-5.54C75.34,23.21,74.85,22.81,74.46,22.92Z"/><path class="cls-11" d="M54.94,35.62a21,21,0,0,0,11.74-5.44c.7-.65,0-2-1-1.65A36.62,36.62,0,0,0,54.6,34.81.48.48,0,0,0,54.94,35.62Z"/><path class="cls-11" d="M84.08,39c.38-.49,0-1.48-.7-1.2-3.89,1.49-7.22,4.28-10.86,6.28A111.61,111.61,0,0,1,59.29,50.3a.54.54,0,0,0,.29,1.05,66.3,66.3,0,0,0,13.06-4.63C76.62,44.75,81.28,42.55,84.08,39Z"/><path class="cls-11" d="M71.78,1.48c-1.66,2.59-3.89,4.68-5.65,7.16-.58.81.54,1.87,1.34,1.35A20.5,20.5,0,0,0,74.25,1.9c-.76-.25-1.52-.49-2.3-.7Z"/><path class="cls-11" d="M82.36,14.58c-1.5,2-3.43,3.66-4.86,5.67-.53.74.49,1.62,1.21,1.2,4.08-2.35,6.66-7.49,8.17-11.9l-.83-.77A38.18,38.18,0,0,1,82.36,14.58Z"/><path class="cls-11" d="M90.53,49.81c-3.24,2.16-7.35,3.64-10.11,6.41a1.1,1.1,0,0,0,.77,1.85c4.2-.36,8.2-3.33,11.59-5.64l.84-.59a34.72,34.72,0,0,0,2.65-6.23C94.4,47.08,92.5,48.5,90.53,49.81Z"/><path class="cls-11" d="M53,10.5A17.19,17.19,0,0,0,63.1,0h-.24c-.73,0-1.45,0-2.16.07a15.39,15.39,0,0,1-2.8,4.07c-1.76,1.86-4,3.19-5.6,5.22C51.93,9.83,52.24,10.75,53,10.5Z"/><path class="cls-11" d="M47.64,19.18c.73-.51.56-1.9-.5-1.84-3.27.22-6.4,1.57-9.71,1.89a45.3,45.3,0,0,1-5.94.19c-.39.77-.74,1.56-1.07,2.36C36.27,22.53,43.18,22.32,47.64,19.18Z"/><path class="cls-11" d="M67.78,65c.89-.76-.11-1.89-1-1.75-3.17.47-6.19,2.27-9.31,3.18-2,.6-4.12,1.17-6.2,1.67a35,35,0,0,0,5,1.35C60.56,68.8,64.84,67.52,67.78,65Z"/><path class="cls-11" d="M45,50.77a95.93,95.93,0,0,0,11.85-2.72c3.11-1,7.29-2,9.21-4.81a1,1,0,0,0-.82-1.43c-3,.13-5.76,2-8.62,3A87.6,87.6,0,0,1,46,47.38a60.13,60.13,0,0,1-15.58,1,35.69,35.69,0,0,0,1.63,3.42A52.2,52.2,0,0,0,45,50.77Z"/><path class="cls-11" d="M51.64,1.85a34.85,34.85,0,0,0-9,4.56A10.83,10.83,0,0,0,48.1,5.33,9.21,9.21,0,0,0,51.64,1.85Z"/></g><path class="cls-13" d="M62.88,0a5.59,5.59,0,0,1,2.77,3.17,7.53,7.53,0,0,1-.09,3.94c-1.23,5-4.92,8.94-6.87,13.67-.55,1.32-.92,2.93-.09,4.09s2.23,1.3,3.54,1.33c6,.14,11.8-2.09,17.79-2.41,2.87-.16,5.95.21,8.16,2a13,13,0,0,1,3.44,5.39A55.79,55.79,0,0,1,94.7,42.4c.29,1.7.52,3.43.91,5.11A35,35,0,0,0,62.88,0Z"/><path class="cls-13" d="M62.86,70.09a34.87,34.87,0,0,0,18.58-5.34c-.61-.11-1.22-.23-1.83-.38a8,8,0,0,1-3.81-1.81c-2.12-2.07-1.81-5.63-.52-8.29s3.36-4.91,4.5-7.64a3.6,3.6,0,0,0,.35-2.24c-.44-1.75-2.73-2.16-4.54-2.08a39,39,0,0,0-10.91,2.08,19,19,0,0,1-4.5,1.25,4.88,4.88,0,0,1-4.24-1.51c-1.11-1.4-1.24-3.7-2.9-4.36a3.91,3.91,0,0,0-2.39.07c-5.83,1.5-11.86,4.94-17.47,2.77a10.33,10.33,0,0,1-5.24-4.75A35,35,0,0,0,62.86,70.09Z"/><path class="cls-14" d="M82.34,5.92A35,35,0,0,1,28.6,42.41,35,35,0,1,0,82.34,5.92Z"/><path class="cls-14" d="M86.14,8.86A35,35,0,0,1,31.41,50.5,35,35,0,1,0,86.14,8.86Z"/><path class="cls-15" d="M85.92,8.67A34.94,34.94,0,0,0,62.86,0,35.57,35.57,0,0,0,56.8.53l-.2,0c-.66.12-1.32.25-2,.41l-.08,0a34.91,34.91,0,0,0-6,2l-.19.08c-.59.27-1.17.55-1.74.85l-.1,0a34.67,34.67,0,0,0-5.18,3.34l-.19.15c-.48.38-1,.78-1.43,1.19l-.12.11a35,35,0,0,0-2.93,2.91c-.45.5-.87,1-1.28,1.52a1.56,1.56,0,0,1-.16.2c-.37.49-.74,1-1.09,1.48l-.11.15a35,35,0,0,0,8.24,48.35,35,35,0,0,1-8-42.58,16.29,16.29,0,0,0,10,3.38A16.44,16.44,0,0,0,59.82,2.44,36.25,36.25,0,0,1,65.37,2,34.88,34.88,0,0,1,85.92,8.67Z"/><path class="cls-16" d="M29.1,25.66A23.77,23.77,0,0,0,71.46,10.85,23.6,23.6,0,0,0,69.13.57a35,35,0,0,0-40,25.09Z"/><g class="cls-17"><circle class="cls-18" cx="62.86" cy="35.04" r="35.04"/></g><g class="cls-19"><path class="cls-20" d="M95,20.4A35.27,35.27,0,0,1,27.58,35.62,35.27,35.27,0,1,0,95,20.4Z"/></g><g class="cls-21"><path class="cls-22" d="M77.25,2.57A35.26,35.26,0,0,1,37.29,59a35.27,35.27,0,1,0,40-56.43Z"/></g><g class="cls-23"><path class="cls-24" d="M31.58,50.92c-.18-.37-.35-.75-.52-1.13C16.65,58.73,10.34,64.45,9.6,67a.76.76,0,0,0,0,.46l0,.09a.78.78,0,0,0,.39.23c1.83.6,11.22.75,55.56-22.55,26.69-14,44.89-27.47,49.83-33a1,1,0,0,0-.88-1.6c-3.66.6-10.88,2.81-21.32,7.12.15.27.32.53.47.81,8.61-3.5,14.26-5.05,14.9-3.82,1.3,2.47-18,15.19-43.15,28.42S18.86,65.09,17.56,62.63C16.85,61.27,22.34,56.83,31.58,50.92Z"/><path class="cls-25" d="M91.18,14.59c.16.21.3.44.45.65,13.29-5.54,23.16-8.46,26.25-7.45a2.38,2.38,0,0,1,1.75,2.1c.08,1,.34,4.1-15.63,15.47A336,336,0,0,1,66.92,47.81C61.18,50.82,55.05,54,49,56.9,31.52,65.4,14.6,72.35,9.11,70.54A3.36,3.36,0,0,1,7,68.87a3.44,3.44,0,0,1-.22-2.67c1.32-4.56,11.59-12,23.12-19.11-.06-.17-.13-.33-.18-.49C10.4,58.79-1.72,69.21.2,72.85c2.74,5.22,33.23-5.43,68.1-23.78s60.91-37.45,58.16-42.66C124.64,2.94,110.6,6.47,91.18,14.59Z"/><path class="cls-26" d="M100.29,18.12c.29,0-1.23,1.73-1.28,1.78a23.55,23.55,0,0,1-2.09,1.64C95,23,93,24.3,91,25.57c-2.84,1.79-6,3.25-8.55,5.42-.29.24,0,.62.34.52,6.08-2.09,12.85-6.72,17.53-11.11.66-.63,1.79-1.53,1.27-2.58a1,1,0,0,0-1.57-.48.42.42,0,0,0,.25.78Z"/><path class="cls-27" d="M123.09,14.21C114.17,24.34,101.88,30,91.48,38.29c-.29.23,0,.71.37.54,6.35-3.28,12.31-7.72,18.2-11.77,4.57-3.14,11.64-6.94,13.71-12.4.14-.37-.38-.77-.67-.45Z"/><path class="cls-28" d="M85.46,41.66C81,44.09,75.79,46.23,71.88,49.4a.29.29,0,0,0,.24.49c4.83-1.29,9.6-4.71,13.72-7.44.46-.3.13-1.07-.38-.79Z"/><path class="cls-29" d="M54.77,57.7C47.63,61.49,40,64.45,32.94,68.38c-.38.22-.22.88.25.77,7.78-1.84,15-6.89,21.89-10.81.39-.22.09-.86-.31-.64Z"/><path class="cls-30" d="M23.72,57.83c-1.17.11-2.67,2.24-1.43,3.15.63.47,1.59.05,2.23-.15a8,8,0,0,0,3.42-1.69.31.31,0,0,0-.26-.54,12.67,12.67,0,0,0-2.87.93c-.37.13-1.48.75-1.76.2-.17-.34.64-1.27.88-1.46a.25.25,0,0,0-.21-.44Z"/><path class="cls-31" d="M1.07,75.36c1.83,1.3,5.11,1.51,6.9,0a.28.28,0,0,0-.16-.48,28.39,28.39,0,0,0-3,.63A5.8,5.8,0,0,1,1.34,75a.24.24,0,0,0-.27.39Z"/><path class="cls-32" d="M8.35,68.05a4.26,4.26,0,0,0,5.77.88.2.2,0,0,0-.12-.37c-1.94.27-3.82.68-5.51-.66-.1-.08-.19.07-.14.15Z"/><path class="cls-33" d="M16.3,69c3.21-.65,7.19-1.25,10-3,.25-.16.26-.64-.12-.64-3.35,0-7,1.74-10.11,3-.4.16-.18.8.24.71Z"/><path class="cls-34" d="M27.87,45.58a28,28,0,0,0-8.54,5.2.38.38,0,0,0,.42.63,46.81,46.81,0,0,0,8.36-5.47c.2-.17,0-.44-.24-.36Z"/><path class="cls-35" d="M109,10.22a33.61,33.61,0,0,1,4.57-.59,5.18,5.18,0,0,1,2,.24c.86.36,1,1.09,1.4,1.79a.3.3,0,0,0,.46.09c1.37-1.23-.72-2.85-1.87-3.15-2.32-.6-4.64.25-6.74,1.14a.26.26,0,0,0,.15.48Z"/><path class="cls-36" d="M116.28,13a1.62,1.62,0,0,0-.76.66,2.24,2.24,0,0,0-.4.89.32.32,0,0,0,.39.35,1.81,1.81,0,0,0,1.2-1.68c0-.22-.27-.29-.43-.22Z"/></g></g></g></g></svg>