<svg xmlns="http://www.w3.org/2000/svg" xmlns:xlink="http://www.w3.org/1999/xlink" viewBox="0 0 84.09 83.75"><defs><style>.cls-1{mask:url(#mask);filter:url(#luminosity-noclip-5);}.cls-19,.cls-2,.cls-20,.cls-21,.cls-25,.cls-4,.cls-6,.cls-8{mix-blend-mode:multiply;}.cls-2{fill:url(#linear-gradient);}.cls-3{mask:url(#mask-2);filter:url(#luminosity-noclip-6);}.cls-4{fill:url(#radial-gradient);}.cls-5{mask:url(#mask-3);filter:url(#luminosity-noclip-7);}.cls-6{fill:url(#linear-gradient-2);}.cls-7{mask:url(#mask-4);filter:url(#luminosity-noclip-8);}.cls-8{fill:url(#linear-gradient-3);}.cls-9{isolation:isolate;}.cls-10,.cls-21,.cls-23{fill:#ffb817;}.cls-11{fill:#ffa917;}.cls-12,.cls-15,.cls-16,.cls-18,.cls-22{mix-blend-mode:overlay;}.cls-12{opacity:0.66;}.cls-13,.cls-14,.cls-15,.cls-17{fill:#ffcb24;}.cls-13{opacity:0.43;}.cls-15,.cls-21{opacity:0.39;}.cls-16{opacity:0.64;}.cls-17{opacity:0.63;}.cls-18{opacity:0.36;}.cls-19{opacity:0.42;}.cls-20{fill:#ffcd5c;opacity:0.35;}.cls-22{fill:#ffc747;opacity:0.61;}.cls-23,.cls-27,.cls-29,.cls-31{mix-blend-mode:screen;}.cls-23{opacity:0.2;}.cls-24{mask:url(#mask-5);}.cls-25{opacity:0.91;fill:url(#linear-gradient-4);}.cls-26{mask:url(#mask-6);}.cls-27{opacity:0.68;fill:url(#radial-gradient-2);}.cls-28{mask:url(#mask-7);}.cls-29{opacity:0.25;fill:url(#linear-gradient-5);}.cls-30{mask:url(#mask-8);}.cls-31{opacity:0.37;fill:url(#linear-gradient-6);}.cls-32{filter:url(#luminosity-noclip-4);}.cls-33{filter:url(#luminosity-noclip-3);}.cls-34{filter:url(#luminosity-noclip-2);}.cls-35{filter:url(#luminosity-noclip);}</style><filter id="luminosity-noclip" x="0" y="-8263.51" width="83.75" height="32766" filterUnits="userSpaceOnUse" color-interpolation-filters="sRGB"><feFlood flood-color="#fff" result="bg"/><feBlend in="SourceGraphic" in2="bg"/></filter><mask id="mask" x="0" y="-8263.51" width="83.75" height="32766" maskUnits="userSpaceOnUse"><g class="cls-35"/></mask><linearGradient id="linear-gradient" x1="12.27" y1="12.27" x2="71.49" y2="71.49" gradientTransform="translate(7.15 -6.09) rotate(9.1)" gradientUnits="userSpaceOnUse"><stop offset="0"/><stop offset="1" stop-color="#fff"/></linearGradient><filter id="luminosity-noclip-2" x="9.72" y="-8263.51" width="36.53" height="32766" filterUnits="userSpaceOnUse" color-interpolation-filters="sRGB"><feFlood flood-color="#fff" result="bg"/><feBlend in="SourceGraphic" in2="bg"/></filter><mask id="mask-2" x="9.72" y="-8263.51" width="36.53" height="32766" maskUnits="userSpaceOnUse"><g class="cls-34"/></mask><radialGradient id="radial-gradient" cx="27.48" cy="19.46" r="18.25" gradientTransform="translate(0.48)" gradientUnits="userSpaceOnUse"><stop offset="0" stop-color="#fff"/><stop offset="0.1" stop-color="#fafafa"/><stop offset="0.22" stop-color="#eaeaea"/><stop offset="0.36" stop-color="#d0d0d0"/><stop offset="0.51" stop-color="#adadad"/><stop offset="0.66" stop-color="#7f7f7f"/><stop offset="0.82" stop-color="#474747"/><stop offset="0.99" stop-color="#050505"/><stop offset="1"/></radialGradient><filter id="luminosity-noclip-3" x="0.85" y="-8263.51" width="83.15" height="32766" filterUnits="userSpaceOnUse" color-interpolation-filters="sRGB"><feFlood flood-color="#fff" result="bg"/><feBlend in="SourceGraphic" in2="bg"/></filter><mask id="mask-3" x="0.85" y="-8263.51" width="83.15" height="32766" maskUnits="userSpaceOnUse"><g class="cls-33"/></mask><linearGradient id="linear-gradient-2" x1="35" y1="-148.89" x2="66.89" y2="-99.8" gradientTransform="translate(-44.24 154.44) rotate(19.52)" gradientUnits="userSpaceOnUse"><stop offset="0.24"/><stop offset="0.38" stop-color="#030303"/><stop offset="0.48" stop-color="#0d0d0d"/><stop offset="0.56" stop-color="#1d1d1d"/><stop offset="0.65" stop-color="#343434"/><stop offset="0.73" stop-color="#515151"/><stop offset="0.8" stop-color="#767676"/><stop offset="0.87" stop-color="#a1a1a1"/><stop offset="0.94" stop-color="#d1d1d1"/><stop offset="1" stop-color="#fff"/></linearGradient><filter id="luminosity-noclip-4" x="12.25" y="-8263.51" width="71.84" height="32766" filterUnits="userSpaceOnUse" color-interpolation-filters="sRGB"><feFlood flood-color="#fff" result="bg"/><feBlend in="SourceGraphic" in2="bg"/></filter><mask id="mask-4" x="12.25" y="-8263.51" width="71.84" height="32766" maskUnits="userSpaceOnUse"><g class="cls-32"/></mask><linearGradient id="linear-gradient-3" x1="-42.49" y1="216.75" x2="-10.58" y2="265.88" gradientTransform="matrix(0.92, -0.38, 0.38, 0.92, -14.84, -183.88)" gradientUnits="userSpaceOnUse"><stop offset="0.24"/><stop offset="0.47" stop-color="#020202"/><stop offset="0.57" stop-color="#0a0a0a"/><stop offset="0.65" stop-color="#161616"/><stop offset="0.72" stop-color="#292929"/><stop offset="0.78" stop-color="#414141"/><stop offset="0.83" stop-color="#5e5e5e"/><stop offset="0.88" stop-color="#818181"/><stop offset="0.92" stop-color="#aaa"/><stop offset="0.97" stop-color="#d6d6d6"/><stop offset="1" stop-color="#fff"/></linearGradient><filter id="luminosity-noclip-5" x="0" y="0" width="83.75" height="83.75" filterUnits="userSpaceOnUse" color-interpolation-filters="sRGB"><feFlood flood-color="#fff" result="bg"/><feBlend in="SourceGraphic" in2="bg"/></filter><mask id="mask-5" x="0" y="0" width="83.75" height="83.75" maskUnits="userSpaceOnUse"><g class="cls-1"><circle class="cls-2" cx="41.88" cy="41.88" r="41.88" transform="translate(-6.09 7.15) rotate(-9.1)"/></g></mask><linearGradient id="linear-gradient-4" x1="12.27" y1="12.27" x2="71.49" y2="71.49" gradientTransform="translate(7.15 -6.09) rotate(9.1)" gradientUnits="userSpaceOnUse"><stop offset="0" stop-color="#fff"/><stop offset="1" stop-color="#dd3d02"/></linearGradient><filter id="luminosity-noclip-6" x="9.72" y="1.22" width="36.53" height="36.5" filterUnits="userSpaceOnUse" color-interpolation-filters="sRGB"><feFlood flood-color="#fff" result="bg"/><feBlend in="SourceGraphic" in2="bg"/></filter><mask id="mask-6" x="9.72" y="1.22" width="36.53" height="36.5" maskUnits="userSpaceOnUse"><g class="cls-3"><ellipse class="cls-4" cx="27.99" cy="19.46" rx="18.27" ry="18.25"/></g></mask><radialGradient id="radial-gradient-2" cx="27.48" cy="19.46" r="18.25" gradientTransform="translate(0.48)" gradientUnits="userSpaceOnUse"><stop offset="0" stop-color="#ececec"/><stop offset="0.47" stop-color="#f1f1f1"/><stop offset="1" stop-color="#fff"/></radialGradient><filter id="luminosity-noclip-7" x="0.85" y="25.16" width="83.15" height="58.51" filterUnits="userSpaceOnUse" color-interpolation-filters="sRGB"><feFlood flood-color="#fff" result="bg"/><feBlend in="SourceGraphic" in2="bg"/></filter><mask id="mask-7" x="0.85" y="25.16" width="83.15" height="58.51" maskUnits="userSpaceOnUse"><g class="cls-5"><path class="cls-6" d="M80.36,25.16A41.14,41.14,0,0,1,78,40,41.58,41.58,0,0,1,.85,43.09,41.57,41.57,0,1,0,80.36,25.16Z"/></g></mask><linearGradient id="linear-gradient-5" x1="35" y1="-148.89" x2="66.89" y2="-99.8" gradientTransform="translate(-44.24 154.44) rotate(19.52)" gradientUnits="userSpaceOnUse"><stop offset="0.24" stop-color="#fff"/><stop offset="0.38" stop-color="#fffffc"/><stop offset="0.48" stop-color="#fffef2"/><stop offset="0.57" stop-color="#fffde2"/><stop offset="0.66" stop-color="#fffbcb"/><stop offset="0.74" stop-color="#fff8ae"/><stop offset="0.82" stop-color="#fff589"/><stop offset="0.89" stop-color="#fff25e"/><stop offset="0.97" stop-color="#ffee2e"/><stop offset="1" stop-color="#ffec14"/></linearGradient><filter id="luminosity-noclip-8" x="12.25" y="4.24" width="71.84" height="79.51" filterUnits="userSpaceOnUse" color-interpolation-filters="sRGB"><feFlood flood-color="#fff" result="bg"/><feBlend in="SourceGraphic" in2="bg"/></filter><mask id="mask-8" x="12.25" y="4.24" width="71.84" height="79.51" maskUnits="userSpaceOnUse"><g class="cls-7"><path class="cls-8" d="M59.36,4.24A41.54,41.54,0,0,1,12.25,70.69,41.56,41.56,0,1,0,59.36,4.24Z"/></g></mask><linearGradient id="linear-gradient-6" x1="-42.49" y1="216.75" x2="-10.58" y2="265.88" gradientTransform="matrix(0.92, -0.38, 0.38, 0.92, -14.84, -183.88)" gradientUnits="userSpaceOnUse"><stop offset="0.24" stop-color="#fff"/><stop offset="0.47" stop-color="#fffffd"/><stop offset="0.58" stop-color="#fffef5"/><stop offset="0.66" stop-color="#fffde9"/><stop offset="0.73" stop-color="#fffcd6"/><stop offset="0.79" stop-color="#fffabe"/><stop offset="0.84" stop-color="#fff7a1"/><stop offset="0.89" stop-color="#fff57e"/><stop offset="0.94" stop-color="#fff156"/><stop offset="0.98" stop-color="#ffee29"/><stop offset="1" stop-color="#ffec14"/></linearGradient></defs><g class="cls-9"><g id="Layer_2" data-name="Layer 2"><g id="Layer_1-2" data-name="Layer 1"><circle class="cls-10" cx="41.88" cy="41.88" r="41.88" transform="translate(-6.09 7.15) rotate(-9.1)"/><path class="cls-11" d="M41.88,0A41.78,41.78,0,0,0,31,1.43l.33,0A38.67,38.67,0,0,1,51.06,8.84a10.42,10.42,0,0,1,3.83,4.45c1.53,4.1-1.64,8.34-4.58,11.59L41,35.17c-2.07,2.28-4.26,4.85-4.28,7.93,0,3.3,2.47,6.06,5.06,8.09s5.56,3.83,7.19,6.7c2.14,3.78,1.41,8.72-1,12.33s-6.26,6-10.26,7.72a40.31,40.31,0,0,1-11.17,2.88A41.88,41.88,0,1,0,41.88,0Z"/><path class="cls-11" d="M37,13.16c-2.94,1.25-5.69,3-8.78,3.81-1.27.33-2.84.4-3.66-.62s-.33-2.69.38-3.88S26.59,10,26.39,8.68c-.31-2.13-2.8-2.69-4.69-3.5a41.87,41.87,0,0,0-1.84,72.31l.87-.27c5.06-1.55,10.39-2.77,14.61-6a11.34,11.34,0,0,0,3.87-4.76,6.43,6.43,0,0,0-.48-5.94c-1.44-2.07-4.39-3.2-4.73-5.69-.27-1.94,1.28-3.75,1.15-5.7-.23-3.39-4.77-4.43-6.86-7.11a7,7,0,0,1-.55-7,11.71,11.71,0,0,1,5.15-5.15,73,73,0,0,1,7.71-3.17,14.51,14.51,0,0,0,6.69-4.79c1.57-2.3,1.91-5.62.16-7.79C45.1,11.2,40.48,11.7,37,13.16Z"/><path class="cls-10" d="M75.65,17.12a41.41,41.41,0,0,0-5.82,2.71c-2.76,1.55-5.46,3.84-6,7a3.27,3.27,0,0,0,.41,2.51c.82,1.1,2.42,1.13,3.79,1.25a14.67,14.67,0,0,1,6.72,2.33,1.69,1.69,0,0,1,.75.77c.2.58-.23,1.18-.65,1.62a13.42,13.42,0,0,1-9.37,4c-2.23,0-4.54-.52-6.66.17a9.2,9.2,0,0,0-4.25,3.34C53.11,44.66,52,47,52.32,49.35c.42,3.1,3.19,5.36,6,6.67a8.91,8.91,0,0,0,3.73,1,10.09,10.09,0,0,0,4.74-1.53,52.82,52.82,0,0,0,4.94-3,15.32,15.32,0,0,1,4.74-2.58c2.09-.53,4.28,0,6.44.19a41.94,41.94,0,0,0-7.29-33Z"/><path class="cls-11" d="M83.72,40.59a41.65,41.65,0,0,1-14.24,3,17.93,17.93,0,0,0-5.93,1c-1.86.78-3.48,2.49-3.49,4.5a2.75,2.75,0,0,0,.46,1.61c1,1.38,3.1,1.16,4.66.52,2.34-.94,4.41-2.44,6.68-3.52A27.19,27.19,0,0,1,83.6,45.33c.09-1.14.15-2.29.15-3.45C83.75,41.44,83.73,41,83.72,40.59Z"/><path class="cls-11" d="M70.57,27.77a3.93,3.93,0,0,0,2.61,2.42,14.83,14.83,0,0,0,3.65.53,34.1,34.1,0,0,1,5.67,1,41.74,41.74,0,0,0-5-11.73A26.28,26.28,0,0,0,73.1,22.8C71.56,24,70,25.87,70.57,27.77Z"/><g class="cls-12"><path class="cls-13" d="M60.83,18.25c.54,3,7.07-.25,8.21-1.68a2.37,2.37,0,0,0-1-3.89c-2.46-1-4.59.93-6.16,2.68a3.83,3.83,0,0,0-1,1.85A2.83,2.83,0,0,0,60.83,18.25Z"/><path class="cls-13" d="M60.71,22.86a1.43,1.43,0,0,0-1.26-.72,3.21,3.21,0,0,0-.62.1,1.6,1.6,0,0,0-1.16,1.51v.08a1.86,1.86,0,0,0,.09.48s0,.08,0,.13a1.17,1.17,0,0,0,1.46,1.11,2,2,0,0,0,1.27-.84l.12-.17s0-.1.07-.15a.43.43,0,0,0,0-.07l0-.1a2.56,2.56,0,0,0,.11-.24A1.52,1.52,0,0,0,60.71,22.86Z"/><path class="cls-14" d="M61.46,32.27c-.09-2.09-1.58-4.35-4-3.93-3.73.67-2.37,6.76.83,7.12C60.61,35.71,61.54,34.06,61.46,32.27Z"/><path class="cls-14" d="M58.06,19.14a.94.94,0,0,0,0-1.87A.94.94,0,0,0,58.06,19.14Z"/><path class="cls-14" d="M58.72,15.53a1.44,1.44,0,0,0,1.75-1s0-.09,0-.13a8.53,8.53,0,0,0,.85-1.15A1.23,1.23,0,0,0,60,11.46a3.11,3.11,0,0,0-2.23,2.32A1.47,1.47,0,0,0,58.72,15.53Z"/><path class="cls-13" d="M62.81,12.35a.69.69,0,0,0,0-1.38A.69.69,0,0,0,62.81,12.35Z"/><path class="cls-14" d="M65.1,11.45a.94.94,0,0,0,0-1.87A.94.94,0,0,0,65.1,11.45Z"/><path class="cls-14" d="M76.49,56a1.13,1.13,0,0,0-.63-.49c-2.76-.95-6.13.91-8,2.93a4,4,0,0,0-.74,4.74c1,1.72,3,1.89,4.78,1.35,2.61-.81,6-2.92,6-6A2.94,2.94,0,0,0,76.49,56Z"/><path class="cls-14" d="M61,61.05a2,2,0,1,0,2-2A2,2,0,0,0,61,61.05Z"/><path class="cls-13" d="M64.61,65.3a3.9,3.9,0,0,0-2.35-.54c-1.67.2-4.44,2.59-2.6,4.28,1.62,1.48,4.19.12,5.31-1.33A1.49,1.49,0,0,0,64.61,65.3Z"/><path class="cls-14" d="M68.86,66.13a1.3,1.3,0,0,0,0,2.6A1.3,1.3,0,0,0,68.86,66.13Z"/><path class="cls-14" d="M66.08,70.46a.57.57,0,0,0,0,1.14A.57.57,0,0,0,66.08,70.46Z"/><path class="cls-14" d="M72.62,65.23a1.06,1.06,0,0,0,0,2.11A1.06,1.06,0,0,0,72.62,65.23Z"/></g><path class="cls-15" d="M0,41.88A41.69,41.69,0,0,0,9.41,68.32a15,15,0,0,1,.4-4.22c.93-3.75,3.4-6.92,6.06-9.71a5.23,5.23,0,0,0,1.43-2c.49-1.67-.87-3.36-2.41-4.16s-3.33-1.06-4.85-1.9A7.42,7.42,0,0,1,7.52,36.14,3.2,3.2,0,0,1,8.81,34.9c1.45-.67,3,.43,4.49,1.12a9.12,9.12,0,0,0,9.4-1.13,9.1,9.1,0,0,0,3.05-9c-.4-1.71-1.49-3.42-3.2-3.84-2.4-.6-4.59,1.54-7,2A2.47,2.47,0,0,1,13.94,24a2.86,2.86,0,0,1-1.13-1.34,12.8,12.8,0,0,1-.44-10.47A41.72,41.72,0,0,0,0,41.88Z"/><g class="cls-16"><path class="cls-14" d="M22.18,52.05a1.87,1.87,0,1,0,1.87,1.87A1.88,1.88,0,0,0,22.18,52.05Z"/><path class="cls-17" d="M27.86,46.79a4,4,0,0,0-2-2.54,4.3,4.3,0,0,0-3.33-.31,3.51,3.51,0,0,0-2,1.53A3.6,3.6,0,0,0,20.22,48a2.28,2.28,0,0,0,.28.7,2.88,2.88,0,0,0,.89,1.54l-.12-.09a5.1,5.1,0,0,0,.73.57,3.1,3.1,0,0,0,1.06.36l-.19,0a5,5,0,0,0,2.58,0A3.57,3.57,0,0,0,27.86,46.79Z"/><path class="cls-14" d="M18.75,45.69a.85.85,0,0,0,0-1.7A.85.85,0,0,0,18.75,45.69Z"/><path class="cls-14" d="M14.82,43.73a1.34,1.34,0,0,0,0-2.68A1.34,1.34,0,0,0,14.82,43.73Z"/><path class="cls-14" d="M15.19,60.1a1.06,1.06,0,0,0,0,2.11A1.06,1.06,0,0,0,15.19,60.1Z"/><path class="cls-14" d="M15.63,65.33a1.79,1.79,0,1,0-1.79,1.78A1.82,1.82,0,0,0,15.63,65.33Z"/><path class="cls-17" d="M15.56,67.14a1.5,1.5,0,0,0,0,3A1.5,1.5,0,0,0,15.56,67.14Z"/><path class="cls-17" d="M22.72,62.22a.57.57,0,0,0,.05-.12,2.72,2.72,0,0,0,.11-1,2.2,2.2,0,0,0-1.17-1.95A2.22,2.22,0,0,0,18.9,59a3.75,3.75,0,0,0-1.78,2.11,3.37,3.37,0,0,0,.29,2.84,3,3,0,0,0,3.33,1.35,2.92,2.92,0,0,0,2-2.78Z"/><path class="cls-14" d="M24.76,60.86a1.42,1.42,0,0,0,0-2.84A1.42,1.42,0,0,0,24.76,60.86Z"/><path class="cls-14" d="M24.37,62.44l-.11,0a1.43,1.43,0,0,0,0,2.74l.11,0a1.46,1.46,0,1,0,0-2.82Z"/><path class="cls-14" d="M22.92,65.82a.73.73,0,0,0,0,1.46A.73.73,0,0,0,22.92,65.82Z"/><path class="cls-14" d="M19.85,67.45a.45.45,0,0,0,0,.9A.45.45,0,0,0,19.85,67.45Z"/></g><g class="cls-18"><path class="cls-14" d="M15.63,16.43a2.6,2.6,0,1,0,2.6,2.6A2.63,2.63,0,0,0,15.63,16.43Z"/><path class="cls-14" d="M14.47,15.41a1.33,1.33,0,0,0,1.42.27,1.28,1.28,0,0,0,.79-1.19,1.31,1.31,0,0,0-2.21-.92l-.07.06a1.23,1.23,0,0,0,0,1.72Z"/><path class="cls-14" d="M18.94,13.43a.57.57,0,0,0,0,1.14A.57.57,0,0,0,18.94,13.43Z"/><path class="cls-14" d="M21,16.59A1.22,1.22,0,0,0,21,19,1.22,1.22,0,0,0,21,16.59Z"/><path class="cls-14" d="M21.52,14.25a1,1,0,0,0,0,1.95A1,1,0,0,0,21.52,14.25Z"/><path class="cls-14" d="M21,7.19c-3.55,0-3.56,5.52,0,5.52S24.58,7.19,21,7.19Z"/><path class="cls-14" d="M16.73,12.24a.45.45,0,0,0,0-.89A.45.45,0,0,0,16.73,12.24Z"/></g><g class="cls-19"><path class="cls-10" d="M58.18,75.85a46.92,46.92,0,0,1-15.59,7.88A41.87,41.87,0,0,0,53,1.51a13.7,13.7,0,0,1,1.33.66,14.49,14.49,0,0,1,5.18,5.28,13.89,13.89,0,0,1,2,6.68c.07,3.7-1.63,7.23-3.88,10.18-4.38,5.75-10.73,9.63-16,14.58-1.64,1.54-3.29,3.44-3.24,5.7a6.19,6.19,0,0,0,3,4.75,26.9,26.9,0,0,0,5.35,2.35,39.46,39.46,0,0,1,11.3,6.64c3,2.51,5.78,6,5.36,9.86C63.08,71.35,60.68,73.89,58.18,75.85Z"/><path class="cls-10" d="M42.47,0l-.59,0c-.79,0-1.57,0-2.34.07C40.56.08,41.59.05,42.47,0Z"/></g><path class="cls-20" d="M73.31,14.23A41.86,41.86,0,0,1,4.6,60.94,41.87,41.87,0,1,0,73.31,14.23Z"/><path class="cls-21" d="M68.84,9.85A41.86,41.86,0,0,1,1,51.05,41.87,41.87,0,1,0,68.84,9.85Z"/><path class="cls-22" d="M73.34,14.25A41.88,41.88,0,0,0,26.48,2.93L26.35,3c-.47.18-.93.38-1.39.58l-.13.06a40,40,0,0,0-4,2.06l-.23.13-1.07.66-.46.3-1,.65-.5.35c-1,.73-2,1.49-2.93,2.3l-.62.54-.71.65-.63.6-.66.65-.65.69a41.85,41.85,0,0,0,.76,58.14A41.86,41.86,0,0,1,12.2,16,12.68,12.68,0,0,0,33.72,3a42.26,42.26,0,0,1,9.87-1.18A41.78,41.78,0,0,1,73.34,14.25Z"/><path class="cls-23" d="M2.36,28A25.68,25.68,0,1,0,44.78.11c-1-.06-1.93-.11-2.9-.11A41.88,41.88,0,0,0,2.36,28Z"/><g class="cls-24"><circle class="cls-25" cx="41.88" cy="41.88" r="41.88" transform="translate(-6.09 7.15) rotate(-9.1)"/></g><g class="cls-26"><ellipse class="cls-27" cx="27.99" cy="19.46" rx="18.27" ry="18.25"/></g><g class="cls-28"><path class="cls-29" d="M80.36,25.16A41.14,41.14,0,0,1,78,40,41.58,41.58,0,0,1,.85,43.09,41.57,41.57,0,1,0,80.36,25.16Z"/></g><g class="cls-30"><path class="cls-31" d="M59.36,4.24A41.54,41.54,0,0,1,12.25,70.69,41.56,41.56,0,1,0,59.36,4.24Z"/></g></g></g></g></svg>