<svg xmlns="http://www.w3.org/2000/svg" xmlns:xlink="http://www.w3.org/1999/xlink" viewBox="0 0 106.1 70.09"><defs><style>.cls-1{mask:url(#mask);filter:url(#luminosity-noclip-5);}.cls-2,.cls-22,.cls-23,.cls-24,.cls-4,.cls-6,.cls-8{mix-blend-mode:multiply;}.cls-2{fill:url(#linear-gradient);}.cls-3{mask:url(#mask-2);filter:url(#luminosity-noclip-6);}.cls-4{fill:url(#linear-gradient-2);}.cls-5{mask:url(#mask-3);filter:url(#luminosity-noclip-7);}.cls-6{fill:url(#linear-gradient-3);}.cls-7{mask:url(#mask-4);filter:url(#luminosity-noclip-8);}.cls-8{fill:url(#radial-gradient);}.cls-9{isolation:isolate;}.cls-10,.cls-23,.cls-24,.cls-26{fill:#005dc6;}.cls-11{fill:#247ee2;opacity:0.63;}.cls-12,.cls-13,.cls-18{fill:#154b86;}.cls-12,.cls-14,.cls-17{opacity:0.47;}.cls-13{opacity:0.25;}.cls-14,.cls-16{fill:#368bea;}.cls-15,.cls-28,.cls-30{opacity:0.32;}.cls-19,.cls-26,.cls-28,.cls-30{mix-blend-mode:screen;}.cls-19{opacity:0.38;}.cls-20{fill:#59a7ff;}.cls-21{mask:url(#mask-5);}.cls-22{opacity:0.51;fill:url(#linear-gradient-4);}.cls-23{opacity:0.07;}.cls-24{opacity:0.21;}.cls-25{fill:#70b2ff;opacity:0.28;}.cls-25,.cls-32{mix-blend-mode:overlay;}.cls-26{opacity:0.58;}.cls-27{mask:url(#mask-6);}.cls-28{fill:url(#linear-gradient-5);}.cls-29{mask:url(#mask-7);}.cls-30{fill:url(#linear-gradient-6);}.cls-31{mask:url(#mask-8);}.cls-32{opacity:0.43;fill:url(#radial-gradient-2);}.cls-33{opacity:0.78;fill:url(#linear-gradient-7);}.cls-34{filter:url(#luminosity-noclip-4);}.cls-35{filter:url(#luminosity-noclip-3);}.cls-36{filter:url(#luminosity-noclip-2);}.cls-37{filter:url(#luminosity-noclip);}</style><filter id="luminosity-noclip" x="19.39" y="-7889.53" width="70.09" height="32766" filterUnits="userSpaceOnUse" color-interpolation-filters="sRGB"><feFlood flood-color="#fff" result="bg"/><feBlend in="SourceGraphic" in2="bg"/></filter><mask id="mask" x="19.39" y="-7889.53" width="70.09" height="32766" maskUnits="userSpaceOnUse"><g class="cls-37"/></mask><linearGradient id="linear-gradient" x1="29.65" y1="10.26" x2="79.21" y2="59.82" gradientUnits="userSpaceOnUse"><stop offset="0"/><stop offset="0.27" stop-color="#4c4c4c"/><stop offset="0.63" stop-color="#ababab"/><stop offset="0.88" stop-color="#e8e8e8"/><stop offset="1" stop-color="#fff"/></linearGradient><filter id="luminosity-noclip-2" x="18.78" y="-7889.53" width="70.54" height="32766" filterUnits="userSpaceOnUse" color-interpolation-filters="sRGB"><feFlood flood-color="#fff" result="bg"/><feBlend in="SourceGraphic" in2="bg"/></filter><mask id="mask-2" x="18.78" y="-7889.53" width="70.54" height="32766" maskUnits="userSpaceOnUse"><g class="cls-36"/></mask><linearGradient id="linear-gradient-2" x1="189.18" y1="-66.85" x2="216.25" y2="-25.17" gradientTransform="translate(-149.91 20.68) rotate(19.52)" gradientUnits="userSpaceOnUse"><stop offset="0.24"/><stop offset="0.38" stop-color="#030303"/><stop offset="0.48" stop-color="#0d0d0d"/><stop offset="0.56" stop-color="#1d1d1d"/><stop offset="0.65" stop-color="#343434"/><stop offset="0.73" stop-color="#515151"/><stop offset="0.8" stop-color="#767676"/><stop offset="0.87" stop-color="#a1a1a1"/><stop offset="0.94" stop-color="#d1d1d1"/><stop offset="1" stop-color="#fff"/></linearGradient><filter id="luminosity-noclip-3" x="28.45" y="-7889.53" width="60.95" height="32766" filterUnits="userSpaceOnUse" color-interpolation-filters="sRGB"><feFlood flood-color="#fff" result="bg"/><feBlend in="SourceGraphic" in2="bg"/></filter><mask id="mask-3" x="28.45" y="-7889.53" width="60.95" height="32766" maskUnits="userSpaceOnUse"><g class="cls-35"/></mask><linearGradient id="linear-gradient-3" x1="-144.91" y1="59.89" x2="-117.83" y2="101.56" gradientTransform="matrix(0.92, -0.38, 0.38, 0.92, 153.44, -83.95)" xlink:href="#linear-gradient-2"/><filter id="luminosity-noclip-4" x="30.28" y="-7889.53" width="30.54" height="32766" filterUnits="userSpaceOnUse" color-interpolation-filters="sRGB"><feFlood flood-color="#fff" result="bg"/><feBlend in="SourceGraphic" in2="bg"/></filter><mask id="mask-4" x="30.28" y="-7889.53" width="30.54" height="32766" maskUnits="userSpaceOnUse"><g class="cls-34"/></mask><radialGradient id="radial-gradient" cx="45.55" cy="18" r="15.27" gradientUnits="userSpaceOnUse"><stop offset="0" stop-color="#fff"/><stop offset="0.1" stop-color="#fafafa"/><stop offset="0.22" stop-color="#eaeaea"/><stop offset="0.36" stop-color="#d0d0d0"/><stop offset="0.51" stop-color="#adadad"/><stop offset="0.66" stop-color="#7f7f7f"/><stop offset="0.82" stop-color="#474747"/><stop offset="0.99" stop-color="#050505"/><stop offset="1"/></radialGradient><filter id="luminosity-noclip-5" x="19.39" y="0" width="70.09" height="70.09" filterUnits="userSpaceOnUse" color-interpolation-filters="sRGB"><feFlood flood-color="#fff" result="bg"/><feBlend in="SourceGraphic" in2="bg"/></filter><mask id="mask-5" x="19.39" y="0" width="70.09" height="70.09" maskUnits="userSpaceOnUse"><g class="cls-1"><circle class="cls-2" cx="54.43" cy="35.04" r="35.04"/></g></mask><linearGradient id="linear-gradient-4" x1="29.65" y1="10.26" x2="79.21" y2="59.82" gradientUnits="userSpaceOnUse"><stop offset="0" stop-color="#fff"/><stop offset="0.09" stop-color="#ebebf6"/><stop offset="0.54" stop-color="#8b8fce"/><stop offset="0.85" stop-color="#4f55b4"/><stop offset="1" stop-color="#383eaa"/></linearGradient><filter id="luminosity-noclip-6" x="18.78" y="20.34" width="70.54" height="49.68" filterUnits="userSpaceOnUse" color-interpolation-filters="sRGB"><feFlood flood-color="#fff" result="bg"/><feBlend in="SourceGraphic" in2="bg"/></filter><mask id="mask-6" x="18.78" y="20.34" width="70.54" height="49.68" maskUnits="userSpaceOnUse"><g class="cls-3"><path class="cls-4" d="M86.24,20.34A35.27,35.27,0,0,1,18.78,35.56,35.27,35.27,0,1,0,86.24,20.34Z"/></g></mask><linearGradient id="linear-gradient-5" x1="189.18" y1="-66.85" x2="216.25" y2="-25.17" gradientTransform="translate(-149.91 20.68) rotate(19.52)" gradientUnits="userSpaceOnUse"><stop offset="0.24" stop-color="#fff"/><stop offset="0.92" stop-color="#fff"/><stop offset="1" stop-color="#fff"/></linearGradient><filter id="luminosity-noclip-7" x="28.45" y="2.57" width="60.95" height="67.51" filterUnits="userSpaceOnUse" color-interpolation-filters="sRGB"><feFlood flood-color="#fff" result="bg"/><feBlend in="SourceGraphic" in2="bg"/></filter><mask id="mask-7" x="28.45" y="2.57" width="60.95" height="67.51" maskUnits="userSpaceOnUse"><g class="cls-5"><path class="cls-6" d="M68.42,2.57A35.27,35.27,0,0,1,28.45,59a35.27,35.27,0,1,0,40-56.43Z"/></g></mask><linearGradient id="linear-gradient-6" x1="-144.91" y1="59.89" x2="-117.83" y2="101.56" gradientTransform="matrix(0.92, -0.38, 0.38, 0.92, 153.44, -83.95)" gradientUnits="userSpaceOnUse"><stop offset="0.24" stop-color="#fff"/><stop offset="0.39" stop-color="#fcffff"/><stop offset="0.5" stop-color="#f2ffff"/><stop offset="0.6" stop-color="#e2feff"/><stop offset="0.7" stop-color="#cbfdff"/><stop offset="0.78" stop-color="#aefcff"/><stop offset="0.87" stop-color="#8afbff"/><stop offset="0.95" stop-color="#5ff9ff"/><stop offset="1" stop-color="#40f8ff"/></linearGradient><filter id="luminosity-noclip-8" x="30.28" y="2.73" width="30.54" height="30.54" filterUnits="userSpaceOnUse" color-interpolation-filters="sRGB"><feFlood flood-color="#fff" result="bg"/><feBlend in="SourceGraphic" in2="bg"/></filter><mask id="mask-8" x="30.28" y="2.73" width="30.54" height="30.54" maskUnits="userSpaceOnUse"><g class="cls-7"><circle class="cls-8" cx="45.55" cy="18" r="15.27"/></g></mask><radialGradient id="radial-gradient-2" cx="45.55" cy="18" r="15.27" gradientUnits="userSpaceOnUse"><stop offset="0" stop-color="#ececec"/><stop offset="0.47" stop-color="#f1f1f1"/><stop offset="1" stop-color="#fff"/></radialGradient><linearGradient id="linear-gradient-7" x1="-91.59" y1="0.28" x2="28.33" y2="0.28" gradientTransform="translate(81.56 22.27) rotate(-25.92)" gradientUnits="userSpaceOnUse"><stop offset="0" stop-color="#77edf6"/><stop offset="0.16" stop-color="#6be1f0"/><stop offset="0.44" stop-color="#4cc0e1"/><stop offset="0.82" stop-color="#1a8cc8"/><stop offset="0.99" stop-color="#0071bb"/></linearGradient></defs><g class="cls-9"><g id="Layer_2" data-name="Layer 2"><g id="Layer_1-2" data-name="Layer 1"><circle class="cls-10" cx="54.43" cy="35.04" r="35.04"/><path class="cls-11" d="M54.43,0c-1.12,0-2.22.06-3.32.16C50.58.21,49.2,4.84,49,5.45a29,29,0,0,0-1.72,9.21,9.18,9.18,0,0,0,3.92,7.77c2.36,1.58,5.05,1.35,7.8,1.36,3.72,0,7.48-.66,11.15-.06a26.71,26.71,0,0,1,8.26,2.7,17.89,17.89,0,0,1,7.46,7.19,15.53,15.53,0,0,1,1.56,6.14c.1,1.07.12,2.14.2,3.2a12.3,12.3,0,0,1,.32,2.37A35.08,35.08,0,0,0,54.43,0Z"/><path class="cls-11" d="M20.16,42.34A35.05,35.05,0,0,0,51.49,70c1.85.15-1.27-10.41-1.77-11.37-3.07-5.79-8.39-9.89-12.39-15a8.2,8.2,0,0,1-2.07-5.13c.24-7.86,14.6-3.94,14.09-12.24a6.78,6.78,0,0,0-2.44-4.59c-2.77-2.42-6.4-3.38-9.78-4.6a18.69,18.69,0,0,1-4.5-2.17c-.41-.29-4.15-3.41-3.67-3.92A35,35,0,0,0,20.16,42.34Z"/><path class="cls-12" d="M39.31,39.17c.08,2.3,2.82,4,4.81,4.62a2.31,2.31,0,0,0,2-.17c1.07-.71.74-1.86.79-2.91s.46-2.58-.2-3.53c-1.43-2.06-6.47-1.55-7.26.9A3.28,3.28,0,0,0,39.31,39.17Z"/><path class="cls-11" d="M31,9a7.68,7.68,0,0,0,4,2.2c1.4.33,3.13.29,4-.89s.38-2.65.93-3.87a4.48,4.48,0,0,1,3-2.15,14.52,14.52,0,0,0,3.56-1.21,4.67,4.67,0,0,0,2-2.53A35,35,0,0,0,31,9Z"/><path class="cls-13" d="M73.13,28.83a9.91,9.91,0,0,0-2,.22c-2.06.46-5.08,2.24-3.28,4.8A6,6,0,0,0,70.8,35.7a7.64,7.64,0,0,1,3.07,1.66c1.44,1.54,1.21,4,.3,5.93s-2.4,3.47-3.36,5.34-1.3,4.33,0,6a4.75,4.75,0,0,0,5.45,1,10.27,10.27,0,0,0,4.27-4,19.19,19.19,0,0,0,3.43-11,12.7,12.7,0,0,0-5.09-10A10.09,10.09,0,0,0,73.13,28.83Z"/><path class="cls-14" d="M36.24,46.72A28.45,28.45,0,0,1,32,42.85a6.54,6.54,0,0,1-1.56-5.33c.63-2.91,3.7-4.45,6.21-6a8.66,8.66,0,0,0,2.87-2.64,3.68,3.68,0,0,0,.21-3.73c-.89-1.49-2.83-1.82-4.49-2.33A14,14,0,0,1,27,15.69a13.23,13.23,0,0,1-.64-1.64,35,35,0,0,0,18,54.57,12,12,0,0,0,1.4-3.32A11.14,11.14,0,0,0,45.5,60C44.05,54.7,40.45,50.22,36.24,46.72Z"/><path class="cls-14" d="M55.15,0C54.44,1.44,53.89,3,53.53,3.83A37.22,37.22,0,0,0,51,13.21a7.19,7.19,0,0,0,.22,3.69,5.19,5.19,0,0,0,3.56,2.82,13.59,13.59,0,0,0,4.68.2c3.44-.28,6.87-.8,10.32-.79a20,20,0,0,1,10,2.28,20.61,20.61,0,0,1,6.36,6.25,37.62,37.62,0,0,1,3.32,5.91A35,35,0,0,0,55.15,0Z"/><path class="cls-14" d="M74.23,35.41c2.34,1.87,2.85,5.31,2.14,8.21-.58,2.36-1.84,4.59-1.82,7a1.53,1.53,0,0,0,.17.77c.37.6,1.28.48,1.92.19,3.18-1.46,4.81-5.18,4.91-8.69a12.18,12.18,0,0,0-2.22-7.6,8.76,8.76,0,0,0-6-3.58c-1,0-1.68.27-1.44,1.41S73.44,34.78,74.23,35.41Z"/><g class="cls-15"><path class="cls-16" d="M69.39,39.82c-.14,2.4-2.52,3.07-3.38,5-.43,1,0,2.47,1.34,2.34,3.35-.32,6.18-4.55,5-7.74a1.53,1.53,0,0,0-3,.4Z"/></g><g class="cls-15"><path class="cls-16" d="M65.77,49.49c-2.25,2-2.16,5.83-.65,8.26,1.29,2.07,4.43,4.4,6.69,2.41a1.44,1.44,0,0,0,0-2c-1-1.22-2.77-1.22-3.58-2.79s-.46-3.64-.82-5.44a1,1,0,0,0-1.64-.43Z"/></g><g class="cls-15"><path class="cls-16" d="M60.55,52.59a1.67,1.67,0,0,0-.6,1c-.26,1.28-.18,3.5,1.3,4a.87.87,0,0,0,1-.39c.64-1,.14-2.09,0-3.13-.1-.71-.09-1.91-1.19-1.69A1,1,0,0,0,60.55,52.59Z"/></g><g class="cls-17"><path class="cls-18" d="M43.2,7.41A4.31,4.31,0,0,0,42,9.47c-.31,2.46-.61,3.37-3.21,3.73a1,1,0,0,0-.71,1.25c.76,2.15,3.92,1,5.22,0s1.63-2.71,1.56-4.38C44.82,9.2,44.75,6,43.2,7.41Z"/></g><path class="cls-14" d="M45.45,39.16a3.2,3.2,0,0,0-1.21-2,2.15,2.15,0,0,0-2.66.42C38.44,40.8,46.51,44.17,45.45,39.16Z"/><g class="cls-17"><path class="cls-18" d="M37.27,28.23c-1.67-.78-3.88.07-5.32,1.09s-3.18,2.73-2.6,4.6a1.16,1.16,0,0,0,1.22.7c1.38-.21,2.25-1.64,3.35-2.4,1.93-1.31,2.36-1,3.58-2.13a1.1,1.1,0,0,0-.23-1.86Z"/></g><g class="cls-17"><path class="cls-18" d="M26.37,37.84c-1.66,3.74.47,7.8,3.49,10.18,2.21,1.74,4.26,2.89,5.8,5.33s1.69,5.3,3.4,7.56a1.1,1.1,0,0,0,1.87,0c2.45-3.61-.28-8.64-2.91-11.4a24.49,24.49,0,0,0-5.61-3.95c-3.09-1.85-3.73-4.34-4.74-7.55-.16-.53-1-.77-1.3-.17Z"/></g><g class="cls-17"><path class="cls-18" d="M31.22,54.72c.37.83.82,1.65,1.17,2.49.43,1,.53,2,1.49,2.67a1.58,1.58,0,0,0,1.9-.25c1.07-1.2.64-2.8-.25-4a7,7,0,0,0-3-2.27,1,1,0,0,0-1.34,1.35Z"/></g><g class="cls-17"><path class="cls-10" d="M57.86,3.59A7.63,7.63,0,0,0,55.54,5.9,9.4,9.4,0,0,0,53.7,14a5.61,5.61,0,0,0,8.65,2.87A1.27,1.27,0,0,0,62,14.76a4.64,4.64,0,0,0-2-.41,3.77,3.77,0,0,1-2-.51,2.61,2.61,0,0,1-1-2c-.2-2.37,1.18-4.77,2.4-6.69a1.18,1.18,0,0,0-1.17-1.71A1.31,1.31,0,0,0,57.86,3.59Z"/></g><g class="cls-17"><path class="cls-10" d="M61.84,7.36a2.59,2.59,0,0,0-1.68,1.22,2.52,2.52,0,0,0,.43,2.88c.93.79,2.75.44,2.85-.94,0,.16-.07.32-.1.48C63.56,9.93,63.57,7,61.84,7.36Z"/></g><g class="cls-19"><path class="cls-20" d="M66.1,40.16c2.62,0,2.63-4.07,0-4.07s-2.63,4.07,0,4.07Z"/><path class="cls-20" d="M62,43.28A1.15,1.15,0,0,0,62,41a1.15,1.15,0,0,0,0,2.3Z"/><path class="cls-20" d="M59.94,48.45a1.09,1.09,0,0,0,0-2.17,1.09,1.09,0,0,0,0,2.17Z"/><path class="cls-20" d="M55.53,51.12a.48.48,0,0,0,0-.95.48.48,0,0,0,0,.95Z"/><path class="cls-20" d="M65.69,65.38a1.49,1.49,0,0,0,0-3,1.49,1.49,0,0,0,0,3Z"/><path class="cls-20" d="M69.69,65.32a1,1,0,0,0,0-2,1,1,0,0,0,0,2Z"/><path class="cls-20" d="M61.17,67.24a.38.38,0,0,0,0-.75.38.38,0,0,0,0,.75Z"/><path class="cls-20" d="M69.9,27.14a.72.72,0,0,0,0-1.43.72.72,0,0,0,0,1.43Z"/><path class="cls-20" d="M73.18,27.38a.85.85,0,0,0,0-1.7.85.85,0,0,0,0,1.7Z"/><path class="cls-20" d="M49.37,13a.78.78,0,0,0,0-1.56.78.78,0,0,0,0,1.56Z"/><path class="cls-20" d="M48.86,16.09a.85.85,0,0,0,0-1.7.85.85,0,0,0,0,1.7Z"/><path class="cls-20" d="M49.88,19.75a1.13,1.13,0,0,0,0-2.25,1.13,1.13,0,0,0,0,2.25Z"/><path class="cls-20" d="M53,19.52l-.05-.05a1,1,0,0,0-1.39,0l0,.05a1.05,1.05,0,1,0,1.49,0Z"/></g><g class="cls-21"><circle class="cls-22" cx="54.43" cy="35.04" r="35.04"/></g><path class="cls-23" d="M54.43,70.09A35,35,0,1,0,47.37.71,37.12,37.12,0,0,1,65,7.48a34.31,34.31,0,0,1,6.28,5.82c3,3.58,5.32,7.89,5.73,12.54s-1.36,9.64-5.18,12.33c-4.76,3.35-12.13,3-15.17,8-1.86,3-1.33,7-3,10.17-2,3.87-6.73,5.42-11,6.18a40.51,40.51,0,0,1-9.06.65A34.84,34.84,0,0,0,54.43,70.09Z"/><path class="cls-24" d="M54.43,70.09A35,35,0,0,0,62.21.88a4.06,4.06,0,0,0,.85.51A36.24,36.24,0,0,1,79.3,17a34.18,34.18,0,0,1,3.83,12.06,12.59,12.59,0,0,1-.67,6.7c-2.06,4.47-7.63,5.8-11.78,8.45a5.84,5.84,0,0,0-2.06,1.95c-.88,1.59-.38,3.56-.56,5.38-.32,3.23-2.8,5.85-5.52,7.64-8.52,5.62-20,5.24-29.3,1a42.83,42.83,0,0,1-6.63-3.84A35,35,0,0,0,54.43,70.09Z"/><path class="cls-25" d="M54.43.05a35.54,35.54,0,0,0-31.3,19.33,35.19,35.19,0,0,0,2.69,35.83c-1.24-5.15-2.31-10.46-1.59-15.7S27.77,29,32.52,26.73C38.45,23.84,45.66,26,52,24.26c3.6-1,7-3.31,10.75-2.78a24.41,24.41,0,0,0,3,.51,2.55,2.55,0,0,0,2.51-1.43c.48-1.37-.84-2.73-.88-4.18,0-2.11,2.46-3.27,4.55-3.49a17.77,17.77,0,0,1,11.66,2.93A35.51,35.51,0,0,0,55.89.08C55.4.06,54.92.05,54.43.05Z"/><path class="cls-26" d="M54.43,0A35,35,0,0,0,28.56,58.68,35.05,35.05,0,0,1,27.84,16,13.12,13.12,0,0,0,50.24,2.29,34.92,34.92,0,0,1,81.83,13.22,34.93,34.93,0,0,0,54.43,0Z"/><g class="cls-27"><path class="cls-28" d="M86.24,20.34A35.27,35.27,0,0,1,18.78,35.56,35.27,35.27,0,1,0,86.24,20.34Z"/></g><g class="cls-29"><path class="cls-30" d="M68.42,2.57A35.27,35.27,0,0,1,28.45,59a35.27,35.27,0,1,0,40-56.43Z"/></g><g class="cls-31"><circle class="cls-32" cx="45.55" cy="18" r="15.27"/></g><path class="cls-33" d="M22,47.52c-.19-.37-.35-.76-.53-1.13C7.11,55.33.79,61.05.06,63.6a.63.63,0,0,0,0,.46l0,.09a.78.78,0,0,0,.39.23C2.29,65,11.69,65.13,56,41.84c26.69-14,44.89-27.48,49.83-33a1,1,0,0,0-.88-1.6c-3.66.6-10.88,2.81-21.32,7.11.16.27.33.54.47.81,8.61-3.5,14.26-5.05,14.91-3.82,1.29,2.47-18,15.19-43.16,28.42S9.31,61.69,8,59.22C7.3,57.87,12.79,53.43,22,47.52Z"/></g></g></g></svg>