<svg xmlns="http://www.w3.org/2000/svg" xmlns:xlink="http://www.w3.org/1999/xlink" viewBox="0 0 99.21 77.78"><defs><style>.cls-1{mask:url(#mask);}.cls-13,.cls-14,.cls-19,.cls-2,.cls-4,.cls-6{mix-blend-mode:multiply;}.cls-2{fill:url(#linear-gradient);}.cls-3{mask:url(#mask-2);}.cls-4{fill:url(#linear-gradient-2);}.cls-5{mask:url(#mask-3);}.cls-6{fill:url(#linear-gradient-3);}.cls-7{fill:none;}.cls-8{isolation:isolate;}.cls-9{clip-path:url(#clip-path);}.cls-10,.cls-13,.cls-14,.cls-15,.cls-16,.cls-17{fill:#f1ac5e;}.cls-11{fill:#f19b3a;}.cls-12{fill:#f18913;}.cls-13{opacity:0.61;}.cls-14{opacity:0.82;}.cls-15,.cls-16,.cls-17,.cls-21,.cls-23{mix-blend-mode:screen;}.cls-15{opacity:0.25;}.cls-16{opacity:0.58;}.cls-17{opacity:0.5;}.cls-18{mask:url(#mask-4);}.cls-19{opacity:0.51;fill:url(#linear-gradient-4);}.cls-20{mask:url(#mask-5);}.cls-21,.cls-23{opacity:0.32;}.cls-21{fill:url(#linear-gradient-5);}.cls-22{mask:url(#mask-6);}.cls-23{fill:url(#linear-gradient-6);}.cls-24{filter:url(#luminosity-noclip-6);}.cls-25{filter:url(#luminosity-noclip-5);}.cls-26{filter:url(#luminosity-noclip-4);}.cls-27{filter:url(#luminosity-noclip-3);}.cls-28{filter:url(#luminosity-noclip-2);}.cls-29{filter:url(#luminosity-noclip);}</style><filter id="luminosity-noclip" x="0" y="-8066.46" width="71.51" height="32766" filterUnits="userSpaceOnUse" color-interpolation-filters="sRGB"><feFlood flood-color="#fff" result="bg"/><feBlend in="SourceGraphic" in2="bg"/></filter><mask id="mask" x="0" y="-8066.46" width="71.51" height="32766" maskUnits="userSpaceOnUse"><g class="cls-29"/></mask><linearGradient id="linear-gradient" x1="10.47" y1="10.47" x2="61.04" y2="61.04" gradientTransform="translate(56.09 -10.54) rotate(68.71)" gradientUnits="userSpaceOnUse"><stop offset="0"/><stop offset="1" stop-color="#fff"/></linearGradient><filter id="luminosity-noclip-2" x="0.45" y="-8066.46" width="70.54" height="32766" filterUnits="userSpaceOnUse" color-interpolation-filters="sRGB"><feFlood flood-color="#fff" result="bg"/><feBlend in="SourceGraphic" in2="bg"/></filter><mask id="mask-2" x="0.45" y="-8066.46" width="70.54" height="32766" maskUnits="userSpaceOnUse"><g class="cls-28"/></mask><linearGradient id="linear-gradient-2" x1="133.48" y1="68.33" x2="160.55" y2="110.01" gradientTransform="translate(-70.57 -86.6) rotate(19.52)" gradientUnits="userSpaceOnUse"><stop offset="0.24"/><stop offset="0.38" stop-color="#030303"/><stop offset="0.48" stop-color="#0d0d0d"/><stop offset="0.56" stop-color="#1d1d1d"/><stop offset="0.65" stop-color="#343434"/><stop offset="0.73" stop-color="#515151"/><stop offset="0.8" stop-color="#767676"/><stop offset="0.87" stop-color="#a1a1a1"/><stop offset="0.94" stop-color="#d1d1d1"/><stop offset="1" stop-color="#fff"/></linearGradient><filter id="luminosity-noclip-3" x="10.11" y="-8066.46" width="60.95" height="32766" filterUnits="userSpaceOnUse" color-interpolation-filters="sRGB"><feFlood flood-color="#fff" result="bg"/><feBlend in="SourceGraphic" in2="bg"/></filter><mask id="mask-3" x="10.11" y="-8066.46" width="60.95" height="32766" maskUnits="userSpaceOnUse"><g class="cls-27"/></mask><linearGradient id="linear-gradient-3" x1="-68.23" y1="-66.52" x2="-41.15" y2="-24.84" gradientTransform="matrix(0.92, -0.38, 0.38, 0.92, 112.51, 63.67)" xlink:href="#linear-gradient-2"/><clipPath id="clip-path" transform="translate(15.92 4.91)"><circle class="cls-7" cx="35.75" cy="35.75" r="35.75" transform="translate(-10.54 56.09) rotate(-68.71)"/></clipPath><filter id="luminosity-noclip-4" x="0" y="0" width="71.51" height="71.51" filterUnits="userSpaceOnUse" color-interpolation-filters="sRGB"><feFlood flood-color="#fff" result="bg"/><feBlend in="SourceGraphic" in2="bg"/></filter><mask id="mask-4" x="15.92" y="4.91" width="71.51" height="71.51" maskUnits="userSpaceOnUse"><g class="cls-26"><g transform="translate(15.92 4.91)"><g class="cls-1"><circle class="cls-2" cx="35.75" cy="35.75" r="35.75" transform="translate(-10.54 56.09) rotate(-68.71)"/></g></g></g></mask><linearGradient id="linear-gradient-4" x1="10.47" y1="10.47" x2="61.04" y2="61.04" gradientTransform="translate(56.09 -10.54) rotate(68.71)" gradientUnits="userSpaceOnUse"><stop offset="0" stop-color="#fff100"/><stop offset="1" stop-color="#ec8d66"/></linearGradient><filter id="luminosity-noclip-5" x="0.45" y="21.86" width="70.54" height="49.68" filterUnits="userSpaceOnUse" color-interpolation-filters="sRGB"><feFlood flood-color="#fff" result="bg"/><feBlend in="SourceGraphic" in2="bg"/></filter><mask id="mask-5" x="16.36" y="26.77" width="70.54" height="49.68" maskUnits="userSpaceOnUse"><g class="cls-25"><g transform="translate(15.92 4.91)"><g class="cls-3"><path class="cls-4" d="M67.9,21.86A35.27,35.27,0,0,1,.45,37.08,35.27,35.27,0,1,0,67.9,21.86Z"/></g></g></g></mask><linearGradient id="linear-gradient-5" x1="133.48" y1="68.33" x2="160.55" y2="110.01" gradientTransform="translate(-70.57 -86.6) rotate(19.52)" gradientUnits="userSpaceOnUse"><stop offset="0.24" stop-color="#fff"/><stop offset="0.92" stop-color="#fff"/><stop offset="1" stop-color="#fff"/></linearGradient><filter id="luminosity-noclip-6" x="10.11" y="4.09" width="60.95" height="67.51" filterUnits="userSpaceOnUse" color-interpolation-filters="sRGB"><feFlood flood-color="#fff" result="bg"/><feBlend in="SourceGraphic" in2="bg"/></filter><mask id="mask-6" x="26.03" y="9" width="60.95" height="67.51" maskUnits="userSpaceOnUse"><g class="cls-24"><g transform="translate(15.92 4.91)"><g class="cls-5"><path class="cls-6" d="M50.08,4.09a35.27,35.27,0,0,1-40,56.43,35.27,35.27,0,1,0,40-56.43Z"/></g></g></g></mask><linearGradient id="linear-gradient-6" x1="-68.23" y1="-66.52" x2="-41.15" y2="-24.84" gradientTransform="matrix(0.92, -0.38, 0.38, 0.92, 112.51, 63.67)" gradientUnits="userSpaceOnUse"><stop offset="0.24" stop-color="#fff"/><stop offset="0.39" stop-color="#fffefc"/><stop offset="0.5" stop-color="#fffaf2"/><stop offset="0.6" stop-color="#fff4e2"/><stop offset="0.7" stop-color="#ffeccb"/><stop offset="0.78" stop-color="#ffe1ae"/><stop offset="0.87" stop-color="#ffd48a"/><stop offset="0.95" stop-color="#ffc55f"/><stop offset="1" stop-color="#ffb940"/></linearGradient></defs><g class="cls-8"><g id="Layer_2" data-name="Layer 2"><g id="Layer_1-2" data-name="Layer 1"><g class="cls-9"><circle class="cls-10" cx="35.75" cy="35.75" r="35.75" transform="translate(5.38 61) rotate(-68.71)"/><path class="cls-11" d="M71.51,35.75A35.66,35.66,0,0,0,68.75,22a14.44,14.44,0,0,1-5.88,7c-2.61,1.54-5.73,2.3-7.95,4.37s-3.12,4.86-5.11,6.95c-6,6.27-17.06,2.68-24.4,7.24-2.81,1.74-4.82,4.55-7.61,6.33C14.48,56,10.36,56.45,6.4,56.15a35.75,35.75,0,0,0,65.11-20.4Z" transform="translate(15.92 4.91)"/><path class="cls-11" d="M37.57,42.81c2.59.71,8,0,11-3.4s1.16-5.7-1.74-4.23S34.78,42,37.57,42.81Z" transform="translate(15.92 4.91)"/><path class="cls-12" d="M-7.27,36.14c-1.19,2,.45,4,1.93,5.3a10.07,10.07,0,0,0,7.73,2.14c6.45-.73,10.86-6.4,16.36-9.23,3-1.52,5.85-1.66,9.12-1.45A26.19,26.19,0,0,0,39,31.76c3-1.11,5.84-2.66,9-3.4,3.32-.78,6.47-1.1,9.37-3,5.38-3.59,8.16-9.57,8.8-15.86.29-2.86.68-7.59-2.86-8.68s-4.63,2.88-4.58,5.55c.11,6-2.35,12.5-8.73,14a51.41,51.41,0,0,0-9,2.56c-3.35,1.45-6.36,3-10.1,2.94-3.9,0-7.71-.53-11.5.73a34.17,34.17,0,0,0-10,5.92c-2.51,2-5.21,4.38-8.46,4.91a7.17,7.17,0,0,1-3.7-.32c-1.24-.51-1.91-1.46-3.3-1.63a1.33,1.33,0,0,0-1.16.67Z" transform="translate(15.92 4.91)"/><path class="cls-12" d="M57.55,22.41c-4.5-.36-10.16,3-13.47,5.8C41.86,30.11,40,32.6,37.39,34c-2.83,1.49-6.19,1.19-9.19,2.12-5.86,1.81-9.82,5.79-13.32,10.63-1.65,2.28-3.34,4.51-5.83,5.92A24.34,24.34,0,0,1,.32,55.14a44.14,44.14,0,0,1-9,.5c-2.15-.16-6.11-1.27-7,1.64s2.69,4.45,4.79,4.88c3.43.7,7,.3,10.46-.12,5.89-.72,11.84-1.91,16.37-6s6.47-9.94,11.77-13c3-1.71,6.41-1.83,9.6-3a19.47,19.47,0,0,0,7.69-5.82,29.34,29.34,0,0,1,7-6.06c2.26-1.35,4.72-2.45,6.23-4.7a.72.72,0,0,0-.62-1.08Z" transform="translate(15.92 4.91)"/><path class="cls-11" d="M-2.11,14.5c-4,4.09-3.61,14.47,4,13.49,3.85-.49,7.34-3.44,10.79-5a15.73,15.73,0,0,1,6.25-1.72c2,0,4,.71,6,1,7.5,1.25,16.52-2,23-5.65a17.2,17.2,0,0,0,7.66-7.86C57.06,5.13,56.82.1,53.76-2.71a4,4,0,0,0-3.81-1C47-2.74,46.78.13,47.64,2.71c1,2.91.49,4.79-2.09,6.67C40.81,12.82,33.83,15.76,28,16.27c-3.07.27-6-.86-9.08-.77a21,21,0,0,0-8.25,2.25c-1.46.7-2.86,1.52-4.26,2.33S3.24,22.27,1.6,22.64c-1.92.45-1.87-1.23-1.88-2.78s.28-3,.29-4.48a1.25,1.25,0,0,0-2.12-.88Z" transform="translate(15.92 4.91)"/><path class="cls-11" d="M41.14-4.62c-2.35,1.33-2.5,4.68-3.34,7a24.8,24.8,0,0,1-5.37,8.32,19.38,19.38,0,0,1-8.57,5.18c-3.09.86-6.69.68-9.54,2.15a1.49,1.49,0,0,0,.35,2.69c3.3,1,7.46-.21,10.75-.89a30.62,30.62,0,0,0,10.94-4c6.29-4.08,10.24-11.69,8-19.1a2.2,2.2,0,0,0-3.2-1.3Z" transform="translate(15.92 4.91)"/><path class="cls-12" d="M75.44,15.7C69.45,33,56.11,47.24,37.88,51.24c-4.75,1-9.67,1.06-14.38,2.3-4.27,1.12-8.11,3.34-12.11,5.12C7.11,60.56,3,61.4-1.58,60S-9.66,55.44-14,53.87c-1.09-.39-2,1-1.44,1.86C-11.88,62.14-3.6,66.58,3.7,66.41c8.11-.18,14.56-5.78,22.28-7.47,4.14-.92,8.43-1,12.59-1.89A53.84,53.84,0,0,0,49.7,53.36a50.4,50.4,0,0,0,18.48-14.1,45.86,45.86,0,0,0,10-23.18c.22-1.67-2.29-1.8-2.79-.38Z" transform="translate(15.92 4.91)"/><path class="cls-10" d="M12.79,69.79c7-3,15-3.23,22.5-4.18a67.92,67.92,0,0,0,20.39-5.69A59.68,59.68,0,0,0,72.84,47.81c4.79-4.87,9.14-10.5,10.42-17.32a1.33,1.33,0,0,0-2.41-1c-4,5.42-7.32,11.24-12.14,16A56.52,56.52,0,0,1,51.41,57a78.41,78.41,0,0,1-20.13,5.31c-6.93,1-13.41,2.09-19.07,6.46a.57.57,0,0,0,.58,1Z" transform="translate(15.92 4.91)"/><path class="cls-10" d="M60,32.51c-.69-.47-1.85.25-2.43.66s-1.76,1.3-1.3,2.23,1.38.56,2,.2a23.49,23.49,0,0,0,2.8-1.92.79.79,0,0,0-.35-1.31c-1.59-.38-4.12.31-4.16,2.31a.77.77,0,0,0,1.3.54c.73-.65,1.29-1.61,2.45-1.34L60,32.57c-.51.4-1,.77-1.57,1.13l-.9.56-.27.16c.22.6.44.76.65.49.21-.12.4-.41.6-.56a6.76,6.76,0,0,1,.7-.49c.41-.27.84-.42,1-.9a.4.4,0,0,0-.18-.45Z" transform="translate(15.92 4.91)"/><path class="cls-10" d="M56.23,36.94a1.44,1.44,0,0,0-1.19.5.71.71,0,0,0,.49,1.2,1.17,1.17,0,0,0,1.18-1.14.73.73,0,0,0-.53-.69c-.75-.24-1.9.52-1.59,1.36a.71.71,0,0,0,.65.5,1,1,0,0,0,.76-.35c.15-.15-.09.06.09-.06l0,0a.56.56,0,0,0,.23-.12l-1.07-.62a.26.26,0,0,1,.25-.26l.68.88a1.05,1.05,0,0,1,.23-.4.42.42,0,0,0-.21-.78Z" transform="translate(15.92 4.91)"/><path class="cls-10" d="M59.52,11.93c-.6.64-.54,1.14-.74,2a12.53,12.53,0,0,1-1.55,3.7,25.55,25.55,0,0,1-5.16,5.43c-.28.24.07.65.38.49A15.86,15.86,0,0,0,58.62,18c.94-1.51,2.51-4.55,1.11-6.11a.14.14,0,0,0-.21,0Z" transform="translate(15.92 4.91)"/><path class="cls-10" d="M48.82,27.51c-3.07,1.22-4.88,3.54-7.13,5.86-3.13,3.2-7,4.33-10.95,6.16-.43.2-.12.82.3.73a24.57,24.57,0,0,0,9.7-4.39c3-2.37,4.95-5.86,8.35-7.73.33-.18.1-.77-.27-.63Z" transform="translate(15.92 4.91)"/><path class="cls-10" d="M14,61c2.93-.78,5.54-2.37,8.55-3a67.82,67.82,0,0,1,9.43-1.14c5.47-.43,12-.66,16.33-4.39a.76.76,0,0,0-.73-1.26,69.42,69.42,0,0,1-9.28,2.49c-3.38.54-6.79.65-10.19,1-4.73.47-11.87,1.11-14.89,5.33-.36.52.24,1.16.78,1Z" transform="translate(15.92 4.91)"/><path class="cls-10" d="M59.57,42.71c-1.69.82-2.81,2.28-4.21,3.48s-3.49,2-4.26,3.47a.65.65,0,0,0,.55,1c1.65.2,3.4-1.41,4.58-2.41a38.24,38.24,0,0,0,4-4.59.58.58,0,0,0-.7-.91Z" transform="translate(15.92 4.91)"/><path class="cls-10" d="M3.13,25c2.25,1.26,4.21-.51,6.05-1.79,3-2.07,6.12-4,9.84-4.13,3.52-.14,7,.71,10.53.53a20,20,0,0,0,8.92-2.25c.53-.29.34-1.29-.33-1.22-3.19.38-6.34,1.13-9.56,1.2s-6.37-.65-9.56-.48A15.88,15.88,0,0,0,12,19C9.39,20.46,6.4,24.2,3.34,24.21a.4.4,0,0,0-.21.74Z" transform="translate(15.92 4.91)"/><path class="cls-12" d="M52.91,2l0,0a1.31,1.31,0,0,0-1.76.46c-1,1.62-1.09,3.88-2,5.64a20.86,20.86,0,0,1-4,5.27.7.7,0,0,0,.68,1.16A10.23,10.23,0,0,0,52.65,9c.68-1.39,2.23-5.92.26-7Z" transform="translate(15.92 4.91)"/><path class="cls-12" d="M2.46,33.37v.1a.62.62,0,0,0,.78.59c2-.34,3.66-2,5.09-3.3a15.46,15.46,0,0,1,3.3-2.32c1.32-.67,2.65-1,3.79-1.92.87-.73.1-2-.86-2.08-2.89-.17-6,2.15-7.83,4.24A35.16,35.16,0,0,1,4,32.1s-1.55.85-1.5,1.27Z" transform="translate(15.92 4.91)"/><path class="cls-12" d="M68.23,14.58c-2,1.71-3,4.63-4.44,6.82A72.07,72.07,0,0,1,58.6,28a.63.63,0,0,0,.6,1c2.92-.66,5-2.52,6.71-4.89s3.85-5.92,3.85-8.94a.91.91,0,0,0-1.53-.63Z" transform="translate(15.92 4.91)"/><path class="cls-12" d="M23.81,72.7c1.9-1.21,4.73-1.23,6.92-1.6,2.47-.42,4.95-.75,7.41-1.29,4.29-.93,8.59-2.54,11.71-5.76a.62.62,0,0,0-.6-1c-4.72,1.42-9.49,2.46-14.33,3.41-4.44.86-9.15,1.18-12.32,4.72-.73.8.21,2.2,1.21,1.56Z" transform="translate(15.92 4.91)"/><path class="cls-11" d="M-1.76,50.34c3.29,1.56,6.62.56,9.65-1.19s6.9-4.65,8.07-8c.41-1.16-1-1.84-1.86-1.43-2.7,1.2-4.48,4.11-6.89,5.82a16.75,16.75,0,0,1-8.53,3.2c-.8,0-1.27,1.23-.44,1.62Z" transform="translate(15.92 4.91)"/><path class="cls-11" d="M18.39,38.57c.82-.25,1.65-.36,2.45-.68s1.72-.47,2.18-1.2a1,1,0,0,0-.34-1.3c-.84-.52-2.11,0-2.93.38a5,5,0,0,0-1.95,2,.53.53,0,0,0,.59.77Z" transform="translate(15.92 4.91)"/><path class="cls-11" d="M33.41-1.58c-3,2.88-4.32,7.36-8.59,8.89-3.43,1.23-7.25.86-10.73,2-1.49.47-4.89,2.38-6.45,1.23-1-.77-.81-2.41-2-3.14C2.84,5.53,1.5,9.91,2.31,12c1.26,3.16,4.68,4.31,7.84,3.9,2.23-.29,4.11-1.34,6.21-2A39.29,39.29,0,0,1,22,12.62c3.47-.62,6.62-1.71,9.05-4.38,2.13-2.33,5-6.13,3.78-9.43a.89.89,0,0,0-1.46-.39Z" transform="translate(15.92 4.91)"/><path class="cls-12" d="M9.39,8c-2.11,2.16-.67,3.71,2,3.5s5.52-.66,8.26-1a29.28,29.28,0,0,0,6-1.06c3.14-1.1,6.89-4,7.24-7.54.28-2.89-2.6-6.59-5.59-4.57a1.44,1.44,0,0,0,.34,2.6,1.31,1.31,0,0,1,1.2,1.18c.9.84.81,1.68-.28,2.54a10.85,10.85,0,0,1-2.28,2,11,11,0,0,1-4.61,1.52c-1.85.29-3.7.53-5.55.82-.4.06-6.25,1-6.12.42A.4.4,0,0,0,9.39,8Z" transform="translate(15.92 4.91)"/><path class="cls-12" d="M24.4.89a4.51,4.51,0,0,0-1,.74,5.27,5.27,0,0,1-2.7.77c-1.51.21-3,.89-4.52.7l.51,3.7C18.5,6.25,29.17,3.6,24.81,0,23-1.48,21,.32,19.41,1.14A21.78,21.78,0,0,1,15.6,2.7c-1.3.39-2.2.45-2.87,1.73a1.34,1.34,0,0,0,.2,1.6c1.63,1.32,3.34.57,5.16-.09a25.8,25.8,0,0,0,2.59-1.1c.6-.3,2.21-1.76,2.84-1.74l-1.29-.53.32.24L22,1.53,22.43,1l-1.05.43c-.62.24-1.23.49-1.86.72A26.35,26.35,0,0,1,15.7,3.16c-2.24.47-1.45,3.49.5,3.71a9.25,9.25,0,0,0,3.85-.68c1.27-.39,2.69-.41,3.88-1C25.34,4.43,27,2.42,25.45,1A.91.91,0,0,0,24.4.89Z" transform="translate(15.92 4.91)"/><path class="cls-12" d="M39.68,1.2c-.44,2-1.61,4-1.31,6a1.08,1.08,0,0,0,1.06.8c3.2-.4,3.9-4.18,3.47-6.82C42.64-.44,40-.35,39.68,1.2Z" transform="translate(15.92 4.91)"/><path class="cls-12" d="M37.34,8.51c-.19.12-.4.22-.59.34a4.3,4.3,0,0,0-.57.56,2.33,2.33,0,0,0-.67,1.47.65.65,0,0,0,.64.64A1.46,1.46,0,0,0,37,11.3a1.8,1.8,0,0,0,.8-.67,2.21,2.21,0,0,0,.43-.74,7.72,7.72,0,0,0,.12-.82.65.65,0,0,0-1-.56Z" transform="translate(15.92 4.91)"/><path class="cls-12" d="M34.14,12.28a10,10,0,0,1-1.67,1.06,4.33,4.33,0,0,0-.71.57c-.29.22-.58.33-.74.69a.61.61,0,0,0,.36.88,2.94,2.94,0,0,0,2.27-.61,9.07,9.07,0,0,0,1.58-1.75c.5-.68-.53-1.32-1.09-.84Z" transform="translate(15.92 4.91)"/><path class="cls-12" d="M17.28,25.52a2.62,2.62,0,0,0,1.08-.05,3.68,3.68,0,0,0,.58-.06c.18-.05.38-.16.56-.22a1,1,0,0,0-.27-1.94,2.5,2.5,0,0,0-1.42.22,2,2,0,0,0-1,.77.89.89,0,0,0,.52,1.28Z" transform="translate(15.92 4.91)"/><path class="cls-12" d="M21.89,24.49a1.33,1.33,0,0,0,.78-.24.61.61,0,0,0,.29-.59c-.08-.58-.81-.6-1.25-.49a.68.68,0,0,0,.18,1.32Z" transform="translate(15.92 4.91)"/><path class="cls-12" d="M55,13.6a1.23,1.23,0,0,0-.8.38c-.15.16-.29.34-.43.51a1.74,1.74,0,0,0-.55,1,1.08,1.08,0,0,0,.48.93,1.13,1.13,0,0,0,1.1,0,2.07,2.07,0,0,0,.62-.75c.11-.18.25-.37.35-.56a1.5,1.5,0,0,0,.09-1A.71.71,0,0,0,55,13.6Z" transform="translate(15.92 4.91)"/><path class="cls-12" d="M51.7,16.62a1.67,1.67,0,0,0-.8.42,2.74,2.74,0,0,0-.3.7.36.36,0,0,0,.34.44,3.17,3.17,0,0,0,.75-.12c.27-.12.43-.44.6-.67s-.17-.94-.59-.77Z" transform="translate(15.92 4.91)"/><path class="cls-11" d="M51.93,33c-.19,0,.27-.07.08,0s.25,0,.34,0a2,2,0,0,0,.91-.36l.09,0,.4-.16a1.31,1.31,0,0,0,.88-1l-.53.69.32-.23A1,1,0,0,0,53.9,30h-.39l.59.16c-.79-.57-1.68.06-2.27.61a1.57,1.57,0,0,0-.61,1.08c0,.08,0,.52,0,.33v.27a.55.55,0,0,0,.69.53Z" transform="translate(15.92 4.91)"/><path class="cls-11" d="M34.44,42.12a8.17,8.17,0,0,0-2.67.48,7.78,7.78,0,0,0-1.16.46c-.55.26-.59.43-1,.88a.43.43,0,0,0,.29.72,2.52,2.52,0,0,0,1.19,0,12.06,12.06,0,0,0,1.29-.41,10.49,10.49,0,0,0,2.32-1.1.58.58,0,0,0-.29-1.07Z" transform="translate(15.92 4.91)"/></g><path class="cls-13" d="M61.87,11.35A35.75,35.75,0,0,1,1.2,45,35.76,35.76,0,1,0,61.87,11.35Z" transform="translate(15.92 4.91)"/><path class="cls-14" d="M59.53,9.06a35.75,35.75,0,0,1-54.48,45,35.75,35.75,0,1,0,54.48-45Z" transform="translate(15.92 4.91)"/><path class="cls-15" d="M64.24,14.15A35.76,35.76,0,0,1,6,55.65a35.76,35.76,0,1,0,58.2-41.5Z" transform="translate(15.92 4.91)"/><path class="cls-16" d="M61.43,10.89A35.65,35.65,0,0,0,35.75,0a34.66,34.66,0,0,0-3.69.19c-.64.07-1.27.15-1.9.25l-.54.09c-.45.08-.89.16-1.34.26l-.64.15-1.2.29-.67.19c-.39.12-.77.23-1.15.36L24,2l-1.12.41-.63.25c-.39.16-.77.33-1.14.5l-.56.25c-.42.2-.83.41-1.24.62l-.41.21a35.83,35.83,0,0,0-3.2,1.94l-.2.14c-.44.3-.87.61-1.29.94l-.38.29c-.36.28-.71.57-1.06.86l-.42.37c-.33.28-.65.56-1,.86a5.33,5.33,0,0,0-.42.4L10,11l-.39.41c-.31.32-.6.65-.89,1-.11.14-.23.26-.34.4-.31.37-.61.74-.91,1.12l-.24.31c-.37.49-.73,1-1.07,1.49a35.73,35.73,0,0,0,5.91,46.88A35.72,35.72,0,0,1,8,17.87,15.08,15.08,0,0,0,33,2.26a34.83,34.83,0,0,1,4.82-.34A35.56,35.56,0,0,1,61.43,10.89Z" transform="translate(15.92 4.91)"/><path class="cls-15" d="M33.46.08A35.76,35.76,0,0,0,.06,33.75,23.72,23.72,0,0,0,33.46.08Z" transform="translate(15.92 4.91)"/><path class="cls-17" d="M35.94,9.09a3.19,3.19,0,1,0,3.19-3.18A3.19,3.19,0,0,0,35.94,9.09Z" transform="translate(15.92 4.91)"/><path class="cls-17" d="M34.18,16.44a2.05,2.05,0,1,0,2-2.05A2.05,2.05,0,0,0,34.18,16.44Z" transform="translate(15.92 4.91)"/><g class="cls-18"><circle class="cls-19" cx="35.75" cy="35.75" r="35.75" transform="translate(5.38 61) rotate(-68.71)"/></g><g class="cls-20"><path class="cls-21" d="M67.9,21.86A35.27,35.27,0,0,1,.45,37.08,35.27,35.27,0,1,0,67.9,21.86Z" transform="translate(15.92 4.91)"/></g><g class="cls-22"><path class="cls-23" d="M50.08,4.09a35.27,35.27,0,0,1-40,56.43,35.27,35.27,0,1,0,40-56.43Z" transform="translate(15.92 4.91)"/></g></g></g></g></svg>