<svg xmlns="http://www.w3.org/2000/svg" xmlns:xlink="http://www.w3.org/1999/xlink" viewBox="0 0 70.62 70.09"><defs><style>.cls-1{mask:url(#mask);filter:url(#luminosity-noclip-4);}.cls-10,.cls-12,.cls-15,.cls-16,.cls-2,.cls-20,.cls-4,.cls-6,.cls-9{mix-blend-mode:multiply;}.cls-2{fill:url(#linear-gradient);}.cls-3{mask:url(#mask-2);filter:url(#luminosity-noclip-5);}.cls-4{fill:url(#linear-gradient-2);}.cls-5{mask:url(#mask-3);filter:url(#luminosity-noclip-6);}.cls-6{fill:url(#linear-gradient-3);}.cls-7{isolation:isolate;}.cls-8{fill:#d8c34e;}.cls-11,.cls-12,.cls-9{fill:#d83f3f;}.cls-24,.cls-9{opacity:0.13;}.cls-10,.cls-12{opacity:0.25;}.cls-13,.cls-17,.cls-18,.cls-22,.cls-24{mix-blend-mode:screen;}.cls-13{opacity:0.85;}.cls-14{fill:#e5b55e;}.cls-15{fill:#ce9c5f;opacity:0.17;}.cls-16{fill:#ce5f5f;opacity:0.19;}.cls-17,.cls-18{fill:#cec35f;}.cls-17{opacity:0.44;}.cls-18,.cls-22{opacity:0.32;}.cls-19{mask:url(#mask-4);}.cls-20{opacity:0.45;fill:url(#linear-gradient-4);}.cls-21{mask:url(#mask-5);}.cls-22{fill:url(#linear-gradient-5);}.cls-23{mask:url(#mask-6);}.cls-24{fill:url(#linear-gradient-6);}.cls-25{filter:url(#luminosity-noclip-3);}.cls-26{filter:url(#luminosity-noclip-2);}.cls-27{filter:url(#luminosity-noclip);}</style><filter id="luminosity-noclip" x="0.42" y="-8264.09" width="70.09" height="32766" filterUnits="userSpaceOnUse" color-interpolation-filters="sRGB"><feFlood flood-color="#fff" result="bg"/><feBlend in="SourceGraphic" in2="bg"/></filter><mask id="mask" x="0.42" y="-8264.09" width="70.09" height="32766" maskUnits="userSpaceOnUse"><g class="cls-27"/></mask><linearGradient id="linear-gradient" x1="10.69" y1="10.26" x2="60.24" y2="59.82" gradientTransform="translate(55.85 -10.45) rotate(69.48)" gradientUnits="userSpaceOnUse"><stop offset="0"/><stop offset="1" stop-color="#fff"/></linearGradient><filter id="luminosity-noclip-2" x="0" y="-8264.09" width="70.54" height="32766" filterUnits="userSpaceOnUse" color-interpolation-filters="sRGB"><feFlood flood-color="#fff" result="bg"/><feBlend in="SourceGraphic" in2="bg"/></filter><mask id="mask-2" x="0" y="-8264.09" width="70.54" height="32766" maskUnits="userSpaceOnUse"><g class="cls-26"/></mask><linearGradient id="linear-gradient-2" x1="70.89" y1="103.92" x2="97.96" y2="145.6" gradientTransform="translate(-0.14 -100.74) rotate(19.52)" gradientUnits="userSpaceOnUse"><stop offset="0.24"/><stop offset="0.38" stop-color="#030303"/><stop offset="0.48" stop-color="#0d0d0d"/><stop offset="0.56" stop-color="#1d1d1d"/><stop offset="0.65" stop-color="#343434"/><stop offset="0.73" stop-color="#515151"/><stop offset="0.8" stop-color="#767676"/><stop offset="0.87" stop-color="#a1a1a1"/><stop offset="0.94" stop-color="#d1d1d1"/><stop offset="1" stop-color="#fff"/></linearGradient><filter id="luminosity-noclip-3" x="9.67" y="-8264.09" width="60.95" height="32766" filterUnits="userSpaceOnUse" color-interpolation-filters="sRGB"><feFlood flood-color="#fff" result="bg"/><feBlend in="SourceGraphic" in2="bg"/></filter><mask id="mask-3" x="9.67" y="-8264.09" width="60.95" height="32766" maskUnits="userSpaceOnUse"><g class="cls-25"/></mask><linearGradient id="linear-gradient-3" x1="13.2" y1="-82.26" x2="40.27" y2="-40.58" gradientTransform="matrix(0.92, -0.38, 0.38, 0.92, 42.82, 107.8)" gradientUnits="userSpaceOnUse"><stop offset="0.24"/><stop offset="0.35" stop-color="#040404"/><stop offset="0.45" stop-color="#0e0e0e"/><stop offset="0.54" stop-color="#212121"/><stop offset="0.63" stop-color="#3a3a3a"/><stop offset="0.72" stop-color="#5b5b5b"/><stop offset="0.8" stop-color="#848484"/><stop offset="0.89" stop-color="#b4b4b4"/><stop offset="0.97" stop-color="#eaeaea"/><stop offset="1" stop-color="#fff"/></linearGradient><filter id="luminosity-noclip-4" x="0.42" y="0" width="70.09" height="70.09" filterUnits="userSpaceOnUse" color-interpolation-filters="sRGB"><feFlood flood-color="#fff" result="bg"/><feBlend in="SourceGraphic" in2="bg"/></filter><mask id="mask-4" x="0.42" y="0" width="70.09" height="70.09" maskUnits="userSpaceOnUse"><g class="cls-1"><circle class="cls-2" cx="35.46" cy="35.04" r="35.04" transform="translate(-9.79 55.98) rotate(-69.48)"/></g></mask><linearGradient id="linear-gradient-4" x1="10.69" y1="10.26" x2="60.24" y2="59.82" gradientTransform="translate(55.85 -10.45) rotate(69.48)" gradientUnits="userSpaceOnUse"><stop offset="0" stop-color="red"/><stop offset="1" stop-color="#930000"/></linearGradient><filter id="luminosity-noclip-5" x="0" y="20.34" width="70.54" height="49.68" filterUnits="userSpaceOnUse" color-interpolation-filters="sRGB"><feFlood flood-color="#fff" result="bg"/><feBlend in="SourceGraphic" in2="bg"/></filter><mask id="mask-5" x="0" y="20.34" width="70.54" height="49.68" maskUnits="userSpaceOnUse"><g class="cls-3"><path class="cls-4" d="M67.45,20.34A35.26,35.26,0,0,1,0,35.56,35.27,35.27,0,1,0,67.45,20.34Z"/></g></mask><linearGradient id="linear-gradient-5" x1="70.89" y1="103.92" x2="97.96" y2="145.6" gradientTransform="translate(-0.14 -100.74) rotate(19.52)" gradientUnits="userSpaceOnUse"><stop offset="0.24" stop-color="#fff"/><stop offset="0.92" stop-color="#fff"/><stop offset="1" stop-color="#fff"/></linearGradient><filter id="luminosity-noclip-6" x="9.67" y="2.57" width="60.95" height="67.51" filterUnits="userSpaceOnUse" color-interpolation-filters="sRGB"><feFlood flood-color="#fff" result="bg"/><feBlend in="SourceGraphic" in2="bg"/></filter><mask id="mask-6" x="9.67" y="2.57" width="60.95" height="67.51" maskUnits="userSpaceOnUse"><g class="cls-5"><path class="cls-6" d="M49.63,2.57A35.26,35.26,0,0,1,9.67,59a35.27,35.27,0,1,0,40-56.43Z"/></g></mask><linearGradient id="linear-gradient-6" x1="13.2" y1="-82.26" x2="40.27" y2="-40.58" gradientTransform="matrix(0.92, -0.38, 0.38, 0.92, 42.82, 107.8)" gradientUnits="userSpaceOnUse"><stop offset="0.24" stop-color="#fff"/><stop offset="0.36" stop-color="#fefbfb"/><stop offset="0.47" stop-color="#fbf1f1"/><stop offset="0.57" stop-color="#f6dfdf"/><stop offset="0.67" stop-color="#efc5c5"/><stop offset="0.77" stop-color="#e6a4a4"/><stop offset="0.86" stop-color="#dc7c7c"/><stop offset="0.96" stop-color="#cf4d4d"/><stop offset="1" stop-color="#c83333"/></linearGradient></defs><g class="cls-7"><g id="Layer_2" data-name="Layer 2"><g id="Layer_1-2" data-name="Layer 1"><circle class="cls-8" cx="35.46" cy="35.04" r="35.04" transform="translate(-9.79 55.98) rotate(-69.48)"/><path class="cls-9" d="M41.51.53a10.62,10.62,0,0,1,1.37,5.08c.08,5.75-5.1,10.39-9.4,13.48a45.57,45.57,0,0,1-16.81,7.37c-3.07.7-6.33,1.42-9.5,1.08A7.91,7.91,0,0,1,1.9,25,34.56,34.56,0,0,0,.51,32.62,24.74,24.74,0,0,0,13.16,36a49,49,0,0,0,27-9.07C47.56,21.72,54,14.54,53.8,5.18A34.69,34.69,0,0,0,41.51.53Z"/><path class="cls-9" d="M63,18.78a32.41,32.41,0,0,1-3.48,9.36A59,59,0,0,1,44.88,45.25,50.46,50.46,0,0,1,24,55.4,46.83,46.83,0,0,1,7.4,56a36.22,36.22,0,0,0,3.09,3.58,51.61,51.61,0,0,0,14.18,2,59.45,59.45,0,0,0,26.46-6.4,77.15,77.15,0,0,0,11.81-7.27,72,72,0,0,0,6.85-5.82,35,35,0,0,0-6.48-28.33A19.71,19.71,0,0,1,63,18.78Z"/><g class="cls-10"><path class="cls-11" d="M37,10.19a10.6,10.6,0,0,0-1.73,1.55A11.75,11.75,0,0,0,34,13.68c-.37.6.42,1.09.9.7a12,12,0,0,0,1.7-1.56A10,10,0,0,0,37.82,11c.25-.47-.29-1.15-.79-.79Z"/></g><g class="cls-10"><path class="cls-11" d="M45.81,26.26a1.68,1.68,0,0,0,1,.17c1.73-.11,2.56-1.78,3.62-2.86a14.85,14.85,0,0,0,4.28-7.46A.41.41,0,0,0,54,15.8c-1.4,1.87-2.3,4.06-3.69,5.95-1,1.38-2.8,1.93-4,3.09C45.6,25.49,45.45,26,45.81,26.26Z"/></g><path class="cls-12" d="M24.39,17.06c-2.81.28-17.85,5.25-19.57,1A37.21,37.21,0,0,0,3,22a6.68,6.68,0,0,0,2.58,1.57c5.92,1.88,14.59-.5,19.58-3.83C26.17,19,25.91,16.9,24.39,17.06Z"/><path class="cls-12" d="M38.39,3.2a34.89,34.89,0,0,1-.52,5.4c-.08.85,1.12,1.05,1.52.41A10.8,10.8,0,0,0,40,.3c-.7-.09-1.39-.16-2.1-.21A21.26,21.26,0,0,1,38.39,3.2Z"/><path class="cls-12" d="M60.52,10.56c-.3,1.7-.56,3.43-1,5.1a47.75,47.75,0,0,1-3.73,9.56c-3.08,6-7.58,10.64-12.29,15.37a.85.85,0,0,0,1,1.34c6.21-3.41,10.89-9.51,14-15.74A41.15,41.15,0,0,0,62.8,13.12C62.08,12.23,61.32,11.37,60.52,10.56Z"/><path class="cls-12" d="M43,28.61c-7.2,3.09-14.08,6.71-21.89,8A39.29,39.29,0,0,1,.43,34.8c0,.08,0,.16,0,.24,0,.38,0,.76,0,1.13,13.84,5.78,31,1.29,42.92-7A.34.34,0,0,0,43,28.61Z"/><path class="cls-12" d="M51.51,59.17C45.07,61.71,38.57,64,31.63,64.61a62.74,62.74,0,0,1-16.17-.8,33.63,33.63,0,0,0,4.41,2.61c11,1.8,23-.15,32-6.32C52.34,59.79,52.08,58.94,51.51,59.17Z"/><path class="cls-9" d="M34.48,38.09c-10.82.12-22.35,7.69-33.32,4.14a34.61,34.61,0,0,0,2.63,7.82,24.71,24.71,0,0,0,10,1,50.22,50.22,0,0,0,12.29-2.59c4.5-1.61,7.5-3.17,10.33-7.05C37.39,40,36,38.07,34.48,38.09Z"/><path class="cls-9" d="M19.55,9.64a23.41,23.41,0,0,1-9.71,1.51A35,35,0,0,0,6.4,15.46C15.11,22.75,35.68,11.13,33.07.09c-1,.07-2,.16-2.92.31C30.08,5.23,23.55,8,19.55,9.64Z"/><g class="cls-13"><g class="cls-10"><path class="cls-14" d="M29.32,27.06a1.6,1.6,0,0,0,0-3.19,1.6,1.6,0,0,0,0,3.19Z"/></g><g class="cls-10"><path class="cls-14" d="M32.7,26.1a1.87,1.87,0,0,0,0-3.74,1.87,1.87,0,0,0,0,3.74Z"/></g><g class="cls-10"><path class="cls-14" d="M35.06,23.68a.58.58,0,0,0,0-1.16.58.58,0,0,0,0,1.16Z"/></g><g class="cls-10"><path class="cls-14" d="M36.81,22.79a1.13,1.13,0,0,0,0-2.25,1.13,1.13,0,0,0,0,2.25Z"/></g><g class="cls-10"><path class="cls-14" d="M40.31,20.57l.18-.11A1.24,1.24,0,0,0,41,19.1a1.22,1.22,0,0,0-1.16-.89l-.21,0a1.26,1.26,0,1,0,.64,2.34Z"/></g><g class="cls-10"><path class="cls-14" d="M43.81,17.06l0-.07a1.56,1.56,0,0,0-1.08-1.91l-.08,0a1.65,1.65,0,0,0-1.84,2.4,1.62,1.62,0,0,0,3-.39Z"/></g><g class="cls-10"><path class="cls-14" d="M44.1,15a1,1,0,1,0-1-1,1,1,0,0,0,1,1Z"/></g><g class="cls-10"><path class="cls-14" d="M45.23,11.77a.78.78,0,0,0,0-1.56.78.78,0,0,0,0,1.56Z"/></g><g class="cls-10"><path class="cls-14" d="M27,27.09l0-.1a1.12,1.12,0,1,0-2.16,0l0,.1a1.1,1.1,0,0,0,2.1,0Z"/></g><g class="cls-10"><path class="cls-14" d="M6.94,46.67a.58.58,0,0,0,0-1.15.58.58,0,0,0,0,1.15Z"/></g><g class="cls-10"><path class="cls-14" d="M9.81,47.25a1,1,0,0,0,0-1.9,1,1,0,0,0,0,1.9Z"/></g><g class="cls-10"><path class="cls-14" d="M13.41,48a1.94,1.94,0,1,0-1.94-1.94A2,2,0,0,0,13.41,48Z"/></g><g class="cls-10"><path class="cls-14" d="M16.9,47.79a2.31,2.31,0,1,0-2.31-2.31,2.33,2.33,0,0,0,2.31,2.31Z"/></g><g class="cls-10"><path class="cls-14" d="M21.09,45.57l.05,0a1.24,1.24,0,0,0,0-1.72l-.05,0a1.3,1.3,0,0,0-2.2.91,1.33,1.33,0,0,0,.64,1.11,1.3,1.3,0,0,0,1.56-.2Z"/></g><g class="cls-10"><path class="cls-14" d="M23.16,44.8a1.06,1.06,0,1,0-1.05-1.06,1.07,1.07,0,0,0,1.05,1.06Z"/></g><g class="cls-10"><path class="cls-14" d="M25.93,44.2a1.39,1.39,0,0,0,0-2.78,1.39,1.39,0,0,0,0,2.78Z"/></g><g class="cls-10"><path class="cls-14" d="M66.06,27.67c3,0,3-4.62,0-4.62s-3,4.62,0,4.62Z"/></g><g class="cls-10"><path class="cls-14" d="M64.93,30.75a1.6,1.6,0,1,0-1.59-1.59,1.61,1.61,0,0,0,1.59,1.59Z"/></g><g class="cls-10"><path class="cls-14" d="M63.29,33.15a1.33,1.33,0,0,0,0-2.65,1.33,1.33,0,0,0,0,2.65Z"/></g><g class="cls-10"><path class="cls-14" d="M61,35.31a.92.92,0,0,0,0-1.83.92.92,0,0,0,0,1.83Z"/></g><g class="cls-10"><path class="cls-14" d="M58.26,40.26c2.67,0,2.67-4.14,0-4.14s-2.67,4.14,0,4.14Z"/></g><g class="cls-10"><path class="cls-14" d="M56,43.72a1.73,1.73,0,0,0,0-3.46,1.73,1.73,0,0,0,0,3.46Z"/></g><g class="cls-10"><path class="cls-14" d="M53.54,45.23a1.09,1.09,0,1,0-1.09-1.09,1.11,1.11,0,0,0,1.09,1.09Z"/></g><g class="cls-10"><path class="cls-14" d="M50.46,47.18a.88.88,0,0,0,0-1.76.88.88,0,0,0,0,1.76Z"/></g><g class="cls-10"><path class="cls-14" d="M54.36,59.94a1.63,1.63,0,0,0,0-3.26,1.63,1.63,0,0,0,0,3.26Z"/></g><g class="cls-10"><path class="cls-14" d="M57.44,57.75a1.19,1.19,0,0,0,0-2.37,1.19,1.19,0,0,0,0,2.37Z"/></g><g class="cls-10"><path class="cls-14" d="M60.31,52.13h-.1a2,2,0,0,0,0,3.94h.1a2,2,0,0,0,0-3.94Z"/></g><g class="cls-10"><path class="cls-14" d="M63.39,53.4a1.46,1.46,0,1,0-1.46-1.46,1.47,1.47,0,0,0,1.46,1.46Z"/></g><g class="cls-10"><path class="cls-14" d="M65.24,50a.45.45,0,0,0,0-.89.45.45,0,0,0,0,.89Z"/></g><g class="cls-10"><path class="cls-14" d="M66.37,48.72a.78.78,0,0,0,0-1.56.78.78,0,0,0,0,1.56Z"/></g><g class="cls-10"><path class="cls-14" d="M18.13,55a.58.58,0,0,0,0-1.16.58.58,0,0,0,0,1.16Z"/></g><g class="cls-10"><path class="cls-14" d="M20.59,55.08a1,1,0,0,0,0-2,1,1,0,0,0,0,2Z"/></g><g class="cls-10"><path class="cls-14" d="M23.46,55a1.36,1.36,0,0,0,0-2.72,1.36,1.36,0,0,0-1.35,1.36A1.38,1.38,0,0,0,23.46,55Z"/></g><g class="cls-10"><path class="cls-14" d="M26.85,53.75a1,1,0,0,0,0-2,1,1,0,0,0,0,2Z"/></g><g class="cls-10"><path class="cls-14" d="M29.11,53a1.06,1.06,0,0,0,0-2.11,1.06,1.06,0,0,0,0,2.11Z"/></g><g class="cls-10"><path class="cls-14" d="M31.16,51.46a.54.54,0,0,0,0-1.08.54.54,0,0,0,0,1.08Z"/></g><g class="cls-10"><path class="cls-14" d="M11.76,15.94a1.56,1.56,0,0,0,0-3.12,1.56,1.56,0,0,0,0,3.12Z"/></g><g class="cls-10"><path class="cls-14" d="M15.25,15.19a.82.82,0,0,0,0-1.63.82.82,0,0,0,0,1.63Z"/></g><g class="cls-10"><path class="cls-14" d="M18.33,15.29a1.53,1.53,0,0,0,0-3.06,1.53,1.53,0,0,0,0,3.06Z"/></g><g class="cls-10"><path class="cls-14" d="M22,13.31a1.19,1.19,0,0,0,0-2.38,1.19,1.19,0,0,0,0,2.38Z"/></g><g class="cls-10"><path class="cls-14" d="M24.18,11.63a.75.75,0,0,0,0-1.49.75.75,0,0,0,0,1.49Z"/></g><g class="cls-10"><path class="cls-14" d="M26.13,10.17a.31.31,0,0,0,0-.61.31.31,0,0,0,0,.61Z"/></g><g class="cls-10"><path class="cls-14" d="M27.57,9.55a1,1,0,0,0,0-2,1,1,0,0,0,0,2Z"/></g><g class="cls-10"><path class="cls-14" d="M3.24,41.91a1.87,1.87,0,0,0,0-3.74,1.87,1.87,0,0,0,0,3.74Z"/></g><g class="cls-10"><path class="cls-14" d="M7.1,40.08l0-.06A.75.75,0,0,0,6,40l0,.06a.81.81,0,1,0,1.15,0Z"/></g><g class="cls-10"><path class="cls-14" d="M9.2,41.67a.92.92,0,0,0,0-1.83.92.92,0,0,0,0,1.83Z"/></g><g class="cls-10"><path class="cls-14" d="M56.62,12.69a1.91,1.91,0,1,0-1.9-1.91,1.93,1.93,0,0,0,1.9,1.91Z"/></g><g class="cls-10"><path class="cls-14" d="M57.13,15.8a1.22,1.22,0,0,0,0-2.44,1.22,1.22,0,0,0,0,2.44Z"/></g><g class="cls-10"><path class="cls-14" d="M56.82,17.93a.89.89,0,0,0,0-1.77.89.89,0,0,0,0,1.77Z"/></g><g class="cls-10"><path class="cls-14" d="M56.21,19.47a.27.27,0,0,0,0-.54.27.27,0,0,0,0,.54Z"/></g><g class="cls-10"><path class="cls-14" d="M41.94,39.37a1.9,1.9,0,1,0-1.9-1.9,1.92,1.92,0,0,0,1.9,1.9Z"/></g><g class="cls-10"><path class="cls-14" d="M45.23,36.33c2.49,0,2.49-3.87,0-3.87s-2.5,3.87,0,3.87Z"/></g><g class="cls-10"><path class="cls-14" d="M48.1,33.12a1,1,0,0,0,0-2,1,1,0,0,0,0,2Z"/></g><g class="cls-10"><path class="cls-14" d="M49.74,30.9a.61.61,0,0,0,0-1.22.61.61,0,0,0,0,1.22Z"/></g><g class="cls-10"><path class="cls-14" d="M40.5,41.67a.82.82,0,0,0,0-1.63.82.82,0,0,0,0,1.63Z"/></g><g class="cls-10"><path class="cls-14" d="M38.86,43.56a.75.75,0,0,0,0-1.5.75.75,0,0,0,0,1.5Z"/></g></g><path class="cls-15" d="M41.49.53q-.23.38-.42.75a28.54,28.54,0,0,0-3,10.28c-.26,2.71,0,5.68,1.71,7.76,1.47,1.75,3.77,2.56,6,3.05,3.88.85,7.9,1,11.8,1.76s7.83,2.43,10.24,5.59a13.86,13.86,0,0,1,2.61,7.36c0-.68.07-1.35.07-2A35,35,0,0,0,41.49.53Z"/><path class="cls-15" d="M69.86,41.83a44.64,44.64,0,0,1-7.08,6.1A15,15,0,0,1,54,50.57a9.08,9.08,0,0,1-7.61-4.67c-1.61-3.23-.8-7.48-3.09-10.27a7.82,7.82,0,0,0-5.89-2.52c-3.51-.09-6.9,1.36-9.9,3.2s-5.72,4.1-8.76,5.88-6.52,3.07-10,2.73a10,10,0,0,1-4.3-1.47c-1.49-.93-2-2.29-3.11-3.42-.66-.64-.53-.37-.48.52A14.08,14.08,0,0,0,1.31,43a33.85,33.85,0,0,0,1.47,4.61A36,36,0,0,0,14.32,62.92a33.34,33.34,0,0,0,3.88,2.56,35.71,35.71,0,0,0,31.86,1.34A35.69,35.69,0,0,0,69.86,41.83Z"/><path class="cls-16" d="M59.7,9.75A35,35,0,0,1,3.86,50.19,35,35,0,1,0,59.7,9.75Z"/><path class="cls-15" d="M52.06,4.18A34.72,34.72,0,0,1,53.17,13a35,35,0,0,1-35,35,34.9,34.9,0,0,1-16.6-4.17A35,35,0,1,0,52.06,4.18Z"/><path class="cls-17" d="M61.07,11.14A34.93,34.93,0,0,0,35.46,0c-.94,0-1.88.05-2.81.12A34.89,34.89,0,0,0,15.23,6.44,35.59,35.59,0,0,0,10,11a35,35,0,0,0,1.88,50A35,35,0,0,1,5.69,22.42a17.74,17.74,0,0,0,11.21,4A17.84,17.84,0,0,0,33.61,2.26,36,36,0,0,1,37.52,2,34.86,34.86,0,0,1,61.07,11.14Z"/><path class="cls-18" d="M36,13.56a4.8,4.8,0,1,0,4.8-4.8A4.8,4.8,0,0,0,36,13.56Z"/><circle class="cls-18" cx="35.06" cy="20.54" r="2.41"/><path class="cls-17" d="M6.55,15.24A12.23,12.23,0,0,0,26.49,1.16,35.13,35.13,0,0,0,6.55,15.24Z"/><g class="cls-19"><circle class="cls-20" cx="35.46" cy="35.04" r="35.04" transform="translate(-9.79 55.98) rotate(-69.48)"/></g><g class="cls-21"><path class="cls-22" d="M67.45,20.34A35.26,35.26,0,0,1,0,35.56,35.27,35.27,0,1,0,67.45,20.34Z"/></g><g class="cls-23"><path class="cls-24" d="M49.63,2.57A35.26,35.26,0,0,1,9.67,59a35.27,35.27,0,1,0,40-56.43Z"/></g></g></g></g></svg>